<svg width="48" height="48" viewBox="0 0 48 48" fill="none" xmlns="http://www.w3.org/2000/svg">
<g id="EnvelopeSimple">
<g id="Vector">
<path fill-rule="evenodd" clip-rule="evenodd" d="M4.5 10.5C4.5 9.67157 5.17157 9 6 9H42C42.8284 9 43.5 9.67157 43.5 10.5V36C43.5 36.7956 43.1839 37.5587 42.6213 38.1213C42.0587 38.6839 41.2956 39 40.5 39H7.5C6.70435 39 5.94129 38.6839 5.37868 38.1213C4.81607 37.5587 4.5 36.7956 4.5 36V10.5ZM7.5 12V36H40.5V12H7.5Z" fill="white"/>
<path fill-rule="evenodd" clip-rule="evenodd" d="M4.89428 9.48642C5.45407 8.87574 6.40292 8.83449 7.0136 9.39428L24 24.9652L40.9864 9.39428C41.5971 8.83449 42.5459 8.87574 43.1057 9.48642C43.6655 10.0971 43.6243 11.046 43.0136 11.6057L25.0136 28.1057C24.4401 28.6314 23.5599 28.6314 22.9864 28.1057L4.98642 11.6057C4.37574 11.046 4.33449 10.0971 4.89428 9.48642Z" fill="white"/>
</g>
</g>
</svg>
