<svg width="48" height="48" viewBox="0 0 48 48" fill="none" xmlns="http://www.w3.org/2000/svg">
<g id="HandPointing">
<path id="Vector" fill-rule="evenodd" clip-rule="evenodd" d="M16.5366 3.03769C17.5212 2.05312 18.8566 1.5 20.2489 1.5C21.6413 1.5 22.9767 2.05312 23.9613 3.03769C24.9458 4.02226 25.4989 5.35761 25.4989 6.75V14.0066C26.1956 13.6762 26.9632 13.5 27.7489 13.5C29.1413 13.5 30.4767 14.0531 31.4613 15.0377C31.8968 15.4732 32.2479 15.9774 32.504 16.5247C33.3233 16.0223 34.2721 15.75 35.2489 15.75C36.6413 15.75 37.9767 16.3031 38.9613 17.2877C39.9458 18.2723 40.4989 19.6076 40.4989 21V28.5C40.4989 30.6668 40.0722 32.8124 39.243 34.8143C38.4138 36.8161 37.1984 38.6351 35.6662 40.1673C34.134 41.6994 32.3151 42.9148 30.3132 43.744C28.3113 44.5732 26.1658 45 23.9989 45C19.5098 45 16.11 43.7519 13.065 40.6991C10.1405 37.767 7.59566 33.2154 4.55485 26.8115C3.88522 25.6159 3.70875 24.205 4.06483 22.88C4.42653 21.5341 5.30807 20.387 6.51553 19.691C7.72298 18.9951 9.15744 18.8073 10.5033 19.169C11.8492 19.5307 12.9963 20.4123 13.6923 21.6197L14.9989 23.887V6.75C14.9989 5.35761 15.5521 4.02226 16.5366 3.03769ZM32.9989 21H29.9989V18.75C29.9989 18.1533 29.7619 17.581 29.3399 17.159C28.918 16.7371 28.3457 16.5 27.7489 16.5C27.1522 16.5 26.5799 16.7371 26.158 17.159C25.736 17.581 25.4989 18.1533 25.4989 18.75C25.4989 19.5784 24.8274 20.25 23.9989 20.25C23.1705 20.25 22.4989 19.5784 22.4989 18.75V6.75C22.4989 6.15326 22.2619 5.58097 21.8399 5.15901C21.418 4.73705 20.8457 4.5 20.2489 4.5C19.6522 4.5 19.0799 4.73705 18.658 5.15901C18.236 5.58097 17.9989 6.15326 17.9989 6.75V29.4938C17.9989 30.1729 17.5427 30.7673 16.8866 30.9428C16.2306 31.1183 15.5384 30.8311 15.1993 30.2427L11.0931 23.1178C11.0931 23.1178 11.0931 23.1178 11.0931 23.1178C10.7945 22.5997 10.3023 22.2214 9.72475 22.0662C9.14724 21.911 8.53172 21.9916 8.01361 22.2902C7.4955 22.5888 7.11724 23.081 6.96204 23.6586C6.80684 24.2361 6.88741 24.8516 7.18603 25.3697C7.20596 25.4043 7.2245 25.4396 7.24161 25.4757C10.3029 31.9269 12.665 36.0499 15.1891 38.5805C17.6004 40.9981 20.2006 42 23.9989 42C25.7718 42 27.5273 41.6508 29.1652 40.9724C30.8031 40.2939 32.2913 39.2995 33.5449 38.0459C34.7985 36.7924 35.7929 35.3041 36.4713 33.6662C37.1498 32.0283 37.4989 30.2728 37.4989 28.5V21C37.4989 20.4033 37.2619 19.831 36.8399 19.409C36.418 18.9871 35.8457 18.75 35.2489 18.75C34.6522 18.75 34.0799 18.9871 33.658 19.409C33.236 19.831 32.9989 20.4033 32.9989 21Z" fill="white"/>
</g>
</svg>
