<svg width="48" height="48" viewBox="0 0 48 48" fill="none" xmlns="http://www.w3.org/2000/svg">
<g id="Megaphone">
<path id="Vector" fill-rule="evenodd" clip-rule="evenodd" d="M6.23362 5.2052C6.74789 4.96572 7.31953 4.87698 7.88221 4.94925C8.44488 5.02153 8.97553 5.25186 9.41259 5.61353L9.41961 5.61934C14.1331 9.56826 18.9369 11.5397 22.5563 12.5241C24.3658 13.0163 25.8753 13.2606 26.9223 13.3818C27.4456 13.4423 27.8524 13.472 28.1225 13.4865C28.2575 13.4938 28.3581 13.4973 28.422 13.499C28.4539 13.4998 28.4766 13.5002 28.4897 13.5003L28.5012 13.5005L36 13.5004C38.387 13.5004 40.6762 14.4486 42.364 16.1365C44.0518 17.8243 45 20.1135 45 22.5004C45 24.8874 44.0518 27.1766 42.364 28.8644C40.9597 30.2687 39.139 31.1611 37.1921 31.4212L34.9806 40.3005L34.9797 40.3042C34.8624 40.7702 34.6349 41.2011 34.3163 41.5608C33.9977 41.9205 33.5974 42.1984 33.149 42.3711C32.7006 42.5439 32.2173 42.6064 31.7397 42.5534C31.2634 42.5006 30.8067 42.3344 30.4078 42.0687L30.4047 42.0667L28.351 40.7038C27.9336 40.4312 27.5912 40.0582 27.3551 39.6189C27.1189 39.1793 26.9969 38.6874 27.0001 38.1885V31.6102C26.9745 31.6131 26.9485 31.6161 26.9223 31.6191C25.8752 31.7402 24.3657 31.9846 22.5562 32.4767C18.9368 33.4612 14.1331 35.4326 9.41959 39.3815L9.41261 39.3873C8.97556 39.749 8.44489 39.9793 7.88221 40.0516C7.31953 40.1239 6.74789 40.0351 6.23362 39.7956C5.71934 39.5562 5.2835 39.1758 4.97667 38.6986C4.66984 38.2215 4.50459 37.6671 4.50009 37.0998L4.5 37.0879L4.50005 7.90103C4.50454 7.33375 4.66984 6.77937 4.97667 6.30221C5.2835 5.82505 5.71934 5.44467 6.23362 5.2052ZM27.0001 28.5935C26.8671 28.6067 26.7261 28.6218 26.5774 28.639C25.4015 28.775 23.7422 29.0452 21.7689 29.5819C17.8244 30.6548 12.6093 32.7976 7.50005 37.076V7.92488C12.6093 12.2033 17.8245 14.3461 21.7689 15.4189C23.7422 15.9557 25.4015 16.2258 26.5775 16.3619C26.7261 16.3791 26.8671 16.3942 27.0001 16.4074V28.5935ZM30.0001 16.5005V28.5004L36.0001 28.5005C37.5914 28.5005 39.1174 27.8683 40.2427 26.7431C41.3679 25.6178 42 24.0917 42 22.5004C42 20.9091 41.3679 19.383 40.2427 18.2578C39.1175 17.1326 37.5913 16.5004 36.0001 16.5004L30.0001 16.5005ZM30.0001 31.5004L34.0807 31.5004L32.0705 39.5717L32.067 39.5694L30.0045 38.2006L30.0001 38.1977V31.5004Z" fill="white"/>
</g>
</svg>
