<svg width="48" height="48" viewBox="0 0 48 48" fill="none" xmlns="http://www.w3.org/2000/svg">
<path fill-rule="evenodd" clip-rule="evenodd" d="M6 10.5C6.82843 10.5 7.5 11.1716 7.5 12V27C7.5 27.8284 6.82843 28.5 6 28.5C5.17157 28.5 4.5 27.8284 4.5 27V12C4.5 11.1716 5.17157 10.5 6 10.5Z" fill="white"/>
<path fill-rule="evenodd" clip-rule="evenodd" d="M24 34.5029C21.5015 34.5029 19.0425 35.1263 16.8456 36.3165C14.6488 37.5067 12.7836 39.2261 11.4191 41.3191C10.9666 42.0131 10.0373 42.2089 9.3433 41.7564C8.64933 41.304 8.45355 40.3746 8.906 39.6807C10.5432 37.1696 12.7809 35.1067 15.4165 33.6787C18.0522 32.2508 21.0024 31.5029 24 31.5029C26.9976 31.5029 29.9479 32.2508 32.5835 33.6787C35.2192 35.1067 37.4569 37.1696 39.0941 39.6807C39.5465 40.3746 39.3507 41.304 38.6568 41.7564C37.9628 42.2089 37.0335 42.0131 36.581 41.3191C35.2164 39.2261 33.3512 37.5067 31.1544 36.3165C28.9576 35.1263 26.4986 34.5029 24 34.5029Z" fill="white"/>
<path fill-rule="evenodd" clip-rule="evenodd" d="M23.5257 4.57698C23.8336 4.47434 24.1664 4.47434 24.4743 4.57698L42.4743 10.577C43.0869 10.7811 43.5 11.3544 43.5 12C43.5 12.6456 43.0869 13.2189 42.4743 13.423L24.4743 19.423C24.1664 19.5257 23.8336 19.5257 23.5257 19.423L5.52566 13.423C4.91315 13.2189 4.5 12.6456 4.5 12C4.5 11.3544 4.91315 10.7811 5.52566 10.577L23.5257 4.57698ZM10.7434 12L24 16.4189L37.2566 12L24 7.58114L10.7434 12Z" fill="white"/>
<path fill-rule="evenodd" clip-rule="evenodd" d="M17.2693 14.3061C17.8802 14.8656 17.922 15.8144 17.3625 16.4254C16.1831 17.7133 15.4039 19.3166 15.1199 21.0396C14.8358 22.7627 15.0592 24.5312 15.7628 26.1296C16.4664 27.7279 17.6198 29.087 19.0824 30.0412C20.545 30.9954 22.2537 31.5029 24 31.5029C25.7464 31.5029 27.455 30.9954 28.9176 30.0412C30.3802 29.087 31.5336 27.7279 32.2372 26.1296C32.9408 24.5312 33.1642 22.7627 32.8802 21.0396C32.5961 19.3166 31.8169 17.7133 30.6375 16.4254C30.078 15.8144 30.1198 14.8656 30.7307 14.3061C31.3417 13.7466 32.2905 13.7884 32.85 14.3993C34.4225 16.1166 35.4615 18.2542 35.8402 20.5517C36.2189 22.8491 35.9211 25.2072 34.9829 27.3383C34.0448 29.4694 32.5069 31.2815 30.5568 32.5538C28.6066 33.8261 26.3285 34.5029 24 34.5029C21.6716 34.5029 19.3934 33.8261 17.4432 32.5538C15.4931 31.2815 13.9552 29.4694 13.0171 27.3383C12.0789 25.2072 11.7811 22.8491 12.1598 20.5517C12.5385 18.2542 13.5775 16.1166 15.15 14.3993C15.7095 13.7884 16.6583 13.7466 17.2693 14.3061Z" fill="white"/>
</svg>
