<svg width="63" height="62" viewBox="0 0 63 62" fill="none" xmlns="http://www.w3.org/2000/svg">
<path d="M31.5 19.375H52.8125C53.3264 19.375 53.8192 19.5791 54.1825 19.9425C54.5459 20.3058 54.75 20.7986 54.75 21.3125V48.4375C54.75 48.9514 54.5459 49.4442 54.1825 49.8075C53.8192 50.1709 53.3264 50.375 52.8125 50.375H10.1875C9.67364 50.375 9.18083 50.1709 8.81748 49.8075C8.45413 49.4442 8.25 48.9514 8.25 48.4375V25.1875" fill="#E1348B"/>
<path d="M31.5 19.375H52.8125C53.3264 19.375 53.8192 19.5791 54.1825 19.9425C54.5459 20.3058 54.75 20.7986 54.75 21.3125V48.4375C54.75 48.9514 54.5459 49.4442 54.1825 49.8075C53.8192 50.1709 53.3264 50.375 52.8125 50.375H10.1875C9.67364 50.375 9.18083 50.1709 8.81748 49.8075C8.45413 49.4442 8.25 48.9514 8.25 48.4375V25.1875" stroke="white" stroke-width="2" stroke-linecap="round" stroke-linejoin="round"/>
<path d="M23.0961 25.1875H8.25V15.5C8.25 14.9861 8.45413 14.4933 8.81748 14.13C9.18083 13.7666 9.67364 13.5625 10.1875 13.5625H23.0961C23.515 13.5642 23.9224 13.7 24.2586 13.95L31.5 19.375L24.2586 24.8C23.9224 25.05 23.515 25.1858 23.0961 25.1875Z" fill="#494C52" stroke="white" stroke-width="2" stroke-linecap="round" stroke-linejoin="round"/>
</svg>
