<svg width="110" height="215" viewBox="0 0 110 215" fill="none" xmlns="http://www.w3.org/2000/svg">
<circle opacity="0.15" cx="7.5" cy="7.5" r="7.5" fill="#D9D9D9" fill-opacity="0.25"/>
<circle opacity="0.15" cx="7.5" cy="85.5" r="7.5" fill="#D9D9D9" fill-opacity="0.25"/>
<circle opacity="0.15" cx="7.5" cy="124.5" r="7.5" fill="#D9D9D9" fill-opacity="0.25"/>
<circle opacity="0.15" cx="7.5" cy="163.5" r="7.5" fill="#D9D9D9" fill-opacity="0.25"/>
<circle opacity="0.15" cx="7.5" cy="202.5" r="7.5" fill="#D9D9D9" fill-opacity="0.25"/>
<circle opacity="0.15" cx="7.5" cy="46.5" r="7.5" fill="#D9D9D9" fill-opacity="0.25"/>
<circle opacity="0.15" cx="37.5" cy="7.5" r="7.5" fill="#D9D9D9" fill-opacity="0.25"/>
<circle opacity="0.15" cx="37.5" cy="46.5" r="7.5" fill="#D9D9D9" fill-opacity="0.25"/>
<circle opacity="0.15" cx="37.5" cy="85.5" r="7.5" fill="#D9D9D9" fill-opacity="0.25"/>
<circle opacity="0.15" cx="37.5" cy="124.5" r="7.5" fill="#D9D9D9" fill-opacity="0.25"/>
<circle opacity="0.15" cx="37.5" cy="163.5" r="7.5" fill="#D9D9D9" fill-opacity="0.25"/>
<circle opacity="0.15" cx="37.5" cy="202.5" r="7.5" fill="#D9D9D9" fill-opacity="0.25"/>
<circle opacity="0.15" cx="67.5" cy="7.5" r="7.5" fill="#D9D9D9" fill-opacity="0.25"/>
<circle opacity="0.15" cx="67.5" cy="46.5" r="7.5" fill="#D9D9D9" fill-opacity="0.25"/>
<circle opacity="0.15" cx="67.5" cy="85.5" r="7.5" fill="#D9D9D9" fill-opacity="0.25"/>
<circle opacity="0.15" cx="67.5" cy="124.5" r="7.5" fill="#D9D9D9" fill-opacity="0.25"/>
<circle opacity="0.15" cx="67.5" cy="163.5" r="7.5" fill="#D9D9D9" fill-opacity="0.25"/>
<circle opacity="0.15" cx="67.5" cy="202.5" r="7.5" fill="#D9D9D9" fill-opacity="0.25"/>
<circle opacity="0.15" cx="97.5" cy="7.5" r="7.5" fill="#D9D9D9" fill-opacity="0.25"/>
<circle opacity="0.15" cx="97.5" cy="46.5" r="7.5" fill="#D9D9D9" fill-opacity="0.25"/>
<circle opacity="0.15" cx="97.5" cy="85.5" r="7.5" fill="#D9D9D9" fill-opacity="0.25"/>
<circle opacity="0.15" cx="97.5" cy="124.5" r="7.5" fill="#D9D9D9" fill-opacity="0.25"/>
<circle opacity="0.15" cx="97.5" cy="163.5" r="7.5" fill="#D9D9D9" fill-opacity="0.25"/>
<circle opacity="0.15" cx="97.5" cy="202.5" r="7.5" fill="#D9D9D9" fill-opacity="0.25"/>
</svg>
