<svg width="235" height="130" viewBox="0 0 235 130" fill="none" xmlns="http://www.w3.org/2000/svg">
<g clip-path="url(#clip0_22_611)">
<path d="M196.671 105.976H38.3292C34.9428 105.976 32.1877 103.507 32.1877 100.472V83.3933H202.812V100.472C202.812 103.507 200.057 105.976 196.671 105.976Z" fill="#E6E6E6"/>
<path d="M137.993 103.119H97.614V128.967H137.993V103.119Z" fill="#E6E6E6"/>
<path d="M140.422 125.702H95.1853V128.967H140.422V125.702Z" fill="#E6E6E6"/>
<path d="M202.66 90.6035H32.1877V3.77701C32.1877 1.6944 34.0784 0 36.4023 0H198.446C200.77 0 202.66 1.6944 202.66 3.77701V90.6035Z" fill="#3F3D56"/>
<path d="M117.804 3.12893C118.474 3.12893 119.018 2.64167 119.018 2.0406C119.018 1.43953 118.474 0.952271 117.804 0.952271C117.133 0.952271 116.589 1.43953 116.589 2.0406C116.589 2.64167 117.133 3.12893 117.804 3.12893Z" fill="white"/>
<path d="M198.562 3.94519H36.1348V85.842H198.562V3.94519Z" fill="white"/>
<path d="M179.552 65.8197C187.2 65.8197 193.4 60.2632 193.4 53.4089C193.4 46.5546 187.2 40.998 179.552 40.998C171.904 40.998 165.703 46.5546 165.703 53.4089C165.703 60.2632 171.904 65.8197 179.552 65.8197Z" fill="#6C63FF"/>
<path d="M235 129.048C235 129.174 234.886 129.276 234.745 129.276H0V128.819H234.745C234.886 128.819 235 128.922 235 129.048Z" fill="#E6E6E6"/>
<path d="M39.7574 51.6039L38.0076 57.0925L45.0069 57.4846L44.5695 51.0159L39.7574 51.6039Z" fill="#FFB6B6"/>
<path d="M68.8357 74.0093C70.4967 74.5175 72.1356 74.1614 72.4963 73.214C72.857 72.2667 71.803 71.087 70.1413 70.5789C69.4807 70.3677 68.7732 70.3014 68.0781 70.3855L61.0102 68.312L59.9951 71.3052L67.0706 73.0315C67.5634 73.4791 68.1687 73.8144 68.8357 74.0093Z" fill="#FFB6B6"/>
<path d="M45.3822 55.8752C45.3822 55.8752 41.0009 60.599 43.5356 62.5534C46.0702 64.5078 57.3893 71.7429 57.3893 71.7429L61.802 72.3587L62.9307 68.536L52.9665 61.9191L45.3822 55.8752Z" fill="#6C63FF"/>
<path d="M56.991 106.161L59.4259 114.248L63.2931 113.606L62.4337 105.263L56.991 106.161Z" fill="#FFB6B6"/>
<path d="M59.9988 113.734L58.5665 113.991L57.4207 117.457C57.4207 117.457 59.2826 118.099 59.2826 119.382C59.2826 120.666 59.9988 121.564 62.8634 121.436C65.728 121.308 66.0144 121.436 66.0144 120.409C66.0144 119.382 63.866 113.991 63.866 113.991C63.866 113.991 64.0092 111.809 62.2905 111.937C60.5717 112.066 59.9988 113.734 59.9988 113.734Z" fill="#2F2E41"/>
<path d="M43.8975 106.035L44.0636 114.41L47.9888 114.631L49.4206 106.351L43.8975 106.035Z" fill="#FFB6B6"/>
<path d="M44.7589 114.037L43.2999 113.974L41.2476 117.085C41.2476 117.085 42.8793 118.114 42.5308 119.359C42.1823 120.604 42.633 121.632 45.4463 122.132C48.2597 122.632 48.5027 122.819 48.7815 121.823C49.0603 120.827 48.4401 115.129 48.4401 115.129C48.4401 115.129 49.1715 113.044 47.4696 112.794C45.7676 112.543 44.7589 114.037 44.7589 114.037Z" fill="#2F2E41"/>
<path d="M45.5325 55.9727L37.7981 55.4592L36.0793 57.3846C36.0793 57.3846 35.22 70.3489 35.7929 71.6325C36.3658 72.9161 35.9361 80.2326 35.9361 80.2326L55.4339 79.0132L51.1184 69.7071L51.2617 64.316L47.3945 57.7697L45.5325 55.9727Z" fill="#6C63FF"/>
<path d="M36.7956 77.537C36.7956 77.537 33.6446 81.6445 34.7904 83.8266C35.9363 86.0087 43.7086 98.6788 43.7086 98.6788L42.706 110.488L49.581 109.974L50.7268 97.2669L45.9623 86.9072L46.8217 85.752L53.9832 93.5819L56.5613 107.188L63.4363 106.418L59.7123 86.5222L55.3602 78.8538L36.7956 77.537Z" fill="#2F2E41"/>
<path d="M36.1225 48.1119C37.589 48.1119 38.7779 47.0464 38.7779 45.7322C38.7779 44.4179 37.589 43.3524 36.1225 43.3524C34.6559 43.3524 33.467 44.4179 33.467 45.7322C33.467 47.0464 34.6559 48.1119 36.1225 48.1119Z" fill="#2F2E41"/>
<path d="M42.2548 54.5545C45.4486 54.5545 48.0377 52.2342 48.0377 49.372C48.0377 46.5097 45.4486 44.1895 42.2548 44.1895C39.061 44.1895 36.4719 46.5097 36.4719 49.372C36.4719 52.2342 39.061 54.5545 42.2548 54.5545Z" fill="#FFB6B6"/>
<path d="M40.4212 55.0536C39.8066 55.3454 38.0772 54.2742 37.4584 52.8387C37.0603 51.9153 36.0925 52.0689 35.4749 50.9173C35.115 50.2463 36.1896 49.5898 36.0124 49.0097C35.6912 47.9584 36.0939 47.0179 36.1452 46.9027C36.588 45.9081 37.2407 45.9312 37.767 44.7735C38.0839 44.0765 37.8806 43.9949 38.147 43.6383C38.9157 42.6093 41.1462 42.5701 42.7194 43.0568C43.2637 43.2252 44.575 42.3228 45.6394 42.9765C46.8935 43.7467 47.7279 45.9667 47.5359 46.3735C47.4193 46.6207 46.77 46.3689 45.4196 46.5591C44.1695 46.7352 45.8195 47.5723 44.4125 47.8577C42.7488 48.1951 42.2476 47.8872 41.7865 48.3589C41.2991 48.8575 41.209 49.8668 41.6538 50.4658C41.8744 50.7631 42.159 50.868 42.1234 51.0749C42.0583 51.4527 41.6839 51.2473 41.5611 51.6481C41.4183 52.1142 42.6034 52.7253 42.5003 52.8663C42.4796 52.8947 42.3908 52.9254 41.2337 52.5258C40.7716 52.3662 40.5934 52.2284 40.5416 52.2794C40.4577 52.3619 40.0422 53.1895 40.5143 53.5415C41.249 54.0894 40.7398 54.3069 41.0747 54.7359C41.4202 55.1784 40.8118 54.8682 40.4212 55.0536Z" fill="#2F2E41"/>
<path d="M41.7752 84.9974C42.6981 86.3353 44.2164 86.993 45.1664 86.4665C46.1164 85.94 46.1381 84.4289 45.2147 83.0906C44.854 82.5515 44.3545 82.0977 43.758 81.767L39.7677 76.1427L36.8625 77.8771L41.1046 83.2375C41.1681 83.8637 41.3981 84.4672 41.7752 84.9974Z" fill="#FFB6B6"/>
<path d="M36.5091 57.6414C36.5091 57.6414 29.7774 58.7966 30.3503 61.7489C30.9232 64.7011 34.5395 76.7321 34.5395 76.7321L37.5117 79.7192L41.0925 77.4087L38.0847 66.6265L36.5091 57.6414Z" fill="#6C63FF"/>
<path d="M195.512 60.1067C195.248 59.7067 194.102 60.135 193.892 59.7719C193.682 59.4102 194.746 58.859 195.354 57.5999C195.464 57.3728 196.154 55.942 195.643 55.5004C194.674 54.6635 190.238 58.1172 188.685 56.987C188.344 56.739 188.106 56.2438 187.075 55.4399C186.665 55.1201 186.417 54.9757 186.177 55.0294C185.836 55.1056 185.809 55.5142 185.444 56.3175C184.896 57.5222 184.572 57.4494 184.253 58.4106C184.016 59.1241 184.07 59.5389 183.792 59.6198C183.397 59.7341 183.034 58.9773 182.534 59.0451C182.024 59.1142 181.715 59.9954 181.618 60.6552C181.435 61.8932 181.942 62.7102 182.224 63.5692C182.529 64.5028 182.711 65.9225 182.005 67.9324L175.02 85.5693C176.562 81.9502 181.027 72.0295 182.903 68.3429C183.445 67.2786 184.043 66.1992 185.271 65.7731C186.453 65.3629 188.077 65.6078 190.147 65.1609C190.388 65.1088 191.059 64.9558 191.144 64.6022C191.213 64.3099 190.819 64.1467 190.879 63.8729C190.961 63.5056 191.737 63.5011 192.69 63.0774C193.363 62.7786 193.781 62.4233 194.142 62.1177C194.25 62.0256 195.865 60.6392 195.512 60.1067Z" fill="#E6E6E6"/>
<path d="M168.031 69.3915C167.736 69.3925 167.64 70.0198 167.381 70.0077C167.122 69.9956 167.127 69.3685 166.613 68.7378C166.52 68.6241 165.936 67.9074 165.547 68.0049C164.808 68.1899 165.42 71.1375 164.353 71.4943C164.119 71.5726 163.779 71.5344 163.041 71.756C162.748 71.8441 162.597 71.9116 162.557 72.0327C162.501 72.2045 162.717 72.3342 163.051 72.7266C163.553 73.3152 163.42 73.4367 163.854 73.8544C164.176 74.1645 164.419 74.2604 164.383 74.4063C164.332 74.6128 163.813 74.5542 163.705 74.7937C163.596 75.038 163.99 75.4279 164.323 75.6612C164.948 76.0988 165.542 76.1114 166.094 76.2355C166.693 76.3705 167.523 76.7004 168.42 77.5907L176.064 85.7518C174.527 84.0293 170.382 79.203 168.904 77.314C168.477 76.7687 168.059 76.1942 168.18 75.5311C168.296 74.8928 168.899 74.2493 169.251 73.2099C169.292 73.0885 169.402 72.7493 169.233 72.6102C169.093 72.4951 168.89 72.6216 168.757 72.5159C168.58 72.3742 168.801 72.0316 168.844 71.4899C168.875 71.1079 168.801 70.8212 168.737 70.5745C168.718 70.5002 168.425 69.3901 168.031 69.3915Z" fill="#E6E6E6"/>
<path d="M173.926 70.5773L173.748 69.1532L173.829 69.0452C174.206 68.546 174.398 68.0585 174.4 67.5957C174.4 67.5221 174.396 67.4485 174.393 67.3736C174.377 67.0765 174.358 66.7072 174.573 66.2768C174.693 66.0368 175.032 65.4812 175.54 65.5499C175.677 65.5671 175.781 65.6235 175.86 65.6895C175.871 65.673 175.883 65.6565 175.896 65.6386C176.054 65.422 176.18 65.3292 176.301 65.2398C176.393 65.171 176.489 65.1002 176.64 64.9324C176.706 64.8588 176.757 64.7942 176.8 64.7399C176.932 64.5755 177.104 64.3795 177.407 64.383C177.731 64.3967 177.9 64.6367 178.013 64.7956C178.213 65.0789 178.304 65.2831 178.365 65.4186C178.386 65.4681 178.411 65.5238 178.424 65.541C178.528 65.6785 179.377 65.5499 179.696 65.5032C180.414 65.3959 181.035 65.303 181.291 65.7088C181.474 65.9989 181.338 66.3827 180.874 66.8798C180.729 67.0346 180.576 67.1521 180.439 67.2443C180.552 67.3048 180.653 67.3976 180.695 67.5434C180.791 67.8886 180.46 68.2345 179.711 68.5728C179.525 68.6574 179.274 68.7702 178.923 68.8245C178.758 68.85 178.609 68.8562 178.482 68.8596C178.479 68.9256 178.462 68.9971 178.417 69.0707C178.285 69.2873 178.011 69.3904 177.598 69.3657C177.144 69.3444 176.77 69.2667 176.44 69.1986C176.152 69.1395 175.904 69.0893 175.709 69.101C175.348 69.1271 175.069 69.3863 174.742 69.7226L173.926 70.5773Z" fill="#E6E6E6"/>
<path d="M174.752 62.098L173.26 62.6136L173.123 62.5704C172.488 62.3708 171.914 62.3282 171.413 62.4436C171.334 62.4619 171.255 62.4839 171.176 62.5062C170.859 62.5949 170.465 62.7052 169.946 62.6281C169.656 62.5846 168.971 62.4322 168.916 61.9737C168.9 61.8506 168.934 61.7465 168.986 61.6616C168.965 61.6558 168.944 61.6497 168.922 61.6433C168.648 61.5608 168.516 61.4756 168.389 61.3935C168.291 61.3305 168.19 61.2653 167.971 61.1775C167.875 61.139 167.792 61.1108 167.722 61.087C167.511 61.0146 167.256 60.9153 167.183 60.6517C167.116 60.3675 167.332 60.1597 167.475 60.0219C167.73 59.7761 167.927 59.6455 168.058 59.5589C168.106 59.5274 168.16 59.4917 168.175 59.4763C168.297 59.351 167.943 58.6482 167.811 58.3831C167.514 57.788 167.256 57.2731 167.629 56.9484C167.896 56.7158 168.344 56.7365 168.999 57.0129C169.202 57.099 169.368 57.2025 169.502 57.2976C169.539 57.1841 169.613 57.0728 169.76 57.0002C170.108 56.8288 170.566 57.0281 171.121 57.5918C171.26 57.7317 171.445 57.9202 171.592 58.2108C171.662 58.3477 171.706 58.4751 171.742 58.5847C171.814 58.5703 171.896 58.5671 171.987 58.5873C172.254 58.6465 172.435 58.8578 172.513 59.2219C172.605 59.6211 172.616 59.9651 172.626 60.2683C172.635 60.5331 172.644 60.761 172.706 60.927C172.826 61.2337 173.176 61.4094 173.622 61.6074L174.752 62.098Z" fill="#E6E6E6"/>
<path d="M173.926 57.9025L173.748 56.4784L173.829 56.3704C174.206 55.8712 174.398 55.3837 174.4 54.9209C174.4 54.8473 174.396 54.7737 174.393 54.6988C174.377 54.4017 174.358 54.0324 174.573 53.602C174.693 53.362 175.032 52.8064 175.54 52.8751C175.677 52.8923 175.781 52.9487 175.86 53.0147C175.871 52.9982 175.883 52.9817 175.896 52.9638C176.054 52.7472 176.18 52.6544 176.301 52.565C176.393 52.4962 176.489 52.4254 176.64 52.2576C176.706 52.184 176.757 52.1194 176.8 52.0651C176.932 51.9007 177.104 51.7047 177.407 51.7082C177.731 51.7219 177.9 51.9619 178.013 52.1208C178.213 52.4041 178.304 52.6083 178.365 52.7438C178.386 52.7933 178.411 52.849 178.424 52.8662C178.528 53.0037 179.377 52.8751 179.696 52.8283C180.414 52.7211 181.035 52.6282 181.291 53.034C181.474 53.3241 181.338 53.7078 180.874 54.205C180.729 54.3597 180.576 54.4773 180.439 54.5695C180.552 54.63 180.653 54.7228 180.695 54.8686C180.791 55.2138 180.46 55.5597 179.711 55.898C179.525 55.9826 179.274 56.0954 178.923 56.1497C178.758 56.1752 178.609 56.1813 178.482 56.1848C178.479 56.2508 178.462 56.3223 178.417 56.3959C178.285 56.6125 178.011 56.7156 177.598 56.6909C177.144 56.6696 176.77 56.5919 176.44 56.5238C176.152 56.4647 175.904 56.4145 175.709 56.4261C175.348 56.4523 175.069 56.7115 174.742 57.0478L173.926 57.9025Z" fill="#E6E6E6"/>
<path d="M175.552 85.5461L175.219 85.3591L174.831 85.3989C174.825 85.3666 174.804 85.2924 174.772 85.1761C174.598 84.5394 174.068 82.6016 173.626 79.5498C173.318 77.4195 173.143 75.2293 173.107 73.0391C173.071 70.8455 173.187 69.1849 173.28 67.8501C173.35 66.8434 173.435 65.8848 173.519 64.951C173.741 62.4562 173.951 60.0996 173.795 57.4907C173.76 56.9083 173.688 55.6959 172.898 54.4059C172.439 53.6577 171.808 52.9935 171.02 52.4324L171.51 51.8809C172.379 52.5011 173.077 53.2369 173.587 54.0676C174.463 55.4979 174.542 56.8189 174.58 57.4536C174.739 60.1086 174.527 62.4879 174.302 65.0067C174.219 65.9371 174.134 66.8916 174.064 67.8942C173.972 69.2165 173.857 70.8627 173.893 73.0281C173.928 75.1922 174.101 77.3555 174.405 79.459C174.841 82.4723 175.364 84.3812 175.535 85.0084C175.626 85.3433 175.646 85.4134 175.552 85.5461Z" fill="#E6E6E6"/>
<path d="M169.579 53.5511C169.547 53.5511 169.514 53.5504 169.481 53.5484C168.812 53.5161 168.193 53.1571 167.64 52.4818C167.38 52.1641 167.247 51.8017 166.983 51.079C166.942 50.9676 166.742 50.4024 166.621 49.6247C166.541 49.1165 166.551 48.904 166.664 48.7163C166.789 48.5072 166.99 48.3614 167.218 48.2631C167.208 48.1957 167.216 48.1263 167.248 48.0554C167.382 47.7618 167.738 47.8003 167.931 47.8189C168.028 47.8299 168.15 47.8443 168.281 47.8381C168.487 47.8292 168.598 47.7742 168.766 47.6917C168.927 47.6126 169.127 47.5143 169.424 47.4599C170.008 47.3506 170.498 47.4991 170.66 47.5479C171.509 47.8017 171.928 48.3937 172.413 49.0793C172.51 49.2169 172.842 49.7175 173.061 50.4037C173.219 50.8989 173.197 51.1189 173.149 51.2826C173.053 51.6188 172.824 51.8114 172.245 52.2363C171.639 52.6812 171.335 52.904 171.074 53.0395C170.467 53.3538 170.086 53.5511 169.579 53.5511Z" fill="#E6E6E6"/>
<path d="M134.916 73.1093H73.2644C70.7825 73.1093 68.7634 71.2997 68.7634 69.0756V27.2968C68.7634 25.0727 70.7825 23.2631 73.2644 23.2631H134.916C137.398 23.2631 139.417 25.0727 139.417 27.2968V69.0756C139.417 71.2997 137.398 73.1093 134.916 73.1093Z" fill="white"/>
<path d="M134.916 73.1093H73.2644C70.7825 73.1093 68.7634 71.2997 68.7634 69.0756V27.2968C68.7634 25.0727 70.7825 23.2631 73.2644 23.2631H134.916C137.398 23.2631 139.417 25.0727 139.417 27.2968V69.0756C139.417 71.2997 137.398 73.1093 134.916 73.1093ZM73.2644 23.9367C71.1971 23.9367 69.5151 25.444 69.5151 27.2968V69.0756C69.5151 70.9283 71.1971 72.4357 73.2644 72.4357H134.916C136.983 72.4357 138.665 70.9283 138.665 69.0756V27.2968C138.665 25.444 136.983 23.9367 134.916 23.9367H73.2644Z" fill="#3F3D56"/>
<path d="M128.142 28.315C128.765 28.315 129.27 27.8626 129.27 27.3046C129.27 26.7466 128.765 26.2942 128.142 26.2942C127.52 26.2942 127.015 26.7466 127.015 27.3046C127.015 27.8626 127.52 28.315 128.142 28.315Z" fill="#3F3D56"/>
<path d="M131.149 28.315C131.771 28.315 132.276 27.8626 132.276 27.3046C132.276 26.7466 131.771 26.2942 131.149 26.2942C130.526 26.2942 130.021 26.7466 130.021 27.3046C130.021 27.8626 130.526 28.315 131.149 28.315Z" fill="#3F3D56"/>
<path d="M134.155 28.315C134.778 28.315 135.283 27.8626 135.283 27.3046C135.283 26.7466 134.778 26.2942 134.155 26.2942C133.533 26.2942 133.028 26.7466 133.028 27.3046C133.028 27.8626 133.533 28.315 134.155 28.315Z" fill="#3F3D56"/>
<path d="M75.1523 43.6394C74.8415 43.6394 74.5886 43.866 74.5886 44.1446C74.5886 44.2804 74.6472 44.4061 74.7534 44.4988C74.8606 44.5972 75.001 44.6498 75.1523 44.6498H133.404C133.715 44.6498 133.967 44.4232 133.967 44.1446C133.967 44.0088 133.909 43.8831 133.803 43.7904C133.695 43.692 133.555 43.6394 133.404 43.6394H75.1523Z" fill="#E6E6E6"/>
<path d="M122.881 43.4709V44.8181H75.1523C74.9456 44.8181 74.7577 44.744 74.6224 44.6194C74.4833 44.4982 74.4006 44.3298 74.4006 44.1445C74.4006 43.7741 74.7389 43.4709 75.1523 43.4709H122.881Z" fill="#6C63FF"/>
<path d="M132.464 40.945H124.948C124.119 40.945 123.445 40.3408 123.445 39.5978C123.445 38.8548 124.119 38.2506 124.948 38.2506H132.464C133.293 38.2506 133.967 38.8548 133.967 39.5978C133.967 40.3408 133.293 40.945 132.464 40.945Z" fill="#E6E6E6"/>
<path d="M83.2322 33.8722H75.7159C74.887 33.8722 74.2126 33.268 74.2126 32.5251C74.2126 31.7821 74.887 31.1779 75.7159 31.1779H83.2322C84.0611 31.1779 84.7355 31.7821 84.7355 32.5251C84.7355 33.268 84.0611 33.8722 83.2322 33.8722Z" fill="#E6E6E6"/>
<path d="M75.1523 58.7953C74.8415 58.7953 74.5886 59.0219 74.5886 59.3005C74.5886 59.4363 74.6472 59.562 74.7534 59.6547C74.8606 59.7531 75.001 59.8057 75.1523 59.8057H133.404C133.715 59.8057 133.967 59.5791 133.967 59.3005C133.967 59.1646 133.909 59.039 133.803 58.9463C133.695 58.8479 133.555 58.7953 133.404 58.7953H75.1523Z" fill="#E6E6E6"/>
<path d="M93.943 58.627V59.9741H75.1523C74.9456 59.9741 74.7577 59.9 74.6224 59.7754C74.4833 59.6542 74.4006 59.4858 74.4006 59.3006C74.4006 58.9301 74.7389 58.627 75.1523 58.627H93.943Z" fill="#6C63FF"/>
<path d="M132.464 56.101H124.948C124.119 56.101 123.445 55.4968 123.445 54.7538C123.445 54.0108 124.119 53.4066 124.948 53.4066H132.464C133.293 53.4066 133.967 54.0108 133.967 54.7538C133.967 55.4968 133.293 56.101 132.464 56.101Z" fill="#E6E6E6"/>
</g>
<defs>
<clipPath id="clip0_22_611">
<rect width="235" height="129.276" fill="white"/>
</clipPath>
</defs>
</svg>
