<svg width="39" height="38" viewBox="0 0 39 38" fill="none" xmlns="http://www.w3.org/2000/svg">
<rect x="0.5" width="38" height="38" rx="19" fill="#222222"/>
<path fillRule="evenodd" clipRule="evenodd" d="M31.0726 19.7377C31.0726 18.9181 30.999 18.1301 30.8624 17.3735H19.9766V21.8445H26.197C25.9291 23.2893 25.1148 24.5134 23.8906 25.333V28.2331H27.6261C29.8117 26.2209 31.0726 23.2578 31.0726 19.7377Z" fill="#4285F4"/>
<path fillRule="evenodd" clipRule="evenodd" d="M19.9774 31.0332C23.0981 31.0332 25.7145 29.9982 27.6269 28.2329L23.8915 25.3328C22.8565 26.0263 21.5325 26.4361 19.9774 26.4361C16.967 26.4361 14.4189 24.4029 13.51 21.6709H9.64844V24.6656C11.5503 28.443 15.4591 31.0332 19.9774 31.0332Z" fill="#34A853"/>
<path fillRule="evenodd" clipRule="evenodd" d="M13.5089 21.671C13.2777 20.9775 13.1464 20.2367 13.1464 19.4749C13.1464 18.7131 13.2777 17.9723 13.5089 17.2788V14.2842H9.64736C8.86454 15.8446 8.41797 17.6098 8.41797 19.4749C8.41797 21.34 8.86454 23.1053 9.64736 24.6657L13.5089 21.671Z" fill="#FBBC05"/>
<path fillRule="evenodd" clipRule="evenodd" d="M19.9774 12.5136C21.6744 12.5136 23.198 13.0967 24.3958 14.2421L27.711 10.9269C25.7093 9.06183 23.0929 7.9165 19.9774 7.9165C15.4591 7.9165 11.5503 10.5066 9.64844 14.2841L13.51 17.2788C14.4189 14.5468 16.967 12.5136 19.9774 12.5136Z" fill="#EA4335"/>
</svg>
