<svg width="204" height="213" viewBox="0 0 204 213" fill="none" xmlns="http://www.w3.org/2000/svg">
<path fill-rule="evenodd" clip-rule="evenodd" d="M4.97919 4.9997C8.1673 1.79845 12.4913 0 17 0H187C191.509 0 195.833 1.79845 199.021 4.9997C202.209 8.20097 204 12.5428 204 17.07V79.6958C204 175.169 123.275 206.766 107.445 212.051C103.925 213.316 100.075 213.316 96.5549 212.051C80.7251 206.766 0 175.169 0 79.6958V17.07C0 12.5428 1.79107 8.20095 4.97919 4.9997ZM187 17.07L17 17.07L17 79.6958C17 163.191 87.3349 191.003 102 195.879C116.665 191.003 187 163.191 187 79.6958V17.07Z" fill="#A145CD"/>
</svg>
