<svg width="21" height="22" viewBox="0 0 21 22" fill="none" xmlns="http://www.w3.org/2000/svg">
<path d="M13.4892 9.05266L9.55172 6.30266C9.45286 6.23356 9.33795 6.19388 9.21926 6.18786C9.10056 6.18183 8.98253 6.20969 8.87776 6.26845C8.77299 6.32721 8.68542 6.41467 8.62439 6.5215C8.56337 6.62832 8.53117 6.7505 8.53125 6.875V12.375C8.53117 12.4995 8.56337 12.6217 8.62439 12.7285C8.68542 12.8353 8.77299 12.9228 8.87776 12.9816C8.98253 13.0403 9.10056 13.0682 9.21926 13.0621C9.33795 13.0561 9.45286 13.0164 9.55172 12.9473L13.4892 10.1973C13.5792 10.1346 13.6531 10.0495 13.7041 9.94965C13.7552 9.8498 13.7819 9.73828 13.7819 9.625C13.7819 9.51172 13.7552 9.4002 13.7041 9.30035C13.6531 9.2005 13.5792 9.11541 13.4892 9.05266ZM9.84375 11.0902V8.16406L11.9421 9.625L9.84375 11.0902ZM17.7188 3.4375H3.28125C2.93315 3.4375 2.59931 3.58237 2.35317 3.84023C2.10703 4.09809 1.96875 4.44783 1.96875 4.8125V14.4375C1.96875 14.8022 2.10703 15.1519 2.35317 15.4098C2.59931 15.6676 2.93315 15.8125 3.28125 15.8125H17.7188C18.0668 15.8125 18.4007 15.6676 18.6468 15.4098C18.893 15.1519 19.0312 14.8022 19.0312 14.4375V4.8125C19.0312 4.44783 18.893 4.09809 18.6468 3.84023C18.4007 3.58237 18.0668 3.4375 17.7188 3.4375ZM17.7188 14.4375H3.28125V4.8125H17.7188V14.4375ZM19.0312 17.875C19.0312 18.0573 18.9621 18.2322 18.839 18.3611C18.716 18.4901 18.549 18.5625 18.375 18.5625H2.625C2.45095 18.5625 2.28403 18.4901 2.16096 18.3611C2.03789 18.2322 1.96875 18.0573 1.96875 17.875C1.96875 17.6927 2.03789 17.5178 2.16096 17.3889C2.28403 17.2599 2.45095 17.1875 2.625 17.1875H18.375C18.549 17.1875 18.716 17.2599 18.839 17.3889C18.9621 17.5178 19.0312 17.6927 19.0312 17.875Z" fill="white" fill-opacity="0.95"/>
</svg>
