<svg width="85" height="85" viewBox="0 0 85 85" fill="none" xmlns="http://www.w3.org/2000/svg">
<path d="M76.9745 50.5061C81.3991 31.4625 69.548 12.4378 50.5044 8.01318C31.4608 3.58859 12.436 15.4397 8.01142 34.4833C3.58683 53.5269 15.4379 72.5517 34.4816 76.9763C53.5252 81.4008 72.5499 69.5498 76.9745 50.5061Z" fill="#A6A6A6"/>
<path d="M66.6481 27.1719H18.3281V57.8219H66.6481V27.1719Z" fill="white"/>
<path d="M66.65 27.1719C64.7 29.0419 62.71 30.8319 60.74 32.6719C58.77 34.5119 56.74 36.2619 54.74 38.0419C52.74 39.8219 50.57 41.7319 48.48 43.5619L48.29 43.7419L42.72 48.5719L42.45 48.7919L42.18 48.5719L36.62 43.7319L36.42 43.5619C34.32 41.7285 32.23 39.8852 30.15 38.0319C28.15 36.2619 26.15 34.4619 24.15 32.6719C22.15 30.8819 20.2 29.0419 18.25 27.1719C20.32 28.7719 22.36 30.4519 24.42 32.0919C26.48 33.7319 28.51 35.4319 30.54 37.0919C32.8 38.9719 35.0633 40.8752 37.33 42.8019L42.4 47.1119C44.09 45.6719 45.78 44.2219 47.47 42.8019C49.73 40.8819 51.9933 38.9785 54.26 37.0919C56.26 35.4052 58.3 33.7385 60.38 32.0919C62.54 30.4519 64.58 28.7719 66.65 27.1719Z" fill="#DBDBDB"/>
<path d="M37.4797 43.543H37.4197L36.6597 44.183C35.4497 45.183 34.2097 46.183 32.9397 47.183C31.3997 48.353 29.8297 49.483 28.2497 50.593C26.6697 51.703 25.0597 52.783 23.4297 53.823C21.7997 54.863 20.1497 55.893 18.4297 56.823C19.8997 55.533 21.4297 54.343 22.9597 53.173C24.4897 52.003 26.0797 50.873 27.6597 49.753C29.2397 48.633 30.8497 47.563 32.4797 46.513C33.7797 45.683 35.0997 44.863 36.4797 44.093L37.4297 43.563L37.4797 43.543Z" fill="#DBDBDB"/>
<path d="M66.5305 56.8408C64.8305 55.9008 63.1705 54.8408 61.5305 53.8408C59.8905 52.8408 58.3004 51.7108 56.7004 50.6108C55.1004 49.5108 53.5505 48.3708 52.0105 47.2008C50.7505 46.2008 49.5105 45.2708 48.3105 44.2008L47.5405 43.5508H47.4805H47.5504L48.5005 44.0908C49.8505 44.8608 51.1605 45.6808 52.5005 46.5108C54.1305 47.5108 55.7205 48.6508 57.3105 49.7508C58.9005 50.8508 60.4705 51.9908 62.0105 53.1708C63.5505 54.3508 65.0705 55.5508 66.5305 56.8408Z" fill="#DBDBDB"/>
<path d="M65.0848 34.0228C68.8625 31.964 70.256 27.2325 68.1971 23.4548C66.1383 19.6771 61.4069 18.2837 57.6292 20.3425C53.8515 22.4013 52.4581 27.1327 54.5169 30.9105C56.5757 34.6882 61.3071 36.0816 65.0848 34.0228Z" fill="#FA4082"/>
<path d="M60.5089 28.8924V22.5424C60.4959 22.4224 60.5083 22.301 60.5453 22.186C60.5824 22.0711 60.6432 21.9653 60.7239 21.8754C60.8045 21.7855 60.9032 21.7137 61.0135 21.6645C61.1238 21.6153 61.2431 21.5898 61.3639 21.5898C61.4846 21.5898 61.6041 21.6153 61.7143 21.6645C61.8246 21.7137 61.9233 21.7855 62.0039 21.8754C62.0846 21.9653 62.1454 22.0711 62.1824 22.186C62.2195 22.301 62.2319 22.4224 62.2189 22.5424V28.8924C62.2319 29.0125 62.2195 29.1339 62.1824 29.2489C62.1454 29.3638 62.0846 29.4696 62.0039 29.5595C61.9233 29.6493 61.8246 29.7212 61.7143 29.7704C61.6041 29.8196 61.4846 29.845 61.3639 29.845C61.2431 29.845 61.1238 29.8196 61.0135 29.7704C60.9032 29.7212 60.8045 29.6493 60.7239 29.5595C60.6432 29.4696 60.5824 29.3638 60.5453 29.2489C60.5083 29.1339 60.4959 29.0125 60.5089 28.8924ZM61.3689 32.6724C61.2551 32.6724 61.1425 32.6499 61.0375 32.606C60.9325 32.5622 60.8372 32.498 60.7572 32.417C60.6772 32.3361 60.6141 32.2401 60.5715 32.1346C60.5288 32.0291 60.5076 31.9162 60.5089 31.8024V31.4924C60.4959 31.3724 60.5083 31.251 60.5453 31.136C60.5824 31.0211 60.6432 30.9153 60.7239 30.8254C60.8045 30.7355 60.9032 30.6637 61.0135 30.6145C61.1238 30.5653 61.2431 30.5398 61.3639 30.5398C61.4846 30.5398 61.6041 30.5653 61.7143 30.6145C61.8246 30.6637 61.9233 30.7355 62.0039 30.8254C62.0846 30.9153 62.1454 31.0211 62.1824 31.136C62.2195 31.251 62.2319 31.3724 62.2189 31.4924V31.8024C62.2217 31.9183 62.2008 32.0335 62.1574 32.141C62.114 32.2485 62.0492 32.346 61.9667 32.4274C61.8843 32.5089 61.7861 32.5727 61.6781 32.6148C61.5702 32.657 61.4547 32.6766 61.3389 32.6724H61.3689Z" fill="white"/>
</svg>
