<svg width="361" height="278" viewBox="0 0 361 278" fill="none" xmlns="http://www.w3.org/2000/svg">
<path d="M118.031 79.686H116.611V78.9936H120.611V79.686H118.031ZM111.611 79.6214L107.611 79.5199V78.8274L111.611 78.929V79.6214ZM125.611 79.6214V78.929C126.931 78.929 128.261 78.8736 129.611 78.8274V79.5199C128.271 79.5383 126.941 79.566 125.621 79.5937L125.611 79.6214ZM134.611 79.3352V78.6428L138.611 78.4581V79.1506L134.611 79.3352ZM102.611 79.3352C101.261 79.2613 99.9211 79.1783 98.6111 79.0859L98.6611 78.3935C99.9711 78.4858 101.291 78.5689 102.661 78.6428L102.611 79.3352ZM143.611 78.8828L143.561 78.1904L147.561 77.9319L147.621 78.6243L143.611 78.8828ZM93.6111 78.6797C92.2511 78.5504 90.9311 78.4119 89.6111 78.255L89.7011 77.5718C90.9911 77.7195 92.3211 77.858 93.7011 77.9873L93.6111 78.6797ZM152.611 78.255L152.541 77.5626L156.541 77.2394L156.611 77.9319L152.611 78.255ZM84.6911 77.618C83.3411 77.4241 82.0211 77.2117 80.6911 76.9901L80.8311 76.3162C82.1111 76.5285 83.4211 76.7409 84.7611 76.9348L84.6911 77.618ZM161.571 77.4887L161.501 76.7963L165.501 76.4177L165.581 77.1102L161.571 77.4887ZM170.571 76.5654L170.481 75.873L171.481 75.7622C172.481 75.6607 173.431 75.5499 174.401 75.4298L174.501 76.1131L171.561 76.4547L170.571 76.5654ZM75.8111 75.993C74.4911 75.7161 73.1811 75.4206 71.9211 75.0698L72.1111 74.3958C73.3611 74.7097 74.6611 74.9959 75.9811 75.2729L75.8111 75.993ZM179.411 75.4298L179.291 74.7466C180.611 74.5435 181.921 74.3404 183.231 74.1096L183.371 74.7928C182.064 75.0144 180.744 75.2267 179.411 75.4298ZM188.291 73.8973L188.141 73.2233C189.441 72.9648 190.741 72.7063 192.041 72.4293L192.201 73.1033C190.941 73.3802 189.641 73.6387 188.331 73.8973H188.291ZM67.0611 73.8419C65.7711 73.4633 64.4911 73.0571 63.2611 72.6416L63.5211 71.9954C64.7411 72.4016 66.0111 72.8078 67.2911 73.1864L67.0611 73.8419ZM197.061 71.9954L196.871 71.3306C198.161 71.0259 199.451 70.712 200.731 70.4074L200.931 71.0721L197.061 71.9954ZM58.6011 70.8967C57.3611 70.3889 56.1411 69.8534 54.9711 69.2995L55.3111 68.6809C56.4711 69.2348 57.6811 69.7611 58.9011 70.2596L58.6011 70.8967ZM205.741 69.7888L205.531 69.124L209.341 68.0531L209.561 68.7086C208.341 69.0871 207.071 69.4472 205.791 69.798L205.741 69.7888ZM214.331 67.2868L214.091 66.6313C215.361 66.2343 216.621 65.8373 217.871 65.431L218.121 66.0866L214.331 67.2868ZM50.5911 67.0283C49.4411 66.3728 48.3111 65.6803 47.2411 64.9694L47.6811 64.4062C48.7411 65.1079 49.8511 65.7911 50.9911 66.4374L50.5911 67.0283ZM222.831 64.517L222.571 63.8615C223.821 63.4368 225.071 63.0029 226.311 62.5597L226.581 63.206C225.411 63.6584 224.141 64.0923 222.881 64.5263L222.831 64.517ZM43.3511 62.1443C42.3311 61.3318 41.3511 60.4824 40.4111 59.5961L40.9511 59.116C41.8711 59.9746 42.8411 60.824 43.8411 61.618L43.3511 62.1443ZM231.291 61.5534L231.001 60.9163C232.251 60.4455 233.481 59.9931 234.701 59.5038L234.991 60.1408C233.771 60.5747 232.531 61.0456 231.291 61.5072V61.5534ZM239.591 58.322L239.291 57.685L242.951 56.1893L243.251 56.8171C242.051 57.2787 240.831 57.7773 239.591 58.2758V58.322ZM37.0611 56.1339C36.2115 55.1567 35.4616 54.1089 34.8211 53.0041L35.4811 52.681C36.0986 53.7488 36.8253 54.7598 37.6511 55.7L37.0611 56.1339ZM247.801 54.8783L247.491 54.2505C248.701 53.7242 249.911 53.198 251.101 52.6625L251.421 53.2903C250.231 53.7796 249.031 54.3059 247.801 54.8321V54.8783ZM255.921 51.2499L255.581 50.6313L259.151 48.9603L259.491 49.5788L255.921 51.2499ZM33.1211 48.5725C32.9528 47.7383 32.8691 46.8914 32.8711 46.0428C32.8711 45.6273 32.8711 45.2211 32.9311 44.8056L33.6711 44.861C33.6711 45.258 33.6211 45.6458 33.6211 46.0428C33.6224 46.8476 33.6993 47.6507 33.8511 48.4432L33.1211 48.5725ZM263.931 47.3723L263.581 46.7629C264.781 46.172 265.961 45.5904 267.111 45.0087L267.471 45.6181L263.931 47.3723ZM271.851 43.3838L271.491 42.7837L274.971 40.9372L275.341 41.5373C274.211 42.1744 273.051 42.756 271.851 43.4023V43.3838ZM34.8511 40.4387L34.1511 40.1801C34.6512 39.018 35.2567 37.8968 35.9611 36.8287L36.6011 37.1888C35.9071 38.2289 35.3115 39.3224 34.8211 40.4571L34.8511 40.4387ZM279.701 39.2292L279.321 38.6291C280.511 37.9828 281.661 37.3458 282.751 36.7364L283.141 37.3273L279.701 39.2292ZM287.411 34.8992L287.011 34.3083C288.231 33.6066 289.361 32.9419 290.401 32.3325L290.801 32.9142C289.741 33.5235 288.611 34.2067 287.411 34.9176V34.8992ZM39.4711 33.5235L38.9011 33.0711C39.7311 32.1479 40.6511 31.2246 41.6411 30.3014L42.1711 30.7999C41.1911 31.7232 40.2911 32.6003 39.4711 33.5235ZM294.971 30.3937L294.551 29.812C296.711 28.4826 297.861 27.7255 297.871 27.7255L298.301 28.2887C298.301 28.2887 297.141 29.055 294.971 30.3937ZM45.8611 27.7624L45.3811 27.2269C46.3811 26.4699 47.4411 25.6943 48.5511 24.9373L48.9911 25.4912C47.8911 26.2483 46.8411 27.0054 45.8611 27.7624ZM53.0811 22.8692L52.6711 22.2875C53.7711 21.632 54.9211 20.9673 56.0811 20.321L56.4711 20.9211C55.3111 21.5212 54.1711 22.2137 53.0811 22.8692ZM60.8111 18.6407L60.4511 18.0314C61.6111 17.4589 62.8111 16.8865 64.0211 16.3326L64.3511 16.9512C63.1511 17.5051 61.9611 18.0775 60.8111 18.6407ZM68.8711 15.0031L68.5711 14.3661C69.8111 13.8583 71.0611 13.3782 72.2711 12.9258L72.5511 13.5721C71.3411 14.0152 70.1011 14.4953 68.8711 15.0031Z" fill="#95969B"/>
<path d="M303.898 11.9547L298.078 28.0008L310.968 18.1866L360.818 0.109375L303.898 11.9547Z" fill="#FA4082"/>
<path opacity="0.1" d="M303.898 11.9547L298.078 28.0008L310.968 18.1866L360.818 0.109375L303.898 11.9547Z" fill="black"/>
<path d="M312.768 21.8528L298.078 28.0017L310.968 18.1875L312.768 21.8528Z" fill="#95969B"/>
<path d="M310.969 18.1866L360.819 0.109375L320.609 38.3135L310.969 18.1866Z" fill="#FA4082"/>
<path d="M303.901 11.9561L282.621 0L360.821 0.110786L303.901 11.9561Z" fill="#FA4082"/>
<path d="M284.018 204.823C283.548 204.399 283.018 203.974 282.578 203.559L283.088 203.051C283.578 203.475 284.088 203.9 284.538 204.325L284.018 204.823Z" fill="#95969B"/>
<path d="M277.41 277.999V277.307C278.75 277.307 280.09 277.196 281.41 277.076L281.48 277.768C280.16 277.889 278.8 277.962 277.41 277.999ZM272.41 277.916C271.09 277.852 269.74 277.741 268.41 277.593L268.49 276.91C269.83 277.048 271.17 277.159 272.49 277.233L272.41 277.916ZM286.48 277.058L286.32 276.384C287.65 276.125 288.94 275.82 290.17 275.46L290.39 276.125C289.13 276.485 287.81 276.799 286.47 277.058H286.48ZM263.41 276.901C262.13 276.679 260.8 276.421 259.47 276.134L259.64 275.46C260.96 275.747 262.27 275.996 263.55 276.217L263.41 276.901ZM254.6 274.943C253.33 274.593 252.04 274.214 250.76 273.817L251 273.161C252.27 273.558 253.55 273.937 254.81 274.279L254.6 274.943ZM295.12 274.436L294.8 273.808C295.998 273.286 297.16 272.698 298.28 272.044L298.68 272.635C297.525 273.298 296.329 273.899 295.1 274.436H295.12ZM246.04 272.229C244.8 271.777 243.54 271.306 242.31 270.807L242.61 270.179C243.83 270.659 245.08 271.103 246.31 271.583L246.04 272.229ZM302.72 269.801L302.21 269.284C303.187 268.468 304.096 267.585 304.93 266.643L305.51 267.077C304.65 268.05 303.71 268.96 302.7 269.801H302.72ZM237.72 268.878C236.527 268.354 235.327 267.8 234.12 267.216L234.46 266.606C235.67 267.179 236.86 267.724 238.05 268.25L237.72 268.878ZM229.72 265.018C228.54 264.409 227.39 263.781 226.25 263.172L226.63 262.581C227.77 263.209 228.92 263.827 230.09 264.428L229.72 265.018ZM308.34 263.172L307.68 262.84C308.307 261.768 308.845 260.654 309.29 259.507L309.99 259.747C309.525 260.929 308.963 262.077 308.31 263.181L308.34 263.172ZM221.98 260.698C220.85 260.024 219.74 259.331 218.64 258.639L219.07 258.066C220.16 258.759 221.27 259.442 222.39 260.116L221.98 260.698ZM214.55 255.952C213.47 255.214 212.4 254.466 211.35 253.709L211.81 253.164C212.86 253.921 213.92 254.66 215 255.389L214.55 255.952ZM311.27 255.213L310.54 255.093C310.754 253.889 310.891 252.675 310.95 251.456H311.7C311.636 252.719 311.482 253.978 311.24 255.223L311.27 255.213ZM207.41 250.828C206.41 250.034 205.35 249.24 204.34 248.437L204.82 247.911C205.82 248.714 206.82 249.508 207.89 250.293L207.41 250.828ZM310.81 246.895C310.68 245.704 310.49 244.476 310.23 243.257L310.97 243.128C311.23 244.375 311.43 245.612 311.55 246.821L310.81 246.895ZM200.57 245.372C199.57 244.541 198.57 243.71 197.57 242.87L198.09 242.362C199.063 243.205 200.043 244.036 201.03 244.855L200.57 245.372ZM193.98 239.684C192.98 238.826 192.07 237.958 191.12 237.09L191.65 236.592C192.6 237.469 193.55 238.327 194.51 239.186L193.98 239.684ZM308.98 238.807C308.61 237.672 308.17 236.499 307.68 235.327L308.38 235.077C308.88 236.268 309.32 237.45 309.7 238.604L308.98 238.807ZM187.54 233.803C186.6 232.926 185.67 232.04 184.74 231.154L185.27 230.674L188.07 233.314L187.54 233.803ZM305.71 231.098C305.15 230.018 304.53 228.91 303.88 227.83L304.53 227.498C305.19 228.587 305.81 229.704 306.39 230.803L305.71 231.098ZM181.27 227.811L178.5 225.125L179.05 224.654L181.82 227.331L181.27 227.811ZM301.33 223.869C300.63 222.854 299.88 221.829 299.1 220.804L299.72 220.407C300.5 221.432 301.25 222.475 301.96 223.5L301.33 223.869ZM175.05 221.773L172.28 219.096L172.83 218.616L175.59 221.293L175.05 221.773ZM296.13 217.102C295.33 216.178 294.48 215.191 293.61 214.23L294.18 213.787C295.06 214.71 295.92 215.726 296.72 216.677L296.13 217.102ZM168.82 215.754C167.89 214.831 166.97 213.981 166.03 213.095L166.57 212.605L169.36 215.274L168.82 215.754ZM290.31 210.787C289.43 209.863 288.52 208.996 287.57 208.1L288.11 207.611C289.06 208.534 289.98 209.457 290.87 210.316L290.31 210.787ZM162.52 209.817L159.69 207.195L160.22 206.706L163.06 209.328L162.52 209.817ZM156.12 203.955L153.23 201.397L153.74 200.889L156.64 203.456L156.12 203.955ZM149.57 198.24C148.57 197.409 147.57 196.578 146.57 195.747L147.07 195.23C148.07 196.061 149.07 196.901 150.07 197.732L149.57 198.24ZM142.86 192.7C141.86 191.897 140.86 191.094 139.86 190.3L140.34 189.764C141.34 190.567 142.39 191.38 143.39 192.183L142.86 192.7ZM135.97 187.345C134.97 186.57 133.9 185.804 132.84 185.028L133.31 184.483C134.37 185.259 135.41 186.034 136.44 186.81L135.97 187.345ZM128.89 182.166C127.89 181.418 126.77 180.679 125.68 179.941L126.13 179.387C127.22 180.126 128.29 180.864 129.34 181.612L128.89 182.166ZM121.63 177.236L118.34 175.122L118.77 174.549C119.88 175.26 120.98 175.962 122.06 176.673L121.63 177.236ZM114.19 172.546C113.08 171.872 111.96 171.198 110.83 170.533L111.23 169.951C112.37 170.616 113.49 171.29 114.6 171.964L114.19 172.546ZM106.58 168.086C105.45 167.449 104.31 166.812 103.15 166.175L103.53 165.584C104.7 166.221 105.84 166.858 106.97 167.495L106.58 168.086ZM98.8199 163.858C97.6699 163.249 96.5098 162.648 95.3298 162.011L95.6898 161.402C96.8699 162.011 98.0398 162.611 99.1898 163.249L98.8199 163.858ZM90.9198 159.851C89.7498 159.279 88.5699 158.715 87.3699 158.143L87.7099 157.534C88.9099 158.097 90.0999 158.669 91.2699 159.242L90.9198 159.851ZM82.9198 156.075C81.7398 155.53 80.5299 154.995 79.3199 154.459L79.6398 153.831C80.8598 154.367 82.0598 154.912 83.2498 155.447L82.9198 156.075ZM74.7798 152.502L71.1299 150.979L71.4299 150.351C72.6699 150.849 73.8898 151.357 75.0898 151.874L74.7798 152.502ZM66.5399 149.132C65.3199 148.652 64.0898 148.209 62.8398 147.701L63.1299 147.055L66.8298 148.495L66.5399 149.132Z" fill="#95969B"/>
<path d="M57.9303 145.872L56.0703 145.189L56.3403 144.543L58.2103 145.226L57.9303 145.872Z" fill="#95969B"/>
<path d="M60.31 134.306L66.91 151.063L53.04 141.055L0 123.301L60.31 134.306Z" fill="#FA4082"/>
<path opacity="0.1" d="M60.31 134.306L66.91 151.063L53.04 141.055L0 123.301L60.31 134.306Z" fill="black"/>
<path d="M51.2578 144.96L66.9078 151.063L53.0378 141.055L51.2578 144.96Z" fill="#95969B"/>
<path d="M53.04 141.055L0 123.301L43.5 162.493L53.04 141.055Z" fill="#FA4082"/>
<path d="M60.31 134.306L82.35 121.168L0 123.301L60.31 134.306Z" fill="#FA4082"/>
</svg>
