<svg width="127" height="87" viewBox="0 0 127 87" fill="none" xmlns="http://www.w3.org/2000/svg">
<path d="M126.64 86.64H0V0H126.64V86.64ZM1 85.64H125.64V1H1V85.64Z" fill="#EBEBEB"/>
<path d="M9.89936 5.58859C9.89738 6.08657 9.74791 6.5728 9.46981 6.9859C9.19171 7.39899 8.79745 7.72043 8.33681 7.90963C7.87617 8.09883 7.3698 8.14731 6.88163 8.04895C6.39346 7.95059 5.94537 7.70979 5.59395 7.35697C5.24252 7.00415 5.0035 6.55511 4.90707 6.06656C4.81064 5.578 4.86113 5.07182 5.05215 4.61193C5.24317 4.15205 5.56617 3.75907 5.98037 3.4826C6.39456 3.20614 6.88138 3.0586 7.37936 3.05859C7.71114 3.05859 8.03964 3.1241 8.34604 3.25137C8.65243 3.37864 8.93068 3.56515 9.16481 3.80022C9.39895 4.03528 9.58436 4.31427 9.71042 4.62116C9.83647 4.92806 9.90067 5.25682 9.89936 5.58859Z" fill="#A6A6A6"/>
<path d="M20.1884 5.58859C20.1864 6.08657 20.037 6.5728 19.7589 6.9859C19.4808 7.39899 19.0865 7.72043 18.6259 7.90963C18.1652 8.09883 17.6589 8.14731 17.1707 8.04895C16.6825 7.95059 16.2344 7.70979 15.883 7.35697C15.5316 7.00415 15.2926 6.55511 15.1961 6.06656C15.0997 5.578 15.1502 5.07182 15.3412 4.61193C15.5322 4.15205 15.8552 3.75907 16.2694 3.4826C16.6836 3.20614 17.1704 3.0586 17.6684 3.05859C18.0002 3.05859 18.3287 3.1241 18.6351 3.25137C18.9415 3.37864 19.2197 3.56515 19.4539 3.80022C19.688 4.03528 19.8734 4.31427 19.9995 4.62116C20.1255 4.92806 20.1897 5.25682 20.1884 5.58859Z" fill="#EBEBEB"/>
<path d="M30.4814 5.58859C30.4794 6.08657 30.3299 6.5728 30.0518 6.9859C29.7737 7.39899 29.3795 7.72043 28.9188 7.90963C28.4582 8.09883 27.9518 8.14731 27.4637 8.04895C26.9755 7.95059 26.5274 7.70979 26.176 7.35697C25.8245 7.00415 25.5855 6.55511 25.4891 6.06656C25.3927 5.578 25.4432 5.07182 25.6342 4.61193C25.8252 4.15205 26.1482 3.75907 26.5624 3.4826C26.9766 3.20614 27.4634 3.0586 27.9614 3.05859C28.2932 3.05859 28.6217 3.1241 28.9281 3.25137C29.2345 3.37864 29.5127 3.56515 29.7468 3.80022C29.981 4.03528 30.1664 4.31427 30.2924 4.62116C30.4185 4.92806 30.4827 5.25682 30.4814 5.58859Z" fill="#FA4082"/>
<path d="M126.14 10.0195H0.5V11.0195H126.14V10.0195Z" fill="#EBEBEB"/>
</svg>
