<svg width="41" height="41" viewBox="0 0 41 41" fill="none" xmlns="http://www.w3.org/2000/svg">
<g clip-path="url(#clip0_952_4771)">
<path d="M20.5 41C31.8218 41 41 31.8218 41 20.5C41 9.17816 31.8218 0 20.5 0C9.17816 0 0 9.17816 0 20.5C0 31.8218 9.17816 41 20.5 41Z" fill="#FFC648"/>
<path d="M16.8145 21.9909L15.3105 23.4949L17.494 25.6783L18.9979 24.1744L16.8145 21.9909Z" fill="#9A9EAF"/>
<path d="M8.44417 28.892L13.5115 23.8279L17.1631 27.4794L12.0957 32.5468C11.6107 33.0295 10.9543 33.3005 10.27 33.3005C9.58565 33.3005 8.92919 33.0295 8.44417 32.5468C7.95967 32.0621 7.6875 31.4048 7.6875 30.7194C7.6875 30.0341 7.95967 29.3768 8.44417 28.892Z" fill="#828A9E"/>
<path d="M17.9589 26.6818L17.1613 27.4794L13.5098 23.8278L14.3073 23.027C14.4269 22.9106 14.5873 22.8455 14.7542 22.8455C14.9211 22.8455 15.0814 22.9106 15.201 23.027L17.9557 25.7849C18.0735 25.9043 18.1398 26.065 18.1404 26.2327C18.141 26.4004 18.0759 26.5616 17.9589 26.6818ZM32.5523 13.4529C33.2852 15.1737 33.4912 17.0733 33.1444 18.9112C32.7976 20.7491 31.9134 22.4429 30.6038 23.7784C29.2943 25.1138 27.618 26.0308 25.7872 26.4134C23.9564 26.7961 22.0532 26.6272 20.3184 25.928C18.5836 25.2289 17.0951 24.031 16.0412 22.4858C14.9873 20.9406 14.4153 19.1176 14.3976 17.2473C14.3799 15.377 14.9172 13.5434 15.9417 11.9786C16.9662 10.4137 18.4318 9.18785 20.153 8.45602C21.2953 7.96992 22.5221 7.71357 23.7634 7.70161C25.0047 7.68965 26.2362 7.92232 27.3876 8.38633C28.539 8.85034 29.5878 9.5366 30.4739 10.4059C31.3601 11.2752 32.0663 12.3106 32.5523 13.4529Z" fill="#62667C"/>
<path d="M31.2077 14.0199C31.9538 15.7666 32.053 17.722 31.4877 19.5353C30.9224 21.3485 29.7296 22.9011 28.1231 23.9144C27.9162 24.0445 27.7024 24.1631 27.4825 24.2699C27.3192 24.3564 27.1622 24.4333 26.9828 24.507C26.5682 24.6831 26.1396 24.8245 25.7016 24.9298C23.9841 25.3367 22.1802 25.1637 20.5715 24.4376C18.9627 23.7115 17.6396 22.4733 16.8085 20.9162C15.9775 19.3591 15.6853 17.5706 15.9775 15.83C16.2698 14.0893 17.13 12.4944 18.4241 11.2941C18.7687 10.9746 19.1418 10.6872 19.5388 10.4356C19.9189 10.1881 20.3197 9.97372 20.7367 9.79502C20.9033 9.72134 21.0763 9.65728 21.2524 9.59962C21.4784 9.51575 21.7095 9.44621 21.9443 9.39142C23.7865 8.93582 25.7308 9.15146 27.4284 9.99968C29.126 10.8479 30.4659 12.2732 31.2077 14.0199Z" fill="#B6D2DD"/>
<path opacity="0.4" d="M19.5385 10.4358L25.7205 24.9299C25.2652 25.0388 24.801 25.1074 24.3336 25.1349L18.4238 11.2942C18.7685 10.9747 19.1416 10.6873 19.5385 10.4358ZM21.9345 9.39795L28.1229 23.9145C27.916 24.0446 27.7021 24.1633 27.4823 24.2701L21.2426 9.60936C21.4685 9.52439 21.6996 9.45378 21.9345 9.39795Z" fill="white"/>
</g>
<defs>
<clipPath id="clip0_952_4771">
<rect width="41" height="41" fill="white"/>
</clipPath>
</defs>
</svg>
