<svg width="638" height="621" viewBox="0 0 638 621" fill="none" xmlns="http://www.w3.org/2000/svg">
<path d="M543.807 304.829C418.826 232.673 216.86 232.673 92.6892 304.829C-31.4818 376.986 -30.7957 493.967 94.1573 566.123C219.11 638.28 421.104 638.293 545.275 566.123C669.446 493.953 668.856 376.972 543.807 304.829Z" fill="#F5F5F5"/>
<path d="M290.562 575.604L316.837 600.658L390.187 574.932L363.913 549.878L290.562 575.604Z" fill="#E0E0E0"/>
<path d="M159.3 487.066L170.002 493.24L205.607 472.549L144.688 437.37L109.069 458.074L124.697 467.088L99.9453 470.711L121.253 518.938L170.208 511.776L159.3 487.066Z" fill="#E0E0E0"/>
<path d="M480.639 441.458L550.284 412.481L520.675 388.689L465.162 411.85L464.064 399.048L466.081 399.515L485.002 372.334L414.629 355.87L465.615 326.425L429.941 305.721L369.022 340.901L401.169 359.574L386.406 380.8L413.751 387.153L378.256 388.099L393.966 356.803L345.45 348.57L330.069 379.195L246.745 381.417L248.83 405.854L227.056 400.708L208.066 427.807L268.519 442.117L201.288 445.684L206.049 474.827L285.258 470.711L286.068 472.714L240.79 477.42L246.141 494.379L203.182 508.47L206.104 511.447L194.126 507.345L151.359 550.427L195.265 565.067L227.234 532.824L245.77 551.703L286.589 538.312L283.186 541.742L327.092 556.382L357.03 526.197L361.146 528.57L417.401 496.066L459.44 481.221L429.598 453.011L430.312 453.286L458.521 429.055L425.592 416.13L456.683 415.293L451.112 417.612L480.639 441.458ZM370.024 404.55L377.337 389.993L378.901 408.378L372.26 414.086L355.233 402.039L370.024 404.55ZM335.009 408.365L334.172 398.445L350.444 401.189L304.179 423.142L306.676 419.574L267.078 410.203L335.009 408.365ZM335.654 501.925L325.844 498.659L305.4 519.24L296.838 492.128L369.351 482.414L335.654 501.925ZM276.793 524.18L303.328 521.435L288.633 536.254L276.793 524.18ZM376.541 478.326L366.223 452.819L290.39 462.959L287.728 446.645L294.286 437.287L318.297 454.383L370.161 429.823L403.09 442.748L371.3 453.972L398.823 480.041L386.228 472.728L376.541 478.326Z" fill="#E0E0E0"/>
<path d="M384.125 564.71L433.684 570.514L450.45 521.765L400.892 515.947L384.125 564.71Z" fill="#E0E0E0"/>
<path d="M446.785 464.097C471.482 449.842 511.354 449.842 535.873 464.097C560.391 478.353 560.254 501.445 535.585 515.687C510.915 529.929 471.016 529.942 446.497 515.687C421.979 501.431 422.116 478.339 446.785 464.097Z" fill="#E0E0E0"/>
<path d="M338.724 341.875L192.751 426.778C191.029 427.775 189.075 428.3 187.085 428.3C185.095 428.3 183.14 427.775 181.418 426.778L106.916 383.75C106.485 383.502 106.128 383.145 105.879 382.715C105.631 382.285 105.5 381.797 105.5 381.301C105.5 380.804 105.631 380.316 105.879 379.886C106.128 379.456 106.485 379.1 106.916 378.852L252.888 293.99C254.61 292.993 256.565 292.467 258.555 292.467C260.545 292.467 262.5 292.993 264.222 293.99L338.724 337.018C339.145 337.268 339.493 337.624 339.735 338.05C339.977 338.475 340.105 338.957 340.105 339.446C340.105 339.936 339.977 340.417 339.735 340.843C339.493 341.269 339.145 341.624 338.724 341.875Z" fill="#E0E0E0"/>
<path d="M187.159 393.738L187.062 424.802L334.353 339.199L334.449 308.136L187.159 393.738Z" fill="#BA68C8"/>
<path d="M161.8 349.819L110.43 320.183L110.266 380.471L187.018 424.802L187.114 393.738L161.8 349.819Z" fill="#BA68C8"/>
<path opacity="0.3" d="M161.8 349.819L110.43 320.183L110.266 380.471L187.018 424.802L187.114 393.738L161.8 349.819Z" fill="black"/>
<path d="M187.152 393.738L334.442 308.136L309.101 264.23L161.797 349.819L187.152 393.738Z" fill="#BA68C8"/>
<path opacity="0.1" d="M187.152 393.738L334.442 308.136L309.101 264.23L161.797 349.819L187.152 393.738Z" fill="black"/>
<g opacity="0.5">
<path d="M308.487 284.523L317.117 302.689C317.256 302.932 317.3 303.217 317.242 303.49C317.183 303.763 317.027 304.005 316.802 304.171L292.489 318.207C292.369 318.262 292.239 318.291 292.107 318.293C291.975 318.295 291.844 318.27 291.723 318.218C291.601 318.166 291.492 318.09 291.402 317.993C291.312 317.897 291.243 317.783 291.199 317.658L282.61 299.561C282.61 299.423 282.528 299.327 282.5 299.245C282.489 299.122 282.489 298.998 282.5 298.875C282.516 298.768 282.539 298.662 282.569 298.559C282.61 298.467 282.661 298.38 282.72 298.298C282.783 298.211 282.862 298.136 282.953 298.079L307.28 284.043C307.352 284.001 307.431 283.973 307.513 283.96C307.612 283.932 307.716 283.932 307.815 283.96C307.903 283.973 307.988 284.006 308.062 284.056C308.165 284.108 308.258 284.177 308.336 284.262C308.394 284.345 308.444 284.432 308.487 284.523ZM315.046 302.607L308.007 287.665L302.779 304.582C302.715 304.799 302.574 304.985 302.381 305.104C302.293 305.156 302.195 305.189 302.094 305.201C301.992 305.213 301.889 305.203 301.791 305.172L285.19 300.713L292.324 315.806L315.046 302.689M305.99 287.432L286.246 298.833L301.215 302.95L305.99 287.487" fill="white"/>
</g>
<path d="M309.087 264.23L257.759 234.594L110.469 320.183L161.797 349.819L309.087 264.23Z" fill="#BA68C8"/>
<path opacity="0.2" d="M309.087 264.23L257.759 234.594L110.469 320.183L161.797 349.819L309.087 264.23Z" fill="black"/>
<path opacity="0.2" d="M257.759 234.594L110.469 320.183L141.875 338.321L289.165 252.719L257.759 234.594Z" fill="black"/>
<path d="M222.832 324.161L173.383 352.906L190.245 382.131L239.708 353.386L222.832 324.161Z" fill="#455A64"/>
<g opacity="0.5">
<path d="M211.717 353.318L209.686 354.484L205.57 347.171L208.616 345.401L211.717 353.318Z" fill="white"/>
<path d="M211.166 354.854C211.374 354.734 211.606 354.661 211.846 354.641C212.086 354.621 212.327 354.654 212.553 354.737C212.778 354.821 212.982 354.954 213.151 355.126C213.319 355.298 213.447 355.505 213.526 355.732C213.788 356.188 213.865 356.728 213.74 357.239C213.615 357.75 213.297 358.194 212.853 358.477C212.64 358.594 212.403 358.664 212.16 358.681C211.917 358.699 211.672 358.663 211.444 358.577C211.216 358.491 211.009 358.357 210.838 358.183C210.667 358.009 210.535 357.8 210.452 357.571C210.191 357.115 210.12 356.575 210.253 356.067C210.387 355.559 210.714 355.123 211.166 354.854Z" fill="white"/>
<path d="M220.921 351.136C221.497 351.607 221.961 352.199 222.281 352.87C222.601 353.542 222.769 354.275 222.773 355.019C222.818 355.702 222.681 356.385 222.375 356.998C222.068 357.61 221.604 358.13 221.031 358.504L208.243 365.886C207.675 366.198 207.024 366.326 206.38 366.252C205.736 366.179 205.131 365.907 204.648 365.474C204.075 365.002 203.613 364.409 203.295 363.738C202.978 363.067 202.812 362.334 202.81 361.591L202.549 343.892C202.499 343.208 202.635 342.523 202.942 341.91C203.248 341.297 203.715 340.777 204.292 340.407C204.856 340.094 205.504 339.964 206.145 340.035C206.787 340.106 207.391 340.375 207.873 340.805L220.921 351.136ZM221.332 354.854C221.33 354.408 221.23 353.967 221.038 353.564C220.846 353.161 220.567 352.805 220.221 352.522L207.187 342.204C206.896 341.947 206.534 341.786 206.148 341.742C205.763 341.697 205.374 341.773 205.032 341.957C204.683 342.179 204.401 342.491 204.215 342.861C204.029 343.23 203.946 343.644 203.976 344.056L204.237 361.756C204.242 362.202 204.343 362.642 204.535 363.045C204.727 363.447 205.005 363.803 205.348 364.088C205.639 364.345 206.001 364.506 206.386 364.551C206.772 364.595 207.161 364.52 207.502 364.335L220.29 356.954C220.633 356.727 220.911 356.413 221.094 356.044C221.277 355.676 221.359 355.265 221.332 354.854Z" fill="white"/>
</g>
<path d="M243.532 351.15L226.67 321.939L222.828 324.162L239.704 353.386L243.532 351.15Z" fill="#BA68C8"/>
<path opacity="0.3" d="M243.532 351.15L226.67 321.939L222.828 324.162L239.704 353.386L243.532 351.15Z" fill="black"/>
<path opacity="0.1" d="M190.245 382.131L239.708 353.386L238.144 350.779L192.866 377.095L177.321 350.615L173.383 352.906L190.245 382.131Z" fill="black"/>
<path d="M327.696 327.784L322.523 330.761L327.724 333.766L327.696 327.784Z" fill="#455A64"/>
<path d="M322.527 330.761L194.445 404.674L194.459 410.656L327.727 333.766L322.527 330.761Z" fill="#37474F"/>
<path d="M139.736 105.484C139.736 105.634 139.736 105.785 139.832 105.923C139.832 106.087 139.928 106.266 139.983 106.43C140.034 106.575 140.093 106.717 140.161 106.856L140.422 107.404L140.655 107.789C140.783 107.99 140.92 108.196 141.067 108.406L141.314 108.722L141.547 109.01L141.657 109.133C141.821 109.312 142 109.476 142.178 109.655L142.425 109.888C142.59 110.039 142.782 110.19 142.974 110.341L143.289 110.588L143.481 110.752L144.126 111.178C144.346 111.328 144.565 111.479 144.812 111.617L161.4 121.221L222.169 86.1376L205.581 76.5332C198.569 72.417 187.181 72.417 180.115 76.5332L144.936 96.9905C141.163 99.1721 139.448 102.081 139.667 104.935C139.676 105.119 139.699 105.303 139.736 105.484Z" fill="#455A64"/>
<path opacity="0.5" d="M139.736 105.484C139.736 105.634 139.736 105.785 139.832 105.923C139.832 106.087 139.928 106.266 139.983 106.43C140.034 106.575 140.093 106.717 140.161 106.856L140.422 107.404L140.655 107.789C140.783 107.99 140.92 108.196 141.067 108.406L141.314 108.722L141.547 109.01L141.657 109.133C141.821 109.312 142 109.476 142.178 109.655L142.425 109.888C142.59 110.039 142.782 110.19 142.974 110.341L143.289 110.588L143.481 110.752L144.126 111.178C144.346 111.328 144.565 111.479 144.812 111.617L161.4 121.221L222.169 86.1376L205.581 76.5332C198.569 72.417 187.181 72.417 180.115 76.5332L144.936 96.9905C141.163 99.1721 139.448 102.081 139.667 104.935C139.676 105.119 139.699 105.303 139.736 105.484Z" fill="white"/>
<path d="M144.852 111.74C144.619 111.603 144.399 111.452 144.18 111.301L143.535 110.876L143.343 110.711L143.041 110.478C142.849 110.327 142.657 110.176 142.492 110.025L142.245 109.792C142.066 109.633 141.896 109.463 141.738 109.284L141.628 109.161L141.395 108.873L141.161 108.571C141.006 108.36 140.869 108.154 140.75 107.953C140.667 107.83 140.585 107.706 140.516 107.583L140.256 107.034C140.256 106.897 140.132 106.773 140.077 106.636C140.077 106.471 139.981 106.293 139.926 106.128C139.926 105.991 139.858 105.854 139.83 105.717C139.817 105.539 139.817 105.36 139.83 105.182C139.83 105.003 139.83 104.839 139.83 104.66L139.995 161.408V161.573C139.988 161.692 139.988 161.811 139.995 161.93C139.982 162.122 139.982 162.314 139.995 162.506V162.602C139.995 162.726 140.077 162.835 140.105 162.959C140.132 163.082 140.201 163.329 140.256 163.508V163.617C140.3 163.725 140.351 163.831 140.407 163.933C140.489 164.125 140.571 164.317 140.667 164.496V164.633C140.667 164.729 140.791 164.811 140.846 164.893C140.901 164.976 141.12 165.319 141.271 165.525C141.317 165.585 141.358 165.65 141.395 165.717L141.751 166.128L141.875 166.266C142.076 166.494 142.291 166.709 142.52 166.91L142.629 167.006C142.794 167.157 143 167.308 143.178 167.459C143.357 167.61 143.507 167.734 143.686 167.857L144.331 168.296L144.797 168.598L145.017 168.735L161.605 178.34L161.44 121.605L144.852 111.74Z" fill="#37474F"/>
<path opacity="0.3" d="M144.852 111.74C144.619 111.603 144.399 111.452 144.18 111.301L143.535 110.876L143.343 110.711L143.041 110.478C142.849 110.327 142.657 110.176 142.492 110.025L142.245 109.792C142.066 109.633 141.896 109.463 141.738 109.284L141.628 109.161L141.395 108.873L141.161 108.571C141.006 108.36 140.869 108.154 140.75 107.953C140.667 107.83 140.585 107.706 140.516 107.583L140.256 107.034C140.256 106.897 140.132 106.773 140.077 106.636C140.077 106.471 139.981 106.293 139.926 106.128C139.926 105.991 139.858 105.854 139.83 105.717C139.817 105.539 139.817 105.36 139.83 105.182C139.83 105.003 139.83 104.839 139.83 104.66L139.995 161.408V161.573C139.988 161.692 139.988 161.811 139.995 161.93C139.982 162.122 139.982 162.314 139.995 162.506V162.602C139.995 162.726 140.077 162.835 140.105 162.959C140.132 163.082 140.201 163.329 140.256 163.508V163.617C140.3 163.725 140.351 163.831 140.407 163.933C140.489 164.125 140.571 164.317 140.667 164.496V164.633C140.667 164.729 140.791 164.811 140.846 164.893C140.901 164.976 141.12 165.319 141.271 165.525C141.317 165.585 141.358 165.65 141.395 165.717L141.751 166.128L141.875 166.266C142.076 166.494 142.291 166.709 142.52 166.91L142.629 167.006C142.794 167.157 143 167.308 143.178 167.459C143.357 167.61 143.507 167.734 143.686 167.857L144.331 168.296L144.797 168.598L145.017 168.735L161.605 178.34L161.44 121.605L144.852 111.74Z" fill="white"/>
<path d="M222.214 86.3022L161.445 121.386L161.61 178.12L222.378 143.05L222.214 86.3022Z" fill="#263238"/>
<path d="M95.8459 342.41L95.4754 176.254C95.6115 173.681 96.3536 171.177 97.6411 168.945C98.9287 166.713 100.725 164.817 102.885 163.412L309.379 44.482C310.128 43.9397 311.006 43.6036 311.926 43.5073C312.846 43.411 313.775 43.5578 314.62 43.9331L306.84 39.4328C305.468 38.5684 303.561 38.637 301.448 39.8719L94.9403 158.815C92.7829 160.22 90.9874 162.113 89.7 164.343C88.4125 166.572 87.6695 169.073 87.5312 171.644L87.9017 337.759C87.8108 338.639 87.9414 339.528 88.2816 340.345C88.6219 341.162 89.161 341.882 89.85 342.437L90.2616 342.67L97.9314 347.143C97.2041 346.602 96.6296 345.881 96.264 345.052C95.8985 344.222 95.7544 343.312 95.8459 342.41Z" fill="#BA68C8"/>
<path opacity="0.3" d="M306.881 39.4328C305.509 38.5684 303.602 38.637 301.489 39.8719L94.94 158.815C92.5012 160.357 90.5392 162.547 89.2734 165.14L97.2176 169.737C98.4834 167.144 100.445 164.954 102.884 163.412L309.378 44.482C310.128 43.9397 311.006 43.6036 311.926 43.5073C312.845 43.411 313.774 43.5578 314.62 43.9331L306.881 39.4328Z" fill="white"/>
<path opacity="0.2" d="M87.5312 171.644L87.9017 337.759C87.8108 338.639 87.9414 339.528 88.2816 340.345C88.6219 341.162 89.161 341.882 89.85 342.437L90.2616 342.671L97.9314 347.143C97.1944 346.606 96.6106 345.885 96.2376 345.052C95.8646 344.22 95.7154 343.304 95.8047 342.396L95.4343 176.24C95.4896 173.96 96.0869 171.726 97.1768 169.723L89.2326 165.127C88.1628 167.136 87.5801 169.368 87.5312 171.644Z" fill="black"/>
<path d="M316.885 48.7217C316.976 47.8141 316.826 46.8986 316.45 46.0675C316.074 45.2365 315.486 44.5192 314.745 43.9881C313.899 43.6127 312.97 43.4659 312.051 43.5622C311.131 43.6585 310.252 43.9946 309.503 44.5369L102.886 163.412C100.726 164.817 98.9298 166.713 97.6423 168.945C96.3547 171.177 95.6127 173.681 95.4766 176.254L95.847 342.41C95.7577 343.318 95.9069 344.233 96.2799 345.066C96.6528 345.899 97.2367 346.619 97.9737 347.157H98.0972C98.9365 347.505 99.8505 347.633 100.753 347.53C101.656 347.427 102.517 347.095 103.256 346.567L309.846 227.72C312.005 226.317 313.802 224.424 315.09 222.194C316.377 219.965 317.119 217.462 317.255 214.891L316.885 48.7217ZM306.169 221.367L103.174 338.266L102.817 176.24C102.95 174.961 103.351 173.725 103.994 172.612C104.637 171.498 105.508 170.533 106.549 169.778L309.613 52.879L309.97 214.905C309.827 216.189 309.414 217.428 308.759 218.542C308.104 219.655 307.222 220.618 306.169 221.367Z" fill="#BA68C8"/>
<path d="M309.554 52.879L304.299 55.8975L304.642 212.312C304.506 213.59 304.103 214.825 303.461 215.938C302.818 217.051 301.949 218.017 300.91 218.774L103.156 332.655V338.253L306.22 221.354C307.263 220.599 308.135 219.634 308.78 218.521C309.425 217.407 309.829 216.171 309.966 214.891L309.554 52.879Z" fill="#BA68C8"/>
<path opacity="0.3" d="M309.554 52.879L304.299 55.8975L304.642 212.312C304.506 213.59 304.103 214.825 303.461 215.938C302.818 217.051 301.949 218.017 300.91 218.774L103.156 332.655V338.253L306.22 221.354C307.263 220.599 308.135 219.634 308.78 218.521C309.425 217.407 309.829 216.171 309.966 214.891L309.554 52.879Z" fill="black"/>
<path d="M304.642 212.339L304.299 55.9249L106.544 169.805C105.503 170.56 104.633 171.525 103.99 172.639C103.347 173.752 102.946 174.989 102.812 176.268L103.156 332.682L300.91 218.801C301.948 218.044 302.817 217.078 303.46 215.965C304.103 214.852 304.505 213.617 304.642 212.339Z" fill="#455A64"/>
<g opacity="0.5">
<path d="M243.991 221.738L244.005 227.624L183.772 262.392L183.758 256.506L243.991 221.738Z" fill="white"/>
<path d="M189.545 204.011L193.181 206.083L184.757 220.667L193.222 225.497L189.628 231.726L181.148 226.91L172.738 241.482L169.102 239.423L177.526 224.839L169.047 220.009L172.655 213.766L181.135 218.582L189.545 204.011Z" fill="white"/>
<path d="M254.803 166.334L258.425 168.406L250.015 182.991L258.48 187.821L254.872 194.063L246.406 189.234L237.996 203.805L234.36 201.747L242.77 187.176L234.305 182.346L237.913 176.089L246.379 180.919L254.803 166.334Z" fill="white"/>
</g>
<path d="M175.821 72.9521L169.949 61.715V61.5503L171.87 48.8588C172.037 47.7834 171.874 46.6825 171.401 45.7023C170.928 44.722 170.168 43.9088 169.222 43.3706L142.755 28.2231C142.167 27.8847 141.469 27.7936 140.814 27.9699C140.159 28.1461 139.601 28.5753 139.263 29.163C138.925 29.7507 138.833 30.4487 139.01 31.1036C139.186 31.7584 139.615 32.3165 140.203 32.6549L166.684 47.8572L166.807 48.1317L164.9 60.8369C164.729 61.9649 164.921 63.1182 165.449 64.1298L171.321 75.3669V75.5865L162.897 95.7557C162.624 96.4122 162.484 97.1164 162.485 97.8274V101.683C162.476 101.926 162.541 102.166 162.67 102.372C162.8 102.577 162.989 102.739 163.212 102.835C163.776 103.12 164.399 103.268 165.03 103.268C165.662 103.268 166.284 103.12 166.848 102.835C167.057 102.743 167.237 102.596 167.37 102.41C167.503 102.225 167.583 102.006 167.603 101.779V97.6628L176.013 77.4936C176.315 76.7685 176.454 75.9862 176.421 75.2016C176.388 74.417 176.183 73.6492 175.821 72.9521Z" fill="#BA68C8"/>
<path d="M183.151 60.0411V59.8627L186.417 50.3818C186.729 49.4728 186.791 48.4965 186.595 47.5554L181.875 24.2305C181.741 23.5627 181.346 22.9758 180.779 22.5989C180.212 22.2219 179.518 22.0858 178.85 22.2204C178.182 22.3551 177.595 22.7494 177.218 23.3168C176.841 23.8842 176.705 24.5781 176.84 25.2458L181.574 48.7354L178.308 58.23C177.901 59.3984 177.901 60.67 178.308 61.8385L181.615 70.8117V70.9764L176.483 87.6057C176.331 88.1226 176.252 88.6584 176.25 89.1972V92.8195C176.271 93.0431 176.35 93.2573 176.48 93.4404C176.61 93.6235 176.787 93.769 176.991 93.8622C177.553 94.1533 178.176 94.3053 178.809 94.3053C179.442 94.3053 180.065 94.1533 180.627 93.8622C180.853 93.7678 181.044 93.6071 181.177 93.4012C181.309 93.1954 181.376 92.9543 181.368 92.7097V89.0875L186.499 72.4582C186.846 71.3308 186.812 70.1207 186.403 69.0143L183.151 60.0411Z" fill="#455A64"/>
<path d="M229.194 37.3885H220.317C219.432 37.3856 218.56 37.6022 217.78 38.0188C216.999 38.4354 216.334 39.0391 215.844 39.7759L210.877 47.1987L210.713 47.3084L204.209 48.8451C203.393 49.0383 202.633 49.4192 201.99 49.9575C201.347 50.4958 200.838 51.1766 200.504 51.946C200.001 53.1276 199.928 54.4482 200.299 55.678L201.026 58.4221C201.053 58.4881 201.053 58.5619 201.026 58.6279C200.984 58.6838 200.927 58.7266 200.861 58.7514L198.858 59.2453C197.951 59.4706 197.119 59.9282 196.443 60.5729C195.767 61.2177 195.27 62.0274 195.003 62.9224L188.815 83.5993C188.678 84.1089 188.617 84.6361 188.636 85.1634V88.3466C188.652 88.5735 188.729 88.7918 188.86 88.978C188.99 89.1641 189.169 89.3111 189.377 89.4031C189.941 89.6877 190.564 89.8359 191.195 89.8359C191.827 89.8359 192.449 89.6877 193.013 89.4031C193.248 89.3068 193.446 89.1374 193.577 88.9199C193.708 88.7023 193.765 88.4484 193.74 88.1957V85.0811L199.928 64.4042L200.107 64.2259L202.11 63.7319C202.913 63.5235 203.658 63.133 204.286 62.5905C204.914 62.048 205.409 61.3681 205.732 60.6036C206.207 59.4246 206.274 58.1209 205.924 56.8991L205.183 54.155C205.169 54.1225 205.162 54.0875 205.162 54.0521C205.162 54.0167 205.169 53.9817 205.183 53.9492C205.196 53.9151 205.218 53.8854 205.248 53.8635C205.277 53.8417 205.311 53.8285 205.348 53.8257L211.961 52.3713C213.287 52.0514 214.446 51.2492 215.213 50.1211L220.166 42.6983L220.386 42.5749H229.263C229.614 42.6006 229.968 42.5536 230.301 42.4367C230.633 42.3198 230.939 42.1355 231.197 41.8953C231.455 41.6552 231.661 41.3644 231.802 41.041C231.943 40.7177 232.016 40.3687 232.016 40.016C232.016 39.6632 231.943 39.3143 231.802 38.9909C231.661 38.6676 231.455 38.3767 231.197 38.1366C230.939 37.8965 230.633 37.7122 230.301 37.5953C229.968 37.4783 229.614 37.4313 229.263 37.4571L229.194 37.3885Z" fill="#BA68C8"/>
<g opacity="0.1">
<path d="M175.821 72.9521L169.949 61.715V61.5503L171.87 48.8588C172.037 47.7834 171.874 46.6825 171.401 45.7023C170.928 44.722 170.168 43.9088 169.222 43.3706L142.755 28.2231C142.167 27.8847 141.469 27.7936 140.814 27.9699C140.159 28.1461 139.601 28.5753 139.263 29.163C138.925 29.7507 138.833 30.4487 139.01 31.1036C139.186 31.7584 139.615 32.3165 140.203 32.6549L166.684 47.8572L166.807 48.1317L164.9 60.8369C164.729 61.9649 164.921 63.1182 165.449 64.1298L171.321 75.3669V75.5865L162.897 95.7557C162.624 96.4122 162.484 97.1164 162.485 97.8274V101.683C162.476 101.926 162.541 102.166 162.67 102.372C162.8 102.577 162.989 102.739 163.212 102.835C163.776 103.12 164.399 103.268 165.03 103.268C165.662 103.268 166.284 103.12 166.848 102.835C167.057 102.743 167.237 102.596 167.37 102.41C167.503 102.225 167.583 102.006 167.603 101.779V97.6628L176.013 77.4936C176.315 76.7685 176.454 75.9862 176.421 75.2016C176.388 74.417 176.183 73.6492 175.821 72.9521Z" fill="white"/>
<path d="M183.151 60.0411V59.8627L186.417 50.3818C186.729 49.4728 186.791 48.4965 186.595 47.5554L181.875 24.2305C181.741 23.5627 181.346 22.9758 180.779 22.5989C180.212 22.2219 179.518 22.0858 178.85 22.2204C178.182 22.3551 177.595 22.7494 177.218 23.3168C176.841 23.8842 176.705 24.5781 176.84 25.2458L181.574 48.7354L178.308 58.23C177.901 59.3984 177.901 60.67 178.308 61.8385L181.615 70.8117V70.9764L176.483 87.6057C176.331 88.1226 176.252 88.6584 176.25 89.1972V92.8195C176.271 93.0431 176.35 93.2573 176.48 93.4404C176.61 93.6235 176.787 93.769 176.991 93.8622C177.553 94.1533 178.176 94.3053 178.809 94.3053C179.442 94.3053 180.065 94.1533 180.627 93.8622C180.853 93.7678 181.044 93.6071 181.177 93.4012C181.309 93.1954 181.376 92.9543 181.368 92.7097V89.0875L186.499 72.4582C186.846 71.3308 186.812 70.1207 186.403 69.0143L183.151 60.0411Z" fill="white"/>
<path d="M229.194 37.3885H220.317C219.432 37.3856 218.56 37.6022 217.78 38.0188C216.999 38.4354 216.334 39.0391 215.844 39.7759L210.877 47.1987L210.713 47.3085L204.209 48.8452C203.393 49.0383 202.633 49.4192 201.99 49.9575C201.347 50.4958 200.838 51.1767 200.504 51.946C200.001 53.1276 199.928 54.4482 200.299 55.678L201.026 58.4221C201.053 58.4881 201.053 58.5619 201.026 58.6279C200.984 58.6838 200.927 58.7266 200.861 58.7514L198.858 59.2453C197.951 59.4706 197.119 59.9282 196.443 60.5729C195.767 61.2177 195.27 62.0275 195.003 62.9224L188.815 83.5993C188.678 84.1089 188.617 84.6361 188.636 85.1634V88.3466C188.652 88.5735 188.729 88.7918 188.86 88.978C188.99 89.1642 189.169 89.3111 189.377 89.4031C189.941 89.6877 190.564 89.836 191.195 89.836C191.827 89.836 192.449 89.6877 193.013 89.4031C193.248 89.3069 193.446 89.1374 193.577 88.9199C193.708 88.7024 193.765 88.4484 193.74 88.1957V85.0811L199.928 64.4042L200.107 64.2259L202.11 63.7319C202.913 63.5236 203.658 63.133 204.286 62.5905C204.914 62.048 205.409 61.3682 205.732 60.6037C206.207 59.4246 206.274 58.1209 205.924 56.8991L205.183 54.155C205.169 54.1225 205.162 54.0875 205.162 54.0521C205.162 54.0167 205.169 53.9817 205.183 53.9492C205.196 53.9151 205.218 53.8854 205.248 53.8635C205.277 53.8417 205.311 53.8286 205.348 53.8257L211.961 52.3713C213.287 52.0514 214.446 51.2492 215.213 50.1212L220.166 42.6984L220.386 42.5749H229.263C229.614 42.6006 229.968 42.5536 230.301 42.4367C230.633 42.3198 230.939 42.1355 231.197 41.8954C231.455 41.6552 231.661 41.3644 231.802 41.041C231.943 40.7177 232.016 40.3687 232.016 40.016C232.016 39.6632 231.943 39.3143 231.802 38.9909C231.661 38.6676 231.455 38.3767 231.197 38.1366C230.939 37.8965 230.633 37.7122 230.301 37.5953C229.968 37.4784 229.614 37.4313 229.263 37.4571L229.194 37.3885Z" fill="white"/>
</g>
<path d="M95.875 5.63914L110.707 22.6801L121.011 16.6156L133.099 45.415L119.076 24.9988L108.114 32.353L95.875 5.63914Z" fill="#BA68C8"/>
<path d="M166.317 0L159.43 13.7891L166.317 14.8456L160.665 28.7994L172.505 12.7189L163.134 11.1274L166.317 0Z" fill="#BA68C8"/>
<path d="M226.742 4.63753L223.915 21.0336L218.262 18.9069L215.312 35.5225L219.909 22.7898L226.275 25.5065L226.742 4.63753Z" fill="#BA68C8"/>
<path d="M235.812 33.7525L247.187 23.7914V28.772L255.378 23.0368L244.36 34.8776L244.649 27.8802L235.812 33.7525Z" fill="#BA68C8"/>
<path d="M231.758 48.7217L241.705 58.2163L243.585 52.879L254.301 61.1937L243.036 47.0615L240.992 54.1276L231.758 48.7217Z" fill="#BA68C8"/>
<path d="M152.801 68.9732L137.681 74.626L143.018 78.701L131.328 85.4378L150.413 80.2789L144.692 75.6825L152.801 68.9732Z" fill="#BA68C8"/>
<g opacity="0.5">
<path d="M95.875 5.63914L110.707 22.6801L121.011 16.6156L133.099 45.415L119.076 24.9988L108.114 32.353L95.875 5.63914Z" fill="white"/>
<path d="M166.317 0L159.43 13.7891L166.317 14.8456L160.665 28.7994L172.505 12.7189L163.134 11.1274L166.317 0Z" fill="white"/>
<path d="M226.742 4.63753L223.915 21.0336L218.262 18.9069L215.312 35.5225L219.909 22.7898L226.275 25.5065L226.742 4.63753Z" fill="white"/>
<path d="M235.812 33.7525L247.187 23.7914V28.772L255.378 23.0368L244.36 34.8776L244.649 27.8802L235.812 33.7525Z" fill="white"/>
<path d="M231.766 48.7217L241.713 58.2163L243.593 52.879L254.308 61.1937L243.044 47.0615L241 54.1276L231.766 48.7217Z" fill="white"/>
<path d="M152.801 68.9732L137.681 74.626L143.018 78.701L131.328 85.4378L150.413 80.2789L144.692 75.6825L152.801 68.9732Z" fill="white"/>
</g>
<path d="M366.162 448.264L282.562 459.446L294.088 487.971L377.701 476.775L366.162 448.264Z" fill="#BA68C8"/>
<path opacity="0.2" d="M366.162 448.264L333.726 472.988L282.562 459.446L366.162 448.264Z" fill="white"/>
<path opacity="0.1" d="M366.162 448.264L377.701 476.775L294.088 487.971L282.562 459.446L333.726 472.988L366.162 448.264Z" fill="white"/>
<path d="M405.258 349.078L386.406 376.204L466.081 394.905L484.947 367.779L405.258 349.078Z" fill="#BA68C8"/>
<path opacity="0.3" d="M484.947 367.779L433.783 377.178L405.258 349.078L484.947 367.779Z" fill="white"/>
<path opacity="0.1" d="M484.947 367.779L466.081 394.905L386.406 376.204L405.258 349.078L433.783 377.178L484.947 367.779Z" fill="white"/>
<path d="M224.475 396.62L205.609 423.745L285.285 442.446L304.15 415.321L224.475 396.62Z" fill="#BA68C8"/>
<path opacity="0.3" d="M304.152 415.321L252.988 424.719L224.477 396.62L304.152 415.321Z" fill="white"/>
<path opacity="0.1" d="M304.15 415.321L285.285 442.446L205.609 423.745L224.475 396.62L252.986 424.719L304.15 415.321Z" fill="white"/>
<path d="M520.73 384.134L451.07 413.098L480.638 436.89L550.284 407.925L520.73 384.134Z" fill="#BA68C8"/>
<path opacity="0.5" d="M520.73 384.134L507.242 414.209L451.07 413.098L520.73 384.134Z" fill="white"/>
<path opacity="0.3" d="M520.73 384.134L550.284 407.925L480.638 436.89L451.07 413.098L507.242 414.209L520.73 384.134Z" fill="white"/>
<path d="M387.293 396.62L359.07 420.85L430.307 448.758L458.517 424.541L387.293 396.62Z" fill="#BA68C8"/>
<path opacity="0.2" d="M458.52 424.541L405.092 427.532L387.297 396.62L458.52 424.541Z" fill="white"/>
<path opacity="0.1" d="M458.517 424.541L430.307 448.758L359.07 420.85L387.293 396.62L405.089 427.532L458.517 424.541Z" fill="white"/>
<path d="M450.45 517.196L400.892 511.392L384.125 560.141L433.684 565.959L450.45 517.196Z" fill="#BA68C8"/>
<path opacity="0.5" d="M400.892 511.392L426.439 538.806L384.125 560.141L400.892 511.392Z" fill="white"/>
<path opacity="0.3" d="M433.684 565.959L384.125 560.141L426.439 538.806L400.892 511.392L450.45 517.196L433.684 565.959Z" fill="white"/>
<path d="M363.913 545.309L290.562 571.035L316.837 596.103L390.187 570.377L363.913 545.309Z" fill="#BA68C8"/>
<path opacity="0.5" d="M363.913 545.309L346.419 574.699L290.562 571.035L363.913 545.309Z" fill="white"/>
<path opacity="0.3" d="M363.913 545.309L390.187 570.377L316.837 596.103L290.562 571.035L346.419 574.699L363.913 545.309Z" fill="white"/>
<path d="M429.935 301.125L369.016 336.304L404.634 356.995L465.553 321.829L429.935 301.125Z" fill="#BA68C8"/>
<path opacity="0.5" d="M369.016 336.304L422.498 333.409L429.935 301.125L369.016 336.304Z" fill="white"/>
<path opacity="0.3" d="M369.016 336.304L404.634 356.995L465.553 321.829L429.935 301.125L422.498 333.409L369.016 336.304Z" fill="white"/>
<path d="M349.519 395.989L285.719 425.611L319.362 449.389L383.162 419.766L349.519 395.989Z" fill="#BA68C8"/>
<path opacity="0.6" d="M285.719 425.611L339.256 427.477L349.519 395.989L285.719 425.611Z" fill="white"/>
<path opacity="0.4" d="M285.719 425.611L319.362 449.389L383.162 419.766L349.519 395.989L339.256 427.477L285.719 425.611Z" fill="white"/>
<path d="M462.953 381.308L377.172 383.599L379.669 412.837L465.45 410.546L462.953 381.308Z" fill="#BA68C8"/>
<path opacity="0.5" d="M462.953 381.308L423.341 402.245L377.172 383.599L462.953 381.308Z" fill="white"/>
<path opacity="0.3" d="M462.953 381.308L465.45 410.546L379.669 412.837L377.172 383.599L423.341 402.245L462.953 381.308Z" fill="white"/>
<path d="M332.523 374.571L246.742 376.862L249.239 406.101L335.006 403.809L332.523 374.571Z" fill="#BA68C8"/>
<path opacity="0.5" d="M332.523 374.571L292.912 395.508L246.742 376.862L332.523 374.571Z" fill="white"/>
<path opacity="0.3" d="M332.523 374.571L335.006 403.809L249.239 406.101L246.742 376.862L292.912 395.508L332.523 374.571Z" fill="white"/>
<path d="M369.66 508.744L325.837 494.173L283.125 537.242L327.031 551.895L369.66 508.744Z" fill="#BA68C8"/>
<path opacity="0.2" d="M325.829 494.104L335.008 524.783L283.117 537.173L325.829 494.104Z" fill="white"/>
<path opacity="0.1" d="M326.954 551.813L283.117 537.173L335.008 524.783L325.829 494.104L369.666 508.744L326.954 551.813Z" fill="white"/>
<path d="M345.446 344.015L321.477 391.735L370.02 399.995L393.962 352.261L345.446 344.015Z" fill="#BA68C8"/>
<path opacity="0.5" d="M345.446 344.015L366.823 372.595L321.477 391.735L345.446 344.015Z" fill="white"/>
<path opacity="0.3" d="M370.02 399.995L321.477 391.735L366.823 372.595L345.446 344.015L393.962 352.261L370.02 399.995Z" fill="white"/>
<path d="M414.448 434.132L371.352 449.348L416.218 491.854L459.3 476.638L414.448 434.132Z" fill="#BA68C8"/>
<path opacity="0.5" d="M414.445 434.132L459.297 476.638L408.477 466.498L414.445 434.132Z" fill="white"/>
<path opacity="0.3" d="M414.448 434.132L408.479 466.498L459.3 476.638L416.218 491.854L371.352 449.348L414.448 434.132Z" fill="white"/>
<path d="M386.279 468.104L325.359 503.283L360.978 523.988L421.897 488.808L386.279 468.104Z" fill="#BA68C8"/>
<path opacity="0.6" d="M325.359 503.283L378.842 500.388L386.279 468.104L325.359 503.283Z" fill="white"/>
<path opacity="0.4" d="M325.359 503.283L360.978 523.988L421.897 488.808L386.279 468.104L378.842 500.388L325.359 503.283Z" fill="white"/>
<path d="M247.101 489.439L203.195 503.846L245.702 547.148L289.621 532.741L247.101 489.439Z" fill="#BA68C8"/>
<path opacity="0.5" d="M253.454 514.918L245.702 547.148L203.195 503.846L253.454 514.918Z" fill="white"/>
<path opacity="0.3" d="M247.101 489.439L289.621 532.741L245.702 547.148L203.195 503.846L245.702 547.148L253.454 514.918L203.195 503.846L247.101 489.439Z" fill="white"/>
<path d="M290.506 467.61L240.797 472.796L256.246 521.751L305.956 516.578L290.506 467.61Z" fill="#BA68C8"/>
<path opacity="0.6" d="M290.511 467.61L305.96 516.578L264.812 496.505L290.511 467.61Z" fill="white"/>
<path opacity="0.4" d="M290.506 467.61L264.808 496.505L305.956 516.578L256.246 521.751L240.797 472.796L290.506 467.61Z" fill="white"/>
<path d="M237.909 517.429L194.058 502.789L203.237 533.468L194.058 502.789L151.359 545.858L195.197 560.512L237.909 517.429Z" fill="#BA68C8"/>
<path opacity="0.6" d="M194.058 502.789L203.237 533.468L151.359 545.858L194.058 502.789Z" fill="white"/>
<path opacity="0.4" d="M195.197 560.512L151.359 545.858L203.237 533.468L194.058 502.789L237.909 517.429L195.197 560.512Z" fill="white"/>
<path d="M144.689 432.815L109.07 453.505L170.003 488.685L205.608 467.98L144.689 432.815Z" fill="#BA68C8"/>
<path opacity="0.2" d="M205.607 467.98L152.124 465.085L144.688 432.815L205.607 467.98Z" fill="white"/>
<path opacity="0.1" d="M205.608 467.98L170.003 488.685L109.07 453.505L144.689 432.815L152.125 465.085L205.608 467.98Z" fill="white"/>
<path d="M148.9 458.993L99.9453 466.155L121.253 514.383L170.208 507.221L148.9 458.993Z" fill="#BA68C8"/>
<path opacity="0.5" d="M148.901 458.993L170.209 507.221L126.742 488.863L148.901 458.993Z" fill="white"/>
<path opacity="0.3" d="M148.9 458.993L126.742 488.863L170.208 507.221L121.253 514.383L99.9453 466.155L148.9 458.993Z" fill="white"/>
<path d="M286.782 436.601L201.289 441.115L206.036 470.272L291.529 465.758L286.782 436.601Z" fill="#BA68C8"/>
<path opacity="0.6" d="M286.782 436.601L248.831 458.554L201.289 441.115L286.782 436.601Z" fill="white"/>
<path opacity="0.3" d="M286.782 436.601L291.529 465.758L206.036 470.272L201.289 441.115L248.831 458.554L286.782 436.601Z" fill="white"/>
<path opacity="0.1" d="M282.719 353.702L270.11 360.987L246.305 374.722L308.294 398.993L336.504 374.763L282.719 353.702Z" fill="black"/>
<path d="M286.983 351.273L274.36 358.545L250.555 372.279L308.291 394.905L336.5 370.674L286.983 351.273Z" fill="#BA68C8"/>
<path opacity="0.6" d="M283.072 373.665L336.5 370.674L286.982 351.273L274.359 358.545L283.072 373.665Z" fill="white"/>
<path opacity="0.4" d="M336.5 370.674L283.072 373.665L274.36 358.545L250.555 372.279L308.291 394.905L336.5 370.674Z" fill="white"/>
<path d="M547.086 266.796L548.911 235.884C549.167 231.671 548.374 227.462 546.605 223.631C544.836 219.8 542.144 216.467 538.772 213.931L527.672 205.575L529.291 271.9L547.086 266.796Z" fill="#BA68C8"/>
<path opacity="0.1" d="M547.086 266.796L548.911 235.884C549.167 231.671 548.374 227.462 546.605 223.631C544.836 219.8 542.144 216.467 538.772 213.931L527.672 205.575L529.291 271.9L547.086 266.796Z" fill="black"/>
<path opacity="0.1" d="M529.828 232.975C535.163 234.797 540.686 236.012 546.293 236.597C544.995 237.586 543.509 238.298 541.925 238.689C540.342 239.081 538.695 239.144 537.086 238.875C535.534 238.446 534.088 237.701 532.839 236.685C531.59 235.67 530.565 234.406 529.828 232.975Z" fill="black"/>
<path d="M509.283 505.739C508.378 508.579 505.249 510.212 502.272 510.445C499.287 510.446 496.313 510.068 493.422 509.32C486.837 508.127 480.484 509.32 473.925 509.156C471.77 509.171 469.62 508.936 467.518 508.456C465.399 507.968 463.482 506.837 462.03 505.218C461.212 504.233 460.667 503.05 460.452 501.788C460.323 502.743 460.398 503.714 460.669 504.638C460.941 505.562 461.405 506.419 462.03 507.152C463.486 508.763 465.402 509.888 467.518 510.377C469.62 510.857 471.77 511.092 473.925 511.076C480.484 511.227 486.837 510.047 493.422 511.241C496.311 512 499.285 512.382 502.272 512.38C505.249 512.133 508.378 510.514 509.283 507.66C509.567 506.676 509.646 505.644 509.517 504.628C509.465 505.003 509.387 505.375 509.283 505.739Z" fill="#263238"/>
<path d="M509.12 500.278L507.899 494.296C507.751 493.231 507.406 492.203 506.884 491.264C506.622 490.791 506.236 490.398 505.766 490.129C505.297 489.861 504.763 489.726 504.222 489.741C500.627 489.261 495.551 487.957 492.56 490.015C487.823 493.257 482.174 494.897 476.438 494.694C473.461 494.584 470.483 493.967 467.52 494.337C464.556 494.708 461.496 496.341 460.659 499.194C460.417 500.037 460.366 500.923 460.508 501.788C460.724 503.05 461.268 504.233 462.086 505.218C463.538 506.837 465.455 507.968 467.574 508.456C469.676 508.936 471.826 509.171 473.982 509.156C480.54 509.307 486.893 508.127 493.479 509.32C496.369 510.068 499.343 510.446 502.329 510.445C505.306 510.212 508.434 508.579 509.34 505.739C509.444 505.375 509.522 505.003 509.573 504.628C509.648 503.163 509.495 501.696 509.12 500.278Z" fill="#37474F"/>
<path d="M491.679 483.745L491.432 491.538C491.401 492.336 491.682 493.114 492.215 493.708C492.747 494.302 493.49 494.665 494.286 494.722C496.898 494.928 499.522 494.928 502.134 494.722C503.183 494.623 504.163 494.156 504.9 493.402C505.636 492.648 506.081 491.657 506.154 490.605L506.47 484.843L491.679 483.745Z" fill="#FFA8A7"/>
<path d="M542.629 479.602C542.592 480.753 542.23 481.871 541.586 482.826C540.656 483.944 539.348 484.682 537.909 484.898C536.189 485.19 534.421 484.992 532.808 484.328C531.194 483.663 529.8 482.558 528.785 481.138C527.797 479.766 527.235 478.051 526.315 476.597C524.91 474.654 523.178 472.969 521.198 471.616C519.215 470.268 517.471 468.599 516.039 466.677C515.365 465.735 514.925 464.647 514.755 463.502C514.586 462.356 514.692 461.187 515.064 460.091C514.871 460.352 514.705 460.632 514.571 460.928C514.138 462.083 513.997 463.327 514.159 464.55C514.322 465.773 514.784 466.937 515.504 467.939C516.96 469.917 518.736 471.637 520.758 473.029C522.787 474.422 524.556 476.159 525.986 478.161C526.933 479.656 527.495 481.372 528.497 482.84C529.522 484.3 530.94 485.439 532.587 486.124C534.234 486.809 536.042 487.012 537.799 486.709C539.273 486.492 540.613 485.733 541.559 484.582C542.401 483.245 542.781 481.669 542.643 480.096C542.629 479.931 542.629 479.766 542.629 479.602Z" fill="#263238"/>
<path d="M540.186 469.833C537.826 465.716 532.942 462.657 529.21 459.721C527.15 457.929 524.614 456.775 521.91 456.4C520.551 456.227 519.171 456.466 517.948 457.084C516.725 457.703 515.716 458.674 515.05 459.871C515.05 459.94 515.05 460.022 514.981 460.091C514.609 461.187 514.503 462.356 514.672 463.502C514.842 464.647 515.282 465.735 515.955 466.677C517.388 468.599 519.132 470.268 521.114 471.616C523.095 472.969 524.827 474.654 526.232 476.597C527.151 478.051 527.714 479.725 528.702 481.138C529.717 482.558 531.111 483.663 532.724 484.328C534.338 484.992 536.106 485.19 537.826 484.898C539.264 484.682 540.573 483.944 541.503 482.826C542.147 481.871 542.509 480.753 542.546 479.602C542.546 479.231 542.546 478.861 542.546 478.476C542.498 475.443 541.686 472.47 540.186 469.833Z" fill="#37474F"/>
<path d="M529.922 466.224V473.304C531.655 474.114 533.558 474.494 535.469 474.41C537.38 474.327 539.243 473.782 540.898 472.824L541.557 466.444L529.922 466.224Z" fill="#FFA8A7"/>
<path d="M543.461 337.759C545.574 344.139 542.968 374.392 541.733 403.425C546.329 414.402 546.466 445.835 543.804 467.912C543.804 467.912 534.804 470.656 526.489 467.788L519.08 406.567L517.626 372.06C517.626 372.06 515.005 402.67 512 422.318C514.827 437.411 515.129 440.525 508.145 486.805C508.145 486.805 496.812 490.221 488.319 486.05C484.367 421.042 488.963 362.209 489.691 340.901L543.461 337.759Z" fill="#455A64"/>
<path opacity="0.3" d="M518.508 393.135L517.328 364.98C524.6 364.98 531.364 359.492 536.537 354.388C531.597 363.169 522.048 367.066 522.048 367.066L518.508 393.135Z" fill="black"/>
<path d="M488.829 281.134L488.609 342.684C521.058 356.281 542.119 344.056 544.96 337.608C543.464 315.175 548.76 288.927 548.349 277.772C547.937 266.618 546.579 254.05 529.291 256.574L510.905 258.372L501.575 260.635L488.829 281.134Z" fill="#BA68C8"/>
<path d="M529.291 247.766C530.604 247.851 531.897 247.411 532.886 246.544C533.258 246.132 533.529 245.638 533.677 245.102C533.825 244.566 533.845 244.003 533.737 243.457C534.282 243.353 534.792 243.116 535.223 242.766C535.654 242.417 535.992 241.966 536.206 241.454C536.374 240.887 536.41 240.289 536.31 239.706C536.21 239.123 535.977 238.571 535.63 238.093C536.417 237.889 537.151 237.517 537.781 237.003C538.41 236.489 538.922 235.845 539.28 235.115C539.648 234.365 539.852 233.546 539.881 232.711C539.909 231.876 539.76 231.045 539.444 230.272C540.311 230.042 541.105 229.593 541.748 228.968C542.392 228.343 542.865 227.564 543.121 226.705C543.391 225.812 543.437 224.868 543.255 223.954C543.073 223.04 542.669 222.184 542.079 221.463C542.823 220.464 543.292 219.286 543.436 218.048C543.581 216.809 543.396 215.555 542.902 214.411C542.334 213.261 541.478 212.278 540.418 211.557C539.358 210.836 538.129 210.401 536.851 210.295C537.031 209.097 536.908 207.873 536.493 206.734C536.079 205.596 535.386 204.579 534.477 203.778C533.567 203.009 532.475 202.487 531.306 202.258C530.136 202.03 528.928 202.105 527.796 202.474C527.38 201.473 526.718 200.593 525.871 199.916C525.024 199.24 524.02 198.789 522.951 198.605C521.883 198.422 520.785 198.512 519.761 198.867C518.737 199.222 517.819 199.83 517.094 200.635C516.557 200.034 515.882 199.572 515.126 199.293C514.37 199.013 513.557 198.923 512.758 199.03C511.946 199.116 511.166 199.396 510.485 199.848C509.804 200.299 509.243 200.908 508.847 201.623C507.823 201.157 506.696 200.961 505.574 201.055C504.452 201.15 503.374 201.53 502.441 202.161C501.509 202.792 500.754 203.652 500.249 204.658C499.745 205.664 499.507 206.783 499.559 207.907C498.744 208.155 498.033 208.664 497.537 209.356C497.041 210.048 496.787 210.884 496.815 211.735C496.884 212.611 497.231 213.442 497.807 214.106C498.382 214.77 499.154 215.233 500.011 215.426C501.638 224.221 504.541 232.73 508.628 240.686C510.453 244.239 512.744 247.834 516.229 249.673C520.016 251.703 526.012 250.565 529.291 247.766Z" fill="#455A64"/>
<path d="M498.668 226.993L494.867 233.62L499.038 235.156L498.668 226.993Z" fill="#F28F8F"/>
<path d="M499.986 215.467C497.459 224.634 497.083 234.259 498.888 243.594C499.087 245.205 499.691 246.74 500.644 248.054C501.902 249.397 503.635 250.195 505.474 250.276C507.318 250.348 509.164 250.172 510.962 249.755V258.372C517.493 259.908 524.216 260.512 529.348 256.574V247.766C525.66 248.943 521.736 249.183 517.932 248.465C513.418 246.037 512.513 237.791 513.144 235.609C513.546 236.138 514.094 236.537 514.721 236.756C515.348 236.976 516.026 237.006 516.67 236.844C517.292 236.68 517.875 236.39 518.38 235.991C518.885 235.592 519.303 235.093 519.606 234.525C520.209 233.388 520.582 232.143 520.704 230.862C521.022 229.316 520.784 227.708 520.031 226.32C519.454 225.548 518.655 224.969 517.741 224.66C516.828 224.351 515.841 224.327 514.914 224.592C513.058 225.172 511.509 226.465 510.605 228.186C510.315 228.716 510.063 229.267 509.851 229.833C509.776 230.055 509.627 230.245 509.429 230.371C509.23 230.496 508.995 230.548 508.762 230.519C508.529 230.49 508.313 230.381 508.152 230.211C507.99 230.041 507.892 229.82 507.875 229.586C507.639 227.112 508.085 224.621 509.165 222.383C508.42 222.304 507.701 222.061 507.063 221.669C506.424 221.277 505.881 220.747 505.474 220.119C505.049 219.532 504.764 218.857 504.64 218.143C504.516 217.43 504.558 216.698 504.76 216.002C503.15 216.108 501.533 215.927 499.986 215.467Z" fill="#FFA8A7"/>
<path d="M505.196 227.775C508.196 227.869 511.182 227.326 513.956 226.182C516.73 225.037 519.23 223.316 521.29 221.134C521.583 220.828 521.769 220.435 521.818 220.014C521.868 219.593 521.779 219.167 521.565 218.801C521.429 218.576 521.247 218.381 521.032 218.229C520.817 218.078 520.572 217.973 520.314 217.921C520.056 217.87 519.789 217.872 519.532 217.929C519.275 217.987 519.033 218.097 518.821 218.253C517.06 219.63 514.969 220.519 512.756 220.832C512.907 217.635 517.339 211.406 519.616 209.156C520.339 208.626 520.869 207.874 521.126 207.016C521.161 206.733 521.129 206.446 521.031 206.179C520.933 205.912 520.773 205.671 520.563 205.479C520.365 205.281 520.121 205.134 519.853 205.053C519.585 204.971 519.301 204.958 519.026 205.012C519.295 204.903 519.522 204.711 519.675 204.465C519.828 204.218 519.898 203.93 519.877 203.64C519.825 203.344 519.694 203.066 519.499 202.837C519.304 202.608 519.05 202.435 518.766 202.337C518.491 202.218 518.194 202.157 517.894 202.157C517.595 202.157 517.298 202.218 517.023 202.337C516.98 202.085 516.867 201.849 516.698 201.658C516.528 201.466 516.308 201.326 516.063 201.253C515.573 201.089 515.043 201.089 514.553 201.253C514.051 201.426 513.568 201.652 513.113 201.925C512.837 201.535 512.436 201.252 511.977 201.122C511.517 200.992 511.027 201.024 510.588 201.212C504.812 204.148 497.883 213.56 497.828 220.036C497.898 222.004 498.687 223.877 500.044 225.303C501.402 226.729 503.234 227.608 505.196 227.775Z" fill="#FFA8A7"/>
<path d="M518.954 204.903C515.711 206.467 513.108 209.103 511.586 212.367C512.121 207.413 516.992 205.122 518.954 204.903Z" fill="#F28F8F"/>
<path d="M516.955 202.186C512.071 204.505 509.917 206.933 508.586 209.046C509.294 207.293 510.432 205.745 511.894 204.547C513.357 203.348 515.097 202.536 516.955 202.186Z" fill="#F28F8F"/>
<path d="M513.046 201.829C510.247 203.012 507.844 204.968 506.117 207.468C506.653 205.989 507.581 204.683 508.801 203.69C510.021 202.696 511.489 202.053 513.046 201.829Z" fill="#F28F8F"/>
<path d="M514.895 224.537C511.705 226.067 508.129 226.602 504.632 226.073C504.115 224.074 502.982 222.289 501.394 220.969C500.346 220.101 499.125 219.465 497.812 219.103C497.812 219.378 497.812 219.666 497.812 219.94C497.861 221.935 498.649 223.842 500.023 225.289C501.397 226.737 503.259 227.622 505.249 227.775C508.24 227.862 511.215 227.315 513.979 226.17C516.743 225.026 519.234 223.309 521.288 221.134C521.57 220.842 521.751 220.467 521.806 220.065C521.86 219.663 521.784 219.254 521.59 218.898C519.864 221.307 517.562 223.246 514.895 224.537Z" fill="#F28F8F"/>
<path opacity="0.2" d="M506.541 278.76C501.053 278.856 495.565 279.131 489.981 279.337L488.828 281.203V292.728C492.648 291.9 496.23 290.212 499.299 287.791C502.369 285.371 504.846 282.282 506.541 278.76Z" fill="black"/>
<path d="M507.076 259.291L470.414 248.904L502.699 233.482C507.391 224.893 498.789 217.58 491.489 218.637L454.156 237.077C451.415 238.336 449.093 240.354 447.466 242.894C445.839 245.433 444.975 248.386 444.977 251.402C444.976 254.456 445.862 257.445 447.528 260.005C449.194 262.565 451.568 264.586 454.361 265.822L496.895 284.674C509.696 288.968 518.642 262.57 507.076 259.291Z" fill="#BA68C8"/>
<path opacity="0.2" d="M470.414 248.904L459.945 245.927C465.361 244.825 470.914 244.562 476.41 245.145L477.947 245.31L470.414 248.904Z" fill="black"/>
<path d="M351.474 85.3007L439.876 136.314C441.421 137.2 442.697 138.49 443.566 140.046C444.397 141.525 444.837 143.192 444.842 144.889V199.181C444.842 205.822 439.203 210.322 431.78 206.041L424.728 202.021L423.287 201.198L422.972 201.02L375.718 173.579L343.379 155.097C341.868 154.232 340.611 152.984 339.737 151.479C338.862 149.973 338.4 148.263 338.398 146.522V92.1609C338.398 85.0811 347.042 82.7624 351.474 85.3007Z" fill="#BA68C8"/>
<path opacity="0.4" d="M435.608 144.505C434.969 143.228 434.067 142.101 432.96 141.198C432.585 140.893 432.186 140.617 431.767 140.375L343.338 89.4169C342.837 89.1277 342.269 88.9756 341.691 88.9757C341.113 88.9758 340.545 89.1281 340.044 89.4174C339.543 89.7066 339.128 90.1226 338.839 90.6235C338.55 91.1244 338.398 91.6925 338.398 92.2707C338.398 85.136 347.042 82.8173 351.474 85.4105L439.876 136.423C441.421 137.31 442.697 138.6 443.566 140.155L435.608 144.505Z" fill="white"/>
<path opacity="0.2" d="M436.707 203.201V148.95C436.707 148.555 436.68 148.161 436.625 147.77C436.462 146.633 436.114 145.53 435.596 144.505L443.567 140.059C444.398 141.539 444.837 143.206 444.843 144.903V199.181C444.843 205.822 439.204 210.322 431.781 206.041C432.281 206.327 432.846 206.476 433.421 206.475C433.996 206.473 434.561 206.322 435.059 206.034C435.557 205.747 435.971 205.335 436.26 204.837C436.55 204.34 436.704 203.776 436.707 203.201Z" fill="white"/>
<path d="M424.722 202.035L423.281 201.212L424.722 202.035Z" fill="#BA68C8"/>
<path d="M331.852 121.989L338.396 118.189V120.11L331.852 121.989Z" fill="#BA68C8"/>
<path opacity="0.4" d="M331.852 121.989L338.396 118.189V120.11L331.852 121.989Z" fill="white"/>
<path d="M339.562 119.78L332.221 121.825C331.942 121.899 331.688 122.048 331.487 122.255C331.285 122.462 331.143 122.72 331.076 123.001C331.008 123.282 331.018 123.576 331.104 123.852C331.189 124.128 331.348 124.376 331.563 124.569L339.192 131.635L339.562 119.78Z" fill="#BA68C8"/>
<path d="M355.641 114.635V117.187L352.595 115.445L352.581 124.294L349.769 122.675L349.796 113.812L346.75 112.056V109.504L355.641 114.635Z" fill="white"/>
<path d="M356.148 141.363L358.288 146.192L355.27 144.45L353.486 140.334L351.908 139.497V142.529L349.164 140.91V129.494L353.706 132.115C354.963 132.763 356.03 133.727 356.8 134.914C357.57 136.1 358.017 137.467 358.096 138.879C358.096 140.567 357.396 141.39 356.148 141.363ZM353.513 137.905C354.68 138.577 355.27 138.303 355.27 137.247C355.263 136.672 355.097 136.111 354.789 135.627C354.481 135.142 354.044 134.753 353.527 134.502L351.963 133.611V136.945L353.527 137.85" fill="white"/>
<path d="M361.512 117.832C363.107 118.78 364.443 120.108 365.4 121.698C366.358 123.287 366.907 125.089 367 126.943C367 130.373 364.64 131.525 361.512 129.687C359.921 128.734 358.588 127.405 357.631 125.816C356.674 124.228 356.122 122.428 356.023 120.576C356.023 117.146 358.383 115.994 361.512 117.832ZM361.512 127.025C363.007 127.889 364.256 127.272 364.256 125.31C364.245 124.351 363.997 123.411 363.532 122.572C363.067 121.734 362.401 121.024 361.594 120.508C360.085 119.629 358.85 120.247 358.85 122.209C358.856 123.172 359.104 124.118 359.571 124.959C360.039 125.801 360.711 126.511 361.525 127.025" fill="white"/>
<path d="M373.591 124.761C375.183 125.712 376.517 127.041 377.475 128.63C378.432 130.219 378.983 132.019 379.079 133.871C379.079 137.302 376.719 138.454 373.591 136.616C371.996 135.663 370.661 134.332 369.704 132.741C368.746 131.149 368.196 129.346 368.103 127.491C368.048 124.075 370.408 122.922 373.591 124.761ZM373.591 133.954C375.086 134.832 376.335 134.201 376.335 132.239C376.327 131.28 376.079 130.338 375.614 129.499C375.149 128.661 374.482 127.951 373.673 127.436C372.164 126.572 370.929 127.176 370.929 129.138C370.936 130.1 371.185 131.046 371.652 131.887C372.12 132.729 372.791 133.439 373.604 133.954" fill="white"/>
<path d="M390.448 153.327V159.652C390.448 163.069 388.719 163.974 385.769 162.287C384.341 161.494 383.155 160.329 382.336 158.915C381.517 157.502 381.096 155.893 381.118 154.26V147.935L383.931 149.568V155.783C383.849 156.536 383.982 157.296 384.315 157.976C384.648 158.656 385.166 159.227 385.81 159.625C386.977 160.297 387.676 159.913 387.69 157.951V151.736L390.448 153.327Z" fill="white"/>
<path d="M396.225 138.07V149.499L393.631 148.004V141.939L391.066 145.397L389.803 144.669L387.293 138.44L387.265 144.326L384.672 142.831L384.699 131.415L387.018 132.746L390.489 141.349L393.92 136.725L396.225 138.07Z" fill="white"/>
<path d="M400.141 158.925V161.422L395.133 158.541V160.462L399.537 163V165.429L395.133 162.877L395.119 164.962L400.306 167.953L400.292 170.45L392.32 165.84L392.361 154.425L400.141 158.925Z" fill="white"/>
<path d="M404.213 142.68L408.576 156.647L405.654 154.946L404.872 152.271L400.687 149.787L399.891 151.557L397.023 149.911L401.441 141.02L404.213 142.68ZM401.469 147.935L404.021 149.417L402.759 145.026L401.469 147.935Z" fill="white"/>
<path d="M405.762 161.957C407.143 162.753 408.366 163.794 409.371 165.031L408.506 166.924C407.738 165.952 406.81 165.117 405.762 164.454C404.582 163.768 404.157 163.974 404.157 164.551C404.157 166.293 409.782 168.241 409.769 172.454C409.769 174.443 408.314 175.307 405.364 173.592C403.745 172.654 402.324 171.41 401.18 169.929L402.113 168.09C403.014 169.287 404.125 170.31 405.392 171.109C406.558 171.768 407.011 171.658 407.011 171.109C407.011 169.298 401.358 167.35 401.372 163.11C401.303 161.079 402.812 160.256 405.762 161.957Z" fill="white"/>
<path d="M418.87 151.132L418.828 162.547L416.51 161.203L412.147 152.6L412.133 158.678L409.375 157.087L409.416 145.671L411.721 147.002L416.084 155.618L416.112 149.54L418.87 151.132Z" fill="white"/>
<path d="M429.978 157.553L426.137 162.671V166.76L423.324 165.14L423.338 160.997L419.578 151.543L422.528 153.258L424.888 159.145L427.248 155.975L429.978 157.553Z" fill="white"/>
<path d="M367.453 140.059L367.44 142.543L362.446 139.661L362.432 141.582L366.836 144.121V146.549L362.432 143.997L362.418 146.083L367.618 149.087L367.604 151.571L359.633 146.975L359.66 135.559L367.453 140.059Z" fill="white"/>
<path d="M378.982 157.8L380.189 160.16C379.771 160.419 379.282 160.542 378.791 160.512C378.3 160.483 377.83 160.302 377.445 159.995C375.826 159.062 374.77 157.8 373.109 154.864C371.813 153.869 370.748 152.604 369.99 151.156C369.232 149.709 368.798 148.113 368.719 146.481C368.719 143.05 371.065 141.898 374.207 143.736C375.801 144.69 377.135 146.021 378.092 147.612C379.05 149.203 379.6 151.006 379.695 152.861C379.695 155.454 378.323 156.744 376.306 156.414C376.552 156.976 376.958 157.453 377.472 157.786C377.695 157.936 377.957 158.017 378.225 158.019C378.493 158.022 378.756 157.946 378.982 157.8ZM374.18 152.915C375.675 153.78 376.924 153.176 376.924 151.214C376.915 150.252 376.666 149.307 376.199 148.466C375.731 147.625 375.061 146.914 374.248 146.398C372.753 145.534 371.504 146.138 371.504 148.113C371.522 149.08 371.783 150.026 372.262 150.865C372.742 151.704 373.425 152.409 374.248 152.915" fill="white"/>
<path d="M418.897 169.751L418.883 172.303L415.851 170.56L415.823 179.41L413.024 177.791L413.038 168.941L409.992 167.171L410.006 164.619L418.897 169.751Z" fill="white"/>
<path d="M423.793 172.358C425.165 173.165 426.386 174.205 427.402 175.431L426.524 177.338C425.752 176.365 424.825 175.526 423.78 174.855C422.6 174.182 422.174 174.388 422.174 174.964C422.174 176.707 427.8 178.655 427.8 182.867C427.8 184.843 426.332 185.708 423.382 184.006C421.787 183.056 420.389 181.807 419.266 180.329L420.199 178.491C421.092 179.694 422.205 180.718 423.478 181.509C424.63 182.181 425.097 182.058 425.097 181.509C425.097 179.698 419.444 177.763 419.458 173.51C419.389 171.479 420.844 170.656 423.793 172.358Z" fill="white"/>
<path d="M129.491 214.139L129.491 196.685L135.159 193.412C136.321 192.741 137.295 192.429 138.082 192.474C138.875 192.517 139.472 192.859 139.876 193.501C140.284 194.135 140.488 195.006 140.488 196.114C140.488 197.233 140.284 198.345 139.876 199.45C139.467 200.555 138.865 201.588 138.068 202.548C137.27 203.503 136.289 204.317 135.123 204.99L131.366 207.159L131.366 204.56L134.754 202.604C135.433 202.212 135.989 201.754 136.422 201.232C136.855 200.709 137.174 200.149 137.381 199.553C137.593 198.953 137.699 198.344 137.699 197.724C137.699 197.105 137.593 196.621 137.381 196.271C137.174 195.919 136.852 195.739 136.414 195.73C135.981 195.713 135.423 195.902 134.739 196.297L132.229 197.746L132.229 212.558L129.491 214.139ZM145.808 204.983C145.09 205.397 144.443 205.623 143.867 205.66C143.296 205.689 142.844 205.507 142.509 205.115C142.179 204.72 142.014 204.093 142.014 203.235C142.014 202.497 142.133 201.818 142.369 201.199C142.605 200.579 142.927 200.007 143.336 199.481C143.744 198.956 144.204 198.471 144.716 198.028C145.233 197.576 145.766 197.157 146.318 196.771C146.982 196.308 147.521 195.926 147.934 195.625C148.347 195.318 148.647 195.042 148.834 194.798C149.026 194.545 149.122 194.271 149.122 193.975L149.122 193.924C149.122 193.282 148.957 192.88 148.628 192.718C148.298 192.556 147.823 192.654 147.203 193.012C146.549 193.39 146.03 193.855 145.646 194.406C145.267 194.954 145.011 195.491 144.878 196.017L142.384 197.048C142.58 196.139 142.905 195.287 143.358 194.491C143.81 193.69 144.364 192.967 145.019 192.322C145.673 191.672 146.396 191.118 147.188 190.66C147.735 190.345 148.278 190.105 148.82 189.94C149.361 189.775 149.855 189.734 150.303 189.816C150.751 189.893 151.11 190.143 151.381 190.566C151.656 190.987 151.794 191.632 151.794 192.501L151.794 201.262L149.226 202.745L149.226 200.947L149.137 200.998C148.975 201.456 148.746 201.929 148.451 202.417C148.16 202.897 147.794 203.362 147.351 203.811C146.913 204.251 146.399 204.642 145.808 204.983ZM146.502 202.315C147.038 202.005 147.503 201.615 147.897 201.143C148.291 200.666 148.593 200.162 148.805 199.63C149.021 199.096 149.13 198.588 149.13 198.105L149.13 196.562C149.046 196.69 148.903 196.846 148.702 197.031C148.505 197.213 148.283 197.4 148.037 197.593C147.791 197.787 147.548 197.973 147.307 198.152C147.065 198.331 146.856 198.485 146.679 198.616C146.281 198.909 145.924 199.217 145.609 199.541C145.294 199.865 145.046 200.207 144.864 200.568C144.681 200.923 144.59 201.299 144.59 201.697C144.59 202.265 144.77 202.591 145.129 202.673C145.488 202.755 145.946 202.636 146.502 202.315ZM159.411 202.047C158.452 202.6 157.628 202.926 156.939 203.022C156.25 203.125 155.696 203.047 155.278 202.788C154.86 202.529 154.569 202.143 154.407 201.629L156.813 199.566C156.921 199.76 157.079 199.922 157.286 200.052C157.492 200.189 157.77 200.238 158.12 200.201C158.474 200.167 158.919 199.995 159.456 199.686C160.213 199.248 160.841 198.673 161.338 197.96C161.835 197.252 162.083 196.416 162.083 195.45L162.083 192.97L161.95 193.047C161.813 193.444 161.611 193.887 161.345 194.376C161.084 194.862 160.737 195.343 160.304 195.821C159.876 196.295 159.337 196.72 158.688 197.095C157.817 197.598 157.027 197.818 156.319 197.755C155.615 197.684 155.054 197.298 154.636 196.596C154.222 195.886 154.016 194.818 154.016 193.392C154.016 191.954 154.222 190.622 154.636 189.395C155.054 188.159 155.617 187.081 156.326 186.16C157.035 185.234 157.824 184.52 158.695 184.017C159.36 183.633 159.906 183.449 160.334 183.463C160.767 183.468 161.111 183.579 161.367 183.795C161.623 184.005 161.817 184.231 161.95 184.473L162.098 184.387L162.098 182.223L164.733 180.701L164.733 194.005C164.733 195.125 164.502 196.184 164.039 197.184C163.577 198.184 162.944 199.098 162.142 199.924C161.34 200.751 160.43 201.458 159.411 202.047ZM159.433 194.244C159.999 193.917 160.481 193.48 160.88 192.931C161.279 192.383 161.581 191.751 161.788 191.035C161.995 190.319 162.098 189.544 162.098 188.708C162.098 187.885 161.995 187.223 161.788 186.723C161.586 186.22 161.286 185.913 160.887 185.802C160.494 185.683 160.009 185.789 159.433 186.122C158.838 186.466 158.341 186.931 157.942 187.52C157.544 188.108 157.244 188.772 157.042 189.514C156.84 190.25 156.739 191.012 156.739 191.802C156.739 192.603 156.84 193.247 157.042 193.733C157.249 194.21 157.551 194.501 157.95 194.606C158.353 194.703 158.848 194.582 159.433 194.244ZM172.49 189.569C171.354 190.225 170.372 190.52 169.545 190.451C168.723 190.375 168.091 189.961 167.648 189.211C167.205 188.456 166.984 187.393 166.984 186.024C166.984 184.677 167.205 183.368 167.648 182.095C168.096 180.814 168.721 179.657 169.523 178.626C170.325 177.589 171.267 176.758 172.35 176.133C173.049 175.73 173.708 175.48 174.328 175.383C174.953 175.278 175.504 175.358 175.981 175.622C176.464 175.883 176.842 176.352 177.118 177.028C177.394 177.699 177.531 178.608 177.531 179.755L177.531 180.701L168.239 186.066L168.239 183.987L174.97 180.1C174.965 179.512 174.855 179.051 174.638 178.716C174.422 178.375 174.119 178.183 173.73 178.14C173.346 178.095 172.899 178.22 172.387 178.515C171.841 178.831 171.361 179.261 170.948 179.806C170.534 180.346 170.212 180.93 169.981 181.558C169.754 182.177 169.639 182.781 169.634 183.369L169.634 185.184C169.634 185.946 169.754 186.529 169.995 186.936C170.237 187.336 170.574 187.556 171.007 187.596C171.44 187.63 171.946 187.48 172.527 187.145C172.916 186.92 173.268 186.654 173.583 186.348C173.898 186.035 174.171 185.687 174.402 185.304C174.633 184.92 174.808 184.51 174.926 184.072L177.421 182.956C177.263 183.808 176.963 184.646 176.52 185.47C176.082 186.285 175.521 187.047 174.837 187.754C174.153 188.456 173.371 189.061 172.49 189.569ZM197.487 157.427L197.487 174.881L195.052 176.288L187.929 168.511L187.804 168.583L187.804 180.472L185.065 182.053L185.065 164.599L187.516 163.184L194.631 170.974L194.764 170.897L194.764 158.999L197.487 157.427ZM205.298 170.627C204.191 171.267 203.232 171.539 202.42 171.446C201.608 171.352 200.978 170.929 200.53 170.176C200.087 169.42 199.866 168.366 199.866 167.014C199.866 165.662 200.087 164.349 200.53 163.076C200.978 161.801 201.608 160.647 202.42 159.616C203.232 158.585 204.191 157.75 205.298 157.11C206.405 156.471 207.365 156.199 208.177 156.292C208.989 156.386 209.616 156.814 210.059 157.575C210.507 158.333 210.731 159.389 210.731 160.741C210.731 162.093 210.507 163.404 210.059 164.674C209.616 165.941 208.989 167.091 208.177 168.122C207.365 169.153 206.405 169.988 205.298 170.627ZM205.313 168.147C205.913 167.801 206.415 167.321 206.819 166.707C207.222 166.088 207.522 165.397 207.719 164.636C207.921 163.872 208.022 163.092 208.022 162.297C208.022 161.495 207.921 160.829 207.719 160.298C207.522 159.758 207.222 159.412 206.819 159.258C206.415 159.105 205.913 159.201 205.313 159.548C204.698 159.903 204.186 160.392 203.778 161.014C203.374 161.633 203.072 162.328 202.87 163.098C202.673 163.859 202.575 164.64 202.575 165.441C202.575 166.237 202.673 166.902 202.87 167.436C203.072 167.967 203.374 168.309 203.778 168.463C204.186 168.608 204.698 168.502 205.313 168.147ZM218.66 149.567L218.66 151.953L212.142 155.716L212.142 153.33L218.66 149.567ZM213.751 149.264L216.423 147.722L216.423 160.011C216.423 160.426 216.477 160.713 216.586 160.872C216.699 161.023 216.846 161.085 217.028 161.06C217.21 161.034 217.412 160.957 217.634 160.83C217.801 160.733 217.953 160.631 218.091 160.523C218.234 160.412 218.342 160.324 218.416 160.259L218.866 162.411C218.724 162.55 218.519 162.73 218.254 162.952C217.993 163.17 217.673 163.395 217.294 163.625C216.625 164.034 216.022 164.266 215.486 164.32C214.949 164.368 214.524 164.21 214.209 163.847C213.899 163.48 213.746 162.886 213.751 162.065L213.751 149.264ZM226.168 158.323L226.168 140.868L235.852 135.277L235.852 137.928L228.906 141.938L228.906 146.676L235.187 143.05L235.187 145.701L228.906 149.327L228.906 156.742L226.168 158.323ZM242.341 149.241C241.234 149.88 240.275 150.153 239.463 150.059C238.651 149.965 238.021 149.542 237.573 148.789C237.13 148.033 236.909 146.979 236.909 145.627C236.909 144.275 237.13 142.962 237.573 141.69C238.021 140.414 238.651 139.261 239.463 138.229C240.275 137.198 241.234 136.363 242.341 135.724C243.448 135.085 244.408 134.812 245.22 134.906C246.032 134.999 246.659 135.427 247.102 136.188C247.55 136.947 247.774 138.002 247.774 139.354C247.774 140.707 247.55 142.018 247.102 143.288C246.659 144.555 246.032 145.704 245.22 146.735C244.408 147.766 243.448 148.602 242.341 149.241ZM242.356 146.761C242.956 146.414 243.458 145.934 243.862 145.32C244.265 144.701 244.565 144.011 244.762 143.249C244.964 142.485 245.065 141.705 245.065 140.91C245.065 140.109 244.964 139.442 244.762 138.911C244.565 138.371 244.265 138.025 243.862 137.871C243.458 137.718 242.956 137.815 242.356 138.161C241.741 138.516 241.229 139.005 240.821 139.627C240.417 140.246 240.115 140.941 239.913 141.711C239.716 142.472 239.618 143.254 239.618 144.055C239.618 144.85 239.716 145.515 239.913 146.049C240.115 146.58 240.417 146.923 240.821 147.076C241.229 147.221 241.741 147.116 242.356 146.761ZM257.267 134.862L257.267 127.277L259.939 125.734L259.939 138.825L257.348 140.321L257.348 137.994L257.23 138.062C256.974 138.943 256.554 139.785 255.968 140.589C255.388 141.39 254.672 142.037 253.82 142.528C253.077 142.957 252.42 143.146 251.85 143.095C251.284 143.035 250.841 142.731 250.521 142.183C250.201 141.629 250.041 140.829 250.041 139.784L250.041 131.449L252.713 129.906L252.713 137.764C252.713 138.593 252.91 139.139 253.304 139.4C253.697 139.662 254.214 139.608 254.854 139.238C255.247 139.011 255.629 138.68 255.998 138.245C256.367 137.811 256.669 137.306 256.906 136.733C257.147 136.15 257.267 135.527 257.267 134.862ZM265.359 128.026L265.359 135.696L262.687 137.239L262.687 124.148L265.24 122.673L265.24 124.898L265.373 124.821C265.634 123.937 266.05 123.115 266.621 122.354C267.196 121.589 267.907 120.963 268.754 120.474C269.536 120.023 270.218 119.822 270.798 119.874C271.384 119.922 271.836 120.22 272.156 120.768C272.481 121.314 272.641 122.111 272.636 123.159L272.636 131.494L269.964 133.037L269.964 125.179C269.964 124.304 269.767 123.733 269.374 123.466C268.985 123.196 268.446 123.26 267.757 123.658C267.29 123.928 266.874 124.287 266.51 124.736C266.151 125.176 265.868 125.678 265.661 126.24C265.459 126.8 265.359 127.395 265.359 128.026ZM279.559 127.727C278.669 128.241 277.872 128.437 277.168 128.315C276.464 128.193 275.908 127.747 275.5 126.977C275.091 126.207 274.887 125.104 274.887 123.666C274.887 122.212 275.094 120.865 275.507 119.626C275.926 118.379 276.489 117.295 277.197 116.375C277.906 115.449 278.696 114.734 279.567 114.232C280.231 113.848 280.777 113.663 281.205 113.678C281.633 113.686 281.973 113.8 282.224 114.018C282.475 114.232 282.669 114.457 282.807 114.696L282.918 114.632L282.918 108.104L285.597 106.557L285.597 124.011L282.969 125.528L282.969 123.466L282.807 123.56C282.669 123.957 282.47 124.411 282.209 124.919C281.948 125.422 281.604 125.922 281.176 126.419C280.748 126.916 280.209 127.352 279.559 127.727ZM280.305 124.766C280.871 124.439 281.353 123.984 281.751 123.402C282.15 122.814 282.453 122.142 282.659 121.386C282.866 120.631 282.969 119.83 282.969 118.983C282.969 118.136 282.866 117.46 282.659 116.955C282.458 116.446 282.157 116.134 281.759 116.017C281.365 115.898 280.881 116.004 280.305 116.337C279.709 116.68 279.212 117.146 278.814 117.734C278.415 118.322 278.115 118.99 277.913 119.737C277.712 120.484 277.611 121.264 277.611 122.077C277.611 122.895 277.712 123.567 277.913 124.092C278.12 124.609 278.423 124.937 278.821 125.077C279.225 125.207 279.719 125.104 280.305 124.766Z" fill="#A2ACB2"/>
</svg>
