<svg width="238" height="220" viewBox="0 0 238 220" fill="none" xmlns="http://www.w3.org/2000/svg">
<path d="M132.98 58.2227L122.412 59.0697C121.473 62.4416 121.202 66.7206 121.117 69.005L127.981 70.1362L136.078 74.4754C137.391 70.2797 139.456 66.3396 142.179 62.8351L132.98 58.2227Z" fill="#34251E"/>
<path opacity="0.22" d="M109.186 58.2227L94.7624 72.1637C93.6855 73.2072 92.8707 74.4755 92.3806 75.871C91.8904 77.2666 91.7381 78.7522 91.9352 80.2136L91.9861 80.618C103.719 78.8747 113.269 64.7369 116.786 58.8293L109.186 58.2227Z" fill="#ECEDEE"/>
<path d="M109.189 22.1367C109.189 22.1367 105.095 23.7762 102.885 28.7876C100.674 33.7989 97.2812 44.3627 97.2812 44.3627L109.189 39.9415V22.1367Z" fill="#D18E86"/>
<path d="M121.069 17.6289L109.195 22.1375V58.2062C109.195 58.2062 113.329 59.1571 121.069 59.1571C128.81 59.1571 132.943 58.2062 132.943 58.2062V22.1375L121.069 17.6289Z" fill="#1F9874"/>
<path d="M109.182 22.1367C109.182 22.1367 105.088 23.7762 102.877 28.7876C102.21 30.2959 101.43 32.3179 100.672 34.4001C102.934 34.8919 106.473 35.9193 109.153 37.8648L109.182 22.1367Z" fill="#187757"/>
<g style="mix-blend-mode:multiply">
<path d="M122.125 24.7656L109.188 50.3908V39.8543L122.125 24.7656Z" fill="#1F9874"/>
</g>
<g style="mix-blend-mode:multiply">
<path d="M129.029 32C129.029 32 129.753 47.6625 129.029 51.2257C128.305 54.7888 126.117 59.4231 126.117 64.1394C126.117 68.8556 132.97 54.6577 132.97 54.6577V40.3832L129.029 32Z" fill="#1F9874"/>
</g>
<path d="M132.976 22.1367H133.032C134.857 22.9289 136.445 24.1539 137.649 25.6978C138.853 27.2417 139.634 29.0545 139.919 30.9681L142.633 49.7511C142.975 52.1235 142.355 54.5317 140.903 56.473L134.452 65.1076V73.4089C134.45 73.6578 134.39 73.9031 134.276 74.1263C134.162 74.3494 133.996 74.5445 133.793 74.6967C133.589 74.8489 133.352 74.9543 133.1 75.0048C132.847 75.0553 132.587 75.0496 132.337 74.9882C129.866 74.3707 126.117 73.0755 126.117 70.9278V64.1567C126.115 62.3101 126.639 60.4985 127.633 58.9213L132.97 50.4124L129.159 33.318C129.159 33.318 127.695 23.7981 132.976 22.1367Z" fill="#F7A89C"/>
<path d="M140.971 38.2544L139.919 30.9915C139.634 29.078 138.853 27.2651 137.649 25.7212C136.445 24.1773 134.857 22.9524 133.032 22.1602H132.976C127.694 23.7996 129.165 33.3196 129.165 33.3196L130.493 39.3529C133.846 38.1887 137.438 37.8122 140.971 38.2544Z" fill="#49BD97"/>
<path d="M121.11 21.3364H121.054C120.682 21.3364 120.315 21.2657 119.972 21.1284C119.629 20.991 119.317 20.7898 119.055 20.536C118.792 20.2823 118.584 19.9811 118.442 19.6496C118.3 19.318 118.227 18.9627 118.227 18.6039V14.0898H123.915V18.6148C123.912 19.3339 123.616 20.0228 123.091 20.5322C122.566 21.0417 121.854 21.3306 121.11 21.3364Z" fill="#F7A89C"/>
<path d="M125.151 10.3059C125.647 9.64528 125.898 8.84242 125.864 8.02698C125.864 6.54598 126.18 3.49107 123.919 2.21774C121.657 0.944402 117.134 -1.00112 117.835 0.611041C118.536 2.2232 118.016 2.01007 116.478 1.96635C114.94 1.92263 115.251 7.04328 116.478 9.07078C117.705 11.0983 125.151 10.3059 125.151 10.3059Z" fill="#4D3529"/>
<path d="M118.229 10.5099C118.202 10.7645 118.099 11.0059 117.932 11.2049C117.766 11.4038 117.543 11.5519 117.291 11.631C117.04 11.7101 116.769 11.717 116.514 11.6506C116.258 11.5843 116.028 11.4477 115.851 11.2574C115.674 11.0671 115.558 10.8312 115.517 10.5784C115.475 10.3256 115.511 10.0667 115.619 9.83311C115.727 9.59953 115.903 9.40128 116.126 9.26242C116.348 9.12356 116.608 9.05004 116.872 9.05079C117.252 9.07196 117.607 9.23716 117.862 9.51043C118.116 9.7837 118.248 10.1429 118.229 10.5099Z" fill="#F7A89C"/>
<path d="M123.916 10.5099C123.943 10.7645 124.046 11.0059 124.213 11.2049C124.379 11.4038 124.602 11.5519 124.853 11.631C125.105 11.7101 125.375 11.717 125.631 11.6506C125.887 11.5843 126.117 11.4477 126.294 11.2574C126.471 11.0671 126.587 10.8312 126.628 10.5784C126.669 10.3256 126.634 10.0667 126.526 9.83311C126.417 9.59953 126.241 9.40128 126.019 9.26242C125.797 9.12356 125.537 9.05004 125.273 9.05079C124.894 9.07336 124.539 9.23896 124.285 9.51191C124.031 9.78486 123.898 10.1433 123.916 10.5099Z" fill="#F7A89C"/>
<path d="M121.111 16.4391H121.032C119.962 16.4391 118.937 16.0286 118.181 15.2979C117.425 14.5671 117 13.576 117 12.5426V7.01209C116.999 6.63988 117.074 6.27118 117.221 5.92709C117.368 5.58301 117.584 5.2703 117.856 5.00685C118.128 4.7434 118.451 4.5344 118.807 4.39179C119.163 4.24919 119.544 4.17578 119.929 4.17578H122.191C122.969 4.17578 123.715 4.47461 124.266 5.00652C124.816 5.53843 125.125 6.25986 125.125 7.01209V12.5426C125.124 13.5728 124.701 14.5605 123.949 15.2905C123.197 16.0205 122.177 16.4334 121.111 16.4391Z" fill="#F7A89C"/>
<path d="M118.227 14.0898V18.6148C118.227 18.6913 118.227 18.7624 118.227 18.8389C121.919 18.8389 123.881 15.3359 123.881 15.3359L120.737 14.0898H118.227Z" fill="#983533"/>
<path d="M119.546 8.83556C119.546 9.13613 119.41 9.38205 119.241 9.38205C119.071 9.38205 118.93 9.13066 118.93 8.83556C118.93 8.54045 119.071 8.28906 119.241 8.28906C119.41 8.28906 119.546 8.52952 119.546 8.83556Z" fill="#4D3529"/>
<path d="M120.025 7.00698C119.743 6.87891 119.436 6.8125 119.126 6.8125C118.815 6.8125 118.508 6.87891 118.227 7.00698" stroke="#4D3529" stroke-width="2.03502" stroke-miterlimit="10" stroke-linecap="round"/>
<path d="M122.915 9.38517C123.083 9.38517 123.22 9.13805 123.22 8.83321C123.22 8.52837 123.083 8.28125 122.915 8.28125C122.746 8.28125 122.609 8.52837 122.609 8.83321C122.609 9.13805 122.746 9.38517 122.915 9.38517Z" fill="#4D3529"/>
<path d="M122.133 7.00698C122.414 6.87891 122.721 6.8125 123.032 6.8125C123.343 6.8125 123.65 6.87891 123.931 7.00698" stroke="#4D3529" stroke-width="2.03502" stroke-miterlimit="10" stroke-linecap="round"/>
<path d="M122.918 11.8488C121.086 11.5701 121.821 11.5701 121.086 11.5701C120.351 11.5701 121.086 11.5701 119.254 11.8488C117.422 12.1275 116.992 9.05078 116.992 9.05078V12.5429C116.992 13.5763 117.417 14.5674 118.173 15.2981C118.929 16.0289 119.954 16.4394 121.024 16.4394H121.103C122.173 16.4394 123.199 16.029 123.956 15.2985C124.713 14.5679 125.139 13.5768 125.14 12.5429V9.05078C125.14 9.05078 124.756 12.1221 122.918 11.8488Z" fill="#4D3529"/>
<path d="M97.627 43.8062L119.47 14.5195C119.535 14.4326 119.618 14.3599 119.714 14.3062C119.81 14.2524 119.917 14.2187 120.027 14.2074C120.137 14.1961 120.249 14.2073 120.355 14.2403C120.46 14.2734 120.557 14.3276 120.64 14.3993C120.766 14.5073 120.853 14.6514 120.889 14.8106C120.925 14.9698 120.907 15.1359 120.838 15.2846L119.475 18.2521L120.742 19.3451C121.661 20.1293 122.257 21.208 122.419 22.3828C122.581 23.5576 122.299 24.7494 121.624 25.739L105.611 49.14C105.238 49.6852 104.751 50.1481 104.18 50.4984C103.609 50.8486 102.968 51.0782 102.299 51.1721C101.63 51.2661 100.948 51.2222 100.298 51.0434C99.6475 50.8645 99.0437 50.5548 98.5261 50.1346L98.4469 50.0745C97.5175 49.3222 96.9166 48.2582 96.7645 47.0958C96.6125 45.9334 96.9206 44.7583 97.627 43.8062Z" fill="#F7A89C"/>
<g style="mix-blend-mode:overlay" opacity="0.41">
<path d="M126.632 10.5067C126.64 10.214 126.557 9.92573 126.392 9.67987C126.228 9.43401 125.99 9.24213 125.71 9.12954C125.808 8.77289 125.857 8.40549 125.857 8.03655C125.857 6.55555 126.174 3.50065 123.912 2.22731L123.822 2.18359C123.78 2.94573 123.572 3.6907 123.211 4.36957C122.764 5.56093 121.079 13.3867 123.211 15.8952C123.806 15.5488 124.298 15.06 124.639 14.476C124.981 13.8919 125.161 13.2325 125.162 12.5615V11.9549H125.286C125.661 11.9296 126.011 11.7644 126.262 11.4941C126.513 11.2238 126.646 10.8697 126.632 10.5067Z" fill="white"/>
</g>
<g style="mix-blend-mode:overlay" opacity="0.41">
<path d="M120.736 19.3125C120.736 19.3125 106.091 37.4507 106.798 47.3805L121.618 25.7065C122.293 24.7168 122.575 23.525 122.413 22.3502C122.251 21.1754 121.655 20.0967 120.736 19.3125Z" fill="white"/>
</g>
<path d="M122.724 38.4019C120.909 42.2274 113.179 49.1788 109.188 52.6108V58.2123C122.645 54.5563 125.206 33.1993 122.724 38.4019Z" fill="#49BD97"/>
<path d="M39.0411 219.065C60.4822 219.065 77.8635 218.128 77.8635 216.972C77.8635 215.816 60.4822 214.879 39.0411 214.879C17.6001 214.879 0.21875 215.816 0.21875 216.972C0.21875 218.128 17.6001 219.065 39.0411 219.065Z" fill="#F3414E"/>
<path d="M55.5757 141.551V213.513H37.188L39.1839 159.268L32.3196 213.513H13.9375L28.0732 141.551H55.5757Z" fill="#EB6823"/>
<path d="M44.8579 94.0469L55.5728 98.632V141.548H28.0703L32.4411 96.3312L44.8579 94.0469Z" fill="white"/>
<path d="M38.8197 80.9084C38.765 80.1182 39.0216 79.3373 39.5378 78.7224C40.369 77.8753 43.7842 76.5091 46.9619 78.3453C50.1396 80.1815 51.7455 82.9249 50.2301 88.1822C48.9636 91.6251 46.8941 92.5542 46.8941 92.5542L42.6251 86.7449L38.8197 80.9084Z" fill="#C73C27"/>
<path d="M42.4332 103.5L36.106 126.119C35.684 127.631 34.9177 129.033 33.8631 130.221C32.8084 131.41 31.4922 132.355 30.0107 132.989L28.8516 133.481L31.1133 110.031L42.4332 103.5Z" fill="#A4A4A4"/>
<path d="M55.5815 129.496C55.5815 129.496 47.3828 130.157 47.3828 141.552H55.5815V129.496Z" fill="#A4A4A4"/>
<path d="M38.8602 80.6914C38.8602 80.6914 37.8028 86.4952 37.8877 90.3261C37.8943 90.5736 37.9967 90.8097 38.1746 90.9878C38.3526 91.1659 38.5932 91.273 38.8489 91.2879L42.4167 91.5284L41.7552 95.2992C41.7033 95.5941 41.7187 95.8964 41.8003 96.1849C41.8818 96.4735 42.0276 96.7414 42.2273 96.9698C42.4271 97.1983 42.6761 97.3819 42.9569 97.5077C43.2376 97.6335 43.5434 97.6986 43.8529 97.6983H44.4862C45.0187 97.6976 45.5317 97.5042 45.9241 97.1563C46.3165 96.8084 46.56 96.3311 46.6066 95.8184L47.3756 87.1783C47.3756 87.1783 39.6348 84.2054 38.8602 80.6914Z" fill="#F7A89C"/>
<path d="M47.1593 88.8819C48.1836 88.8819 49.0139 88.0793 49.0139 87.0894C49.0139 86.0994 48.1836 85.2969 47.1593 85.2969C46.135 85.2969 45.3047 86.0994 45.3047 87.0894C45.3047 88.0793 46.135 88.8819 47.1593 88.8819Z" fill="#F7A89C"/>
<path d="M40.027 85.9537C39.9818 86.462 39.7896 86.8609 39.5973 86.8445C39.4051 86.8281 39.2976 86.4019 39.3485 85.8936C39.3994 85.3854 39.586 84.9919 39.7726 85.0083C39.9592 85.0247 40.0779 85.4674 40.027 85.9537Z" fill="#C73C27"/>
<path d="M39.3359 84.0671C39.5766 84.0277 39.8236 84.046 40.0552 84.1203C40.2869 84.1946 40.4962 84.3227 40.6647 84.4934" stroke="#C73C27" stroke-width="2.68354" stroke-miterlimit="10" stroke-linecap="round"/>
<path d="M42.4212 91.5312H44.4341C44.4341 91.5312 43.145 95.2857 41.7031 95.6464L42.4212 91.5312Z" fill="#4D3529"/>
<path d="M55.5768 98.6367L57.8385 99.7297C61.0099 101.233 63.5323 103.767 64.9629 106.889L73.9532 126.492C74.361 127.38 74.5786 128.339 74.593 129.31C74.6073 130.282 74.4181 131.246 74.0367 132.145C73.6553 133.045 73.0896 133.86 72.3737 134.542C71.6577 135.224 70.8064 135.759 69.8708 136.115L55.5711 141.58H53.4507C53.06 141.581 52.6729 141.507 52.3117 141.363C51.9505 141.219 51.6224 141.007 51.346 140.74C51.0697 140.473 50.8507 140.156 50.7015 139.807C50.5523 139.458 50.4758 139.083 50.4766 138.706V134.05C50.4749 133.467 50.6569 132.897 50.9983 132.417C51.3397 131.937 51.8243 131.568 52.3877 131.361L61.6268 127.945L54.2763 112.643C54.2763 112.643 52.0541 99.8882 55.5768 98.6367Z" fill="#F7A89C"/>
<path d="M37.197 213.513C37.197 213.513 35.5346 213.262 34.7656 216.246H55.5734V213.513H37.197Z" fill="#4D3529"/>
<path d="M64.9453 106.861C63.5147 103.74 60.9923 101.205 57.8209 99.7024L55.5592 98.6094C52.0366 99.8608 54.2474 112.572 54.2474 112.572L56.7975 117.873C59.5059 116.288 63.6731 114.288 68.1061 113.764L64.9453 106.861Z" fill="#CFCFD0"/>
<path d="M68.1172 131.369C68.1172 132.244 68.3419 133.104 68.7712 133.874C69.2005 134.644 69.821 135.299 70.5768 135.779C72.2565 134.936 73.5416 133.507 74.1716 131.782C74.8015 130.057 74.7293 128.164 73.9694 126.489L73.7998 126.117H73.6075C72.1593 126.111 70.7679 126.661 69.7386 127.646C68.7093 128.63 68.1262 129.969 68.1172 131.369Z" fill="#EF7D6E"/>
<g style="mix-blend-mode:overlay" opacity="0.41">
<path d="M55.5717 141.551H49.1484V213.513H55.5717V141.551Z" fill="white"/>
</g>
<g style="mix-blend-mode:multiply">
<path d="M39.1487 159.941C39.1487 159.941 29.9322 178.921 26.5 213.498H32.3126L39.1487 159.941Z" fill="#1F9874"/>
</g>
<g style="mix-blend-mode:multiply">
<path d="M28.0703 141.551L55.5728 147.704V141.551H28.0703Z" fill="#1F9874"/>
</g>
<g style="mix-blend-mode:multiply">
<path d="M39.1506 159.935V141.551H34.7515C34.7515 141.551 34.2144 156.191 39.1506 159.935Z" fill="#1F9874"/>
</g>
<g style="mix-blend-mode:multiply" opacity="0.41">
<path d="M39.1538 174.191C38.9785 174.191 38.8032 174.191 38.6279 174.191L38.0625 189.919C38.4276 189.971 38.796 189.998 39.1651 190.001C41.3395 190.001 43.4249 189.166 44.9625 187.68C46.5 186.194 47.3638 184.178 47.3638 182.077C47.3638 179.975 46.5 177.959 44.9625 176.473C43.4249 174.987 41.3395 174.152 39.1651 174.152L39.1538 174.191Z" fill="#1F9874"/>
</g>
<g style="mix-blend-mode:overlay" opacity="0.41">
<path d="M52.3955 131.332C51.8322 131.54 51.3475 131.908 51.0061 132.388C50.6647 132.869 50.4827 133.438 50.4844 134.021V138.677C50.4836 139.055 50.5601 139.429 50.7093 139.778C50.8585 140.127 51.0775 140.444 51.3538 140.711C51.6302 140.978 51.9583 141.19 52.3195 141.334C52.6807 141.478 53.0678 141.552 53.4585 141.551H55.5789C55.5789 132.048 52.3955 131.332 52.3955 131.332Z" fill="white"/>
</g>
<g style="mix-blend-mode:overlay" opacity="0.41">
<path d="M64.9438 106.864C63.7844 104.345 61.9076 102.198 59.5326 100.672C59.2556 104.907 59.2556 113.001 62.5351 118.482C66.691 125.439 70.0722 131.833 73.4648 133.205C74.1067 132.209 74.4866 131.076 74.5714 129.905C74.6561 128.734 74.4432 127.561 73.9511 126.488L64.9438 106.864Z" fill="white"/>
</g>
<g style="mix-blend-mode:multiply" opacity="0.36">
<path d="M39.5385 78.7304C39.0222 79.3453 38.7657 80.1262 38.8204 80.9164C38.6338 82.0094 37.814 86.9278 37.8875 90.338C37.8941 90.5855 37.9965 90.8216 38.1744 90.9996C38.3524 91.1777 38.593 91.2848 38.8487 91.2998L40.7881 91.4309C45.4077 87.5672 42.8632 78.3151 42.6371 77.5117C41.5014 77.6096 40.4222 78.0341 39.5385 78.7304ZM39.0466 81.2443L39.8834 82.534C39.5369 82.1487 39.2546 81.7136 39.0466 81.2443Z" fill="#851619"/>
</g>
<path d="M37.8312 89.6567L22.3497 121.976C21.8304 123.055 21.7064 124.273 21.9983 125.429C22.2901 126.585 22.9804 127.611 23.9555 128.338L24.046 128.403C24.7027 128.893 25.4669 129.232 26.2799 129.392C27.0928 129.552 27.933 129.531 28.736 129.329C29.5389 129.127 30.2833 128.75 30.9121 128.226C31.5409 127.703 32.0374 127.048 32.3635 126.31L42.4394 103.499C42.8014 102.689 42.8947 101.789 42.7064 100.925C42.518 100.061 42.0574 99.2747 41.3877 98.6739L38.798 96.3459L39.4766 90.1103C39.4934 89.9512 39.4624 89.7907 39.3871 89.6482C39.3119 89.5057 39.1957 89.3872 39.0525 89.307C38.9502 89.2459 38.8357 89.2063 38.7165 89.1909C38.5973 89.1755 38.4761 89.1846 38.3608 89.2176C38.2455 89.2506 38.1387 89.3068 38.0474 89.3825C37.9562 89.4582 37.8825 89.5516 37.8312 89.6567Z" fill="#F7A89C"/>
<g style="mix-blend-mode:overlay" opacity="0.41">
<path d="M46.9681 78.3588C46.1259 77.8706 45.181 77.5718 44.2031 77.4844C45.0682 80.1021 46.9511 83.9767 50.7734 85.4359C51.0674 81.911 49.5238 79.8398 46.9681 78.3588Z" fill="white"/>
</g>
<path d="M61.6328 127.924L65.5286 126.109" stroke="#983533" stroke-width="2.527" stroke-miterlimit="10"/>
<path d="M50.4844 134.836L53.0345 135.798" stroke="#983533" stroke-width="2.527" stroke-miterlimit="10"/>
<path d="M50.4844 137.543L53.0345 138.499" stroke="#983533" stroke-width="2.527" stroke-miterlimit="10"/>
<path d="M54.2641 112.594C54.2641 112.594 52.8731 123.054 55.5759 126.103L55.9887 116.184L54.2641 112.594Z" fill="#A4A4A4"/>
<path opacity="0.41" d="M49.5184 108.27C49.5184 108.27 42.4223 128.741 38.0572 131.616C33.6921 134.49 45.0572 133.632 47.8448 123.708C50.6323 113.784 49.5184 108.27 49.5184 108.27Z" fill="#CFCFD0"/>
<g style="mix-blend-mode:overlay" opacity="0.41">
<path d="M41.3829 98.664L38.7932 96.3359C38.7932 96.3359 29 111.19 34.0776 122.404L42.4346 103.5C42.7992 102.688 42.8938 101.787 42.7055 100.92C42.5171 100.054 42.0549 99.2656 41.3829 98.664Z" fill="white"/>
</g>
<path d="M200.676 219.065C221.289 219.065 238 218.165 238 217.054C238 215.943 221.289 215.043 200.676 215.043C180.062 215.043 163.352 215.943 163.352 217.054C163.352 218.165 180.062 219.065 200.676 219.065Z" fill="#F3414E"/>
<path d="M207.989 137.684L218.958 170.61C219.646 172.683 219.758 174.895 219.285 177.024C218.812 179.153 217.769 181.124 216.261 182.742L191.71 209.018C191.71 209.018 191.642 216.543 185.411 217.543L181.781 194.973L204.336 174.654L207.989 137.684Z" fill="#A4A4A4"/>
<path d="M190.594 138.385C190.594 138.385 184.629 150.353 189.814 183.957L195.004 217.567H217.565C217.565 217.567 215.806 210.041 209.558 208.79C204.074 156.512 208.292 147.582 207.981 137.685C195.784 136.554 190.594 138.385 190.594 138.385Z" fill="#ECEDEE"/>
<path d="M195.008 217.566H217.568C217.568 217.566 215.81 210.041 209.562 208.789H193.656L195.008 217.566Z" fill="#4D3529"/>
<path d="M181.781 194.998L185.411 217.569C191.631 216.569 191.71 209.043 191.71 209.043L188.171 189.266L181.781 194.998Z" fill="#4D3529"/>
<g style="mix-blend-mode:overlay" opacity="0.41">
<path d="M207.982 137.683C206.987 137.591 206.048 137.519 205.155 137.465L199.834 137.683C199.834 137.683 194.033 192.082 209.565 208.788C204.075 156.51 208.293 147.608 207.982 137.683Z" fill="white"/>
<path d="M209.562 208.789C211.259 210.625 212.757 211.369 214.052 211.243C212.846 210.005 211.281 209.15 209.562 208.789Z" fill="white"/>
</g>
<path d="M206.136 84.8474C206.136 84.8474 203.309 82.7707 199.826 83.4921C196.343 84.2134 191.689 88.3723 191.22 97.9523C190.751 107.532 192.436 110.789 194.398 110.789C196.36 110.789 201.318 100.767 201.318 100.767L203.331 91.4764C203.331 91.4764 206.187 86.2956 206.136 84.8474Z" fill="#9B1F1D"/>
<g style="mix-blend-mode:multiply">
<path d="M199.825 83.4901C196.365 84.2169 191.689 88.3703 191.219 97.9504C190.954 103.415 191.383 106.809 192.169 108.727C192.876 108.399 193.3 107.694 193.057 106.334C192.265 101.962 193.967 92.1247 197.88 88.649C200.215 86.5669 201.046 84.5995 201.341 83.348C200.832 83.3429 200.324 83.3906 199.825 83.4901Z" fill="#1F9874"/>
</g>
<path d="M199.834 99.6758L189.82 105.583L190.601 138.373C190.601 138.373 198.126 140.685 207.988 137.674L207.337 119.492C207.337 119.492 209.803 116.869 209.542 110.781C209.282 104.693 207.134 100.884 207.134 100.884L203.34 99.6758H199.834Z" fill="#E1348B"/>
<path d="M189.817 105.598C189.817 105.598 193.062 106.461 193.062 111.664V127.397H215.51V129.037C215.51 130.359 214.966 131.626 213.999 132.561C213.032 133.496 211.721 134.021 210.353 134.021H188.867C188.413 134.022 187.963 133.936 187.543 133.768C187.123 133.601 186.742 133.355 186.42 133.045C186.099 132.735 185.844 132.366 185.67 131.961C185.496 131.555 185.406 131.121 185.406 130.682V111.369C185.406 111.369 185.904 107.215 189.817 105.598Z" fill="#F7A89C"/>
<path d="M193.058 127.391H190.344" stroke="#983533" stroke-width="1.94557" stroke-miterlimit="10"/>
<g style="mix-blend-mode:multiply" opacity="0.2">
<path d="M200.746 101.895L200.695 99.6758H199.83L189.817 105.583C185.926 107.223 185.406 111.354 185.406 111.354V130.684C185.406 131.269 185.566 131.844 185.87 132.351C188.771 127.334 187.815 112.677 188.55 110.781C189.438 108.474 200.746 101.895 200.746 101.895Z" fill="#34251E"/>
</g>
<path d="M206.138 84.8516C206.138 84.8516 209.927 88.5404 208.507 96.1585L204.402 96.7706V105.597C204.402 105.597 199.828 104.908 199.828 100.76V90.8521C199.828 90.8521 204.877 88.7918 206.138 84.8516Z" fill="#F7A89C"/>
<path d="M204.402 96.7656L201.977 97.1427C201.977 97.1427 203.107 100.214 204.685 100.755L204.402 96.7656Z" fill="#4D3529"/>
<path d="M199.081 94.7962C200.32 94.7962 201.325 93.8248 201.325 92.6266C201.325 91.4284 200.32 90.457 199.081 90.457C197.841 90.457 196.836 91.4284 196.836 92.6266C196.836 93.8248 197.841 94.7962 199.081 94.7962Z" fill="#F7A89C"/>
<path d="M193.07 110.176L196.316 127.39H193.07V110.176Z" fill="#34251E"/>
<g style="mix-blend-mode:overlay" opacity="0.41">
<path d="M207.336 119.504C207.336 119.504 199.12 124.663 200.46 124.663C201.8 124.663 207.489 123.767 207.489 123.767L207.336 119.504Z" fill="white"/>
</g>
<g style="mix-blend-mode:overlay" opacity="0.26">
<path d="M202.419 83.4258C202.04 86.426 201.582 93.4266 204.89 96.7001L208.509 96.1537C209.928 88.5355 206.14 84.8467 206.14 84.8467C205.026 84.1076 203.754 83.6219 202.419 83.4258Z" fill="white"/>
</g>
<path d="M200.457 95.3C200.457 95.5162 200.391 95.7275 200.266 95.9073C200.142 96.087 199.966 96.2271 199.759 96.3098C199.552 96.3925 199.325 96.4142 199.106 96.372C198.886 96.3298 198.685 96.2257 198.527 96.0729C198.368 95.92 198.261 95.7253 198.217 95.5133C198.173 95.3012 198.196 95.0815 198.281 94.8818C198.367 94.682 198.512 94.5113 198.698 94.3912C198.884 94.2711 199.102 94.207 199.326 94.207C199.626 94.207 199.914 94.3222 200.126 94.5272C200.338 94.7321 200.457 95.0101 200.457 95.3Z" fill="#4D3529"/>
<path d="M211.805 210.637C211.804 210.8 211.736 210.957 211.616 211.072C211.497 211.188 211.335 211.253 211.166 211.255H201.311C201.142 211.253 200.98 211.188 200.861 211.072C200.741 210.957 200.673 210.8 200.672 210.637C200.672 210.473 200.739 210.316 200.859 210.2C200.979 210.085 201.141 210.02 201.311 210.02H211.166C211.336 210.02 211.498 210.085 211.618 210.2C211.738 210.316 211.805 210.473 211.805 210.637Z" fill="#FEC853"/>
<path opacity="0.49" d="M194.686 138.738C194.686 138.738 190.767 175.583 198.644 210.018" stroke="#4D3529" stroke-width="2.30338" stroke-miterlimit="10"/>
<path d="M183.205 167.541C183.205 167.541 178.642 176.209 171.297 174.154C173.163 166.984 183.205 167.541 183.205 167.541Z" fill="#49BD97"/>
<g style="mix-blend-mode:multiply">
<path d="M164.797 162.457C164.797 162.457 163.932 172.146 171.299 174.152C173.629 167.113 164.797 162.457 164.797 162.457Z" fill="#1F9874"/>
</g>
<path d="M179.516 180.656C179.516 180.656 173.369 188.356 166.539 185.028C169.751 178.306 179.516 180.656 179.516 180.656Z" fill="#49BD97"/>
<g style="mix-blend-mode:multiply">
<path d="M162.393 172.363C162.393 172.363 159.69 181.725 166.538 185.02C170.179 178.528 162.393 172.363 162.393 172.363Z" fill="#1F9874"/>
</g>
<path d="M173.773 192.389C173.773 192.389 166.378 198.98 160.203 194.575C164.557 188.493 173.773 192.389 173.773 192.389Z" fill="#49BD97"/>
<g style="mix-blend-mode:multiply">
<path d="M158.341 181.438C158.341 181.438 154.05 190.225 160.23 194.586C164.951 188.75 158.341 181.438 158.341 181.438Z" fill="#1F9874"/>
</g>
<path d="M147.328 207.188C147.328 207.188 169.753 191.034 173.796 163.66" stroke="#49BD97" stroke-width="4.53966" stroke-miterlimit="10" stroke-linecap="round"/>
<path d="M175.352 152.496C175.352 152.496 179.502 161.355 173.248 165.612C168.623 159.732 175.352 152.496 175.352 152.496Z" fill="#49BD97"/>
<path d="M126.938 216.63C126.938 216.63 132.49 168.08 154.389 163.697C176.288 159.314 156.967 192.202 150.9 202.17C144.833 212.138 156.724 203.979 163.905 198.683C169.582 194.437 171.437 219.106 126.938 216.63Z" fill="#49BD97"/>
<g style="mix-blend-mode:multiply">
<path d="M142.967 181.264C144.918 172.296 160.784 163.684 160.812 163.667C159.252 163.153 157.148 163.121 154.389 163.667C132.49 168.039 126.938 216.601 126.938 216.601C127.791 216.65 128.634 216.683 129.437 216.715L129.787 216.666C152.8 213.289 142.362 187.779 142.967 181.264Z" fill="#1F9874"/>
</g>
<g style="mix-blend-mode:multiply">
<path d="M162.153 164.316C162.153 164.316 146.587 174.913 138.648 206.162" stroke="#1F9874" stroke-width="2.39283" stroke-miterlimit="10"/>
</g>
<g style="mix-blend-mode:multiply">
<path d="M163.885 198.654C159.09 202.2 152.17 207.031 149.953 206.851C152.656 211.223 163.145 202.714 166.684 199.654C166.294 198.238 165.191 197.686 163.885 198.654Z" fill="#1F9874"/>
</g>
<g style="mix-blend-mode:multiply">
<path d="M161.453 182.102C156.514 181.703 151.545 182.359 146.898 184.025" stroke="#1F9874" stroke-width="2.39283" stroke-miterlimit="10"/>
</g>
<path d="M66.9297 154.176C66.9297 154.176 70.7237 165.029 79.6519 163.843C78.7359 155.176 66.9297 154.176 66.9297 154.176Z" fill="#49BD97"/>
<g style="mix-blend-mode:multiply">
<path d="M89.2835 151.273C89.2835 151.273 88.5824 162.706 79.6712 163.843C78.1671 155.246 89.2835 151.273 89.2835 151.273Z" fill="#1F9874"/>
</g>
<path d="M68.9297 170.07C68.9297 170.07 74.731 180.06 83.2803 177.295C80.7302 168.945 68.9297 170.07 68.9297 170.07Z" fill="#49BD97"/>
<g style="mix-blend-mode:multiply">
<path d="M90.3504 163.227C90.3504 163.227 91.8544 174.588 83.2882 177.299C80.1727 169.118 90.3504 163.227 90.3504 163.227Z" fill="#1F9874"/>
</g>
<path d="M73.5547 184.696C73.5547 184.696 81.0127 193.598 88.957 189.483C84.982 181.652 73.5547 184.696 73.5547 184.696Z" fill="#49BD97"/>
<g style="mix-blend-mode:multiply">
<path d="M93.4658 174.461C93.4658 174.461 96.9206 185.391 88.9424 189.479C84.4698 181.921 93.4658 174.461 93.4658 174.461Z" fill="#1F9874"/>
</g>
<path d="M101.777 206.294C101.777 206.294 78.4811 183.778 78.5942 151.207" stroke="#49BD97" stroke-width="5.34473" stroke-miterlimit="10" stroke-linecap="round"/>
<path d="M78.7461 137.926C78.7461 137.926 72.3511 147.566 78.8875 153.566C85.3164 147.468 78.7461 137.926 78.7461 137.926Z" fill="#49BD97"/>
<path d="M118.947 219.065C140.388 219.065 157.77 218.128 157.77 216.972C157.77 215.816 140.388 214.879 118.947 214.879C97.5064 214.879 80.125 215.816 80.125 216.972C80.125 218.128 97.5064 219.065 118.947 219.065Z" fill="#C73C27"/>
<path d="M59.3516 89.9597C74.8952 72.5811 94.8718 62.2852 117.071 62.2852C146.597 62.2852 169.904 77.3028 169.904 106.267C169.904 134.138 134.61 141.03 134.61 153.9V165.698H93.5431L93.3169 148.538C93.3169 128.799 128.617 117.64 128.617 105.841C128.617 97.6871 119.96 95.7525 112.185 95.7525C102.641 95.7525 90.8799 104.764 83.3484 113.35L59.3516 89.9597ZM112.853 171.065C128.617 171.065 139.269 181.58 139.269 193.805C139.269 205.828 129.058 215.905 112.853 215.905C98.4227 215.905 87.5495 204.975 87.5495 193.805C87.5269 183.082 96.8735 171.065 112.853 171.065Z" fill="#F3414E"/>
<path d="M64.4844 89.9597C80.0224 72.5811 99.999 62.2852 122.203 62.2852C151.725 62.2852 175.032 77.3028 175.032 106.267C175.032 134.138 139.737 141.03 139.737 153.9V165.698H98.6702L98.4497 148.538C98.4497 128.799 133.744 117.64 133.744 105.841C133.744 97.6871 125.087 95.7525 117.318 95.7525C107.774 95.7525 96.0071 104.764 88.4812 113.35L64.4844 89.9597ZM117.98 171.065C133.744 171.065 144.402 181.58 144.402 193.805C144.402 205.828 134.191 215.905 117.98 215.905C103.556 215.905 92.6767 204.975 92.6767 193.805C92.6767 183.082 102.001 171.065 117.98 171.065Z" fill="white"/>
<path d="M83.317 113.357H88.4455L83.2266 108.27L83.317 113.357Z" fill="#AD843B"/>
<g style="mix-blend-mode:multiply" opacity="0.66">
<path d="M103.862 100.249L100.295 73.8589L106.848 63.0273C101.386 63.832 96.0446 65.2668 90.9367 67.3009C88.0021 72.2522 84.3721 79.8047 85.8478 84.8926C88.1887 93.0354 95.3979 104.566 95.3979 104.566L103.862 100.249Z" fill="#C69A42"/>
</g>
<g style="mix-blend-mode:multiply" opacity="0.66">
<path d="M144.384 108.263C144.384 108.263 142.597 114.624 138.577 111.951C134.557 109.279 128.326 103.497 128.326 103.497L134.964 79.4513L117.164 68.975L120.658 62.2695L147.748 77.8884L144.384 108.263Z" fill="#C69A42"/>
</g>
<path d="M121.086 59.1689V69.0058L127.984 70.1425L140.989 77.1048L131.043 102.112L144.235 109.982C144.591 110.194 145 110.309 145.418 110.315C145.836 110.321 146.249 110.217 146.611 110.015C146.973 109.813 147.272 109.519 147.476 109.166C147.68 108.813 147.781 108.413 147.769 108.009C147.736 106.107 147.416 104.22 146.819 102.408L155.685 80.3073C156.668 77.8557 156.68 75.1397 155.719 72.68C154.758 70.2203 152.891 68.1899 150.477 66.9783L132.983 58.207L121.086 59.1689Z" fill="#C73C27"/>
<path d="M131.023 102.107L144.215 109.977C144.571 110.189 144.98 110.304 145.398 110.31C145.817 110.315 146.229 110.212 146.591 110.009C146.953 109.807 147.252 109.514 147.456 109.161C147.66 108.808 147.761 108.408 147.749 108.004C147.718 106.106 147.402 104.223 146.81 102.413C141.881 101.191 137.37 98.7411 133.726 95.3086L131.023 102.107Z" fill="#1F9874"/>
<path d="M121.084 68.9948H117.177L106.536 81.209L110.302 105.9L96.7314 111.78C96.4284 111.912 96.0963 111.971 95.7644 111.951C95.4324 111.931 95.1107 111.832 94.8273 111.664C94.5438 111.496 94.3074 111.263 94.1386 110.986C93.9698 110.709 93.8738 110.396 93.859 110.075C93.68 107.827 94.0903 105.571 95.0521 103.517L91.9196 80.198C91.7225 78.7366 91.8748 77.251 92.3649 75.8554C92.8551 74.4598 93.6699 73.1915 94.7468 72.1481L109.171 58.207L121.045 59.1579L121.084 68.9948Z" fill="#C73C27"/>
<path d="M110.295 105.903L108.966 97.2031C102.068 104.482 95.0621 103.532 95.0621 103.532C94.1003 105.586 93.69 107.841 93.869 110.089C93.8838 110.411 93.9798 110.723 94.1486 111C94.3174 111.277 94.5539 111.51 94.8373 111.678C95.1207 111.847 95.4425 111.945 95.7744 111.965C96.1064 111.986 96.4384 111.927 96.7414 111.795L110.295 105.903Z" fill="#1F9874"/>
<path d="M147.329 104.323C147.193 103.679 147.021 103.042 146.815 102.416C144.206 101.784 141.705 100.79 139.391 99.4648C139.967 101.039 141.771 103.427 147.329 104.323Z" fill="#34251E"/>
<path d="M102.39 102.023C98.2225 103.953 95.0391 103.526 95.0391 103.526C94.6559 104.285 94.3674 105.085 94.1797 105.909C96.6732 105.751 100.467 104.996 102.39 102.023Z" fill="#34251E"/>
<path opacity="0.41" d="M104.945 100.609L102.406 80.5799L117.181 65.0977H122.615" stroke="#34251E" stroke-width="2.23629" stroke-miterlimit="10"/>
<path opacity="0.41" d="M135.82 69.4141L145.189 75.0375L136.651 97.7225" stroke="#34251E" stroke-width="2.23629" stroke-miterlimit="10"/>
</svg>
