<?xml version="1.0" standalone="no"?>
<!DOCTYPE svg PUBLIC "-//W3C//DTD SVG 20010904//EN"
 "http://www.w3.org/TR/2001/REC-SVG-20010904/DTD/svg10.dtd">
<svg version="1.0" xmlns="http://www.w3.org/2000/svg"
 width="290.000000pt" height="218.000000pt" viewBox="0 0 145.000000 109.000000"
 preserveAspectRatio="xMidYMid meet">

<g transform="translate(0.000000,109.000000) scale(0.100000,-0.100000)"
fill="#AA2769" stroke="none">
<path d="M310 615 l0 -215 50 0 50 0 0 120 c0 66 3 120 8 120 4 0 65 -84 135
-185 l129 -185 54 0 54 0 0 280 0 280 -50 0 -50 0 0 -185 c0 -102 -3 -185 -7
-185 -5 0 -66 84 -136 185 l-129 185 -54 0 -54 0 0 -215z"/>
<path d="M886 807 c-54 -30 -80 -78 -80 -144 0 -84 59 -145 153 -158 91 -12
122 -87 54 -130 -28 -17 -32 -26 -33 -62 0 -39 2 -43 25 -43 40 0 104 37 125
73 27 44 27 131 0 175 -24 39 -72 70 -120 78 -70 11 -80 15 -96 39 -36 55 32
122 96 95 18 -7 33 -22 36 -36 5 -21 12 -24 56 -24 l51 0 -6 34 c-3 19 -13 46
-23 61 -42 64 -162 85 -238 42z"/>
</g>
</svg>
