<svg width="32" height="38" viewBox="0 0 32 38" fill="none" xmlns="http://www.w3.org/2000/svg">
<path d="M5.96018 28.1965C5.97474 27.8071 6.06231 27.4337 6.21786 27.098C6.3734 26.7623 6.59383 26.4709 6.86643 26.2406C7.13903 26.0103 7.45839 25.8456 7.80611 25.7561C8.15382 25.6666 8.52299 25.6541 8.89232 25.7192L24.8136 28.455L25.6303 8.72103L9.70907 5.98525C9.33974 5.92015 8.97057 5.9327 8.62285 6.02219C8.27514 6.11167 7.95577 6.27632 7.68317 6.50663C7.41058 6.73695 7.19015 7.02836 7.0346 7.36407C6.87906 7.69977 6.79148 8.07312 6.77693 8.46256L5.96018 28.1965Z" stroke="white" stroke-width="2" stroke-linecap="round" stroke-linejoin="round"/>
<path d="M5.95996 28.1963L5.91912 29.183L22.7769 32.0797" stroke="white" stroke-width="2" stroke-linecap="round" stroke-linejoin="round"/>
</svg>
