<svg width="35" height="38" viewBox="0 0 35 38" fill="none" xmlns="http://www.w3.org/2000/svg">
<path d="M16.1625 31.1513C22.5465 32.3345 28.1998 28.052 28.7893 21.5861C29.3789 15.1202 24.6816 8.91935 18.2976 7.73614C11.9136 6.55293 6.26033 10.8354 5.67075 17.3013C5.08116 23.7673 9.77849 29.9681 16.1625 31.1513Z" stroke="white" stroke-width="2" stroke-linecap="round" stroke-linejoin="round"/>
<path d="M16.5184 27.2489C17.3164 27.3968 18.023 26.8615 18.0967 26.0532C18.1704 25.245 17.5832 24.4699 16.7852 24.322C15.9872 24.1741 15.2806 24.7094 15.2069 25.5176C15.1332 26.3259 15.7204 27.101 16.5184 27.2489Z" fill="white"/>
<path d="M17.0519 21.3953L17.1408 20.4196C17.8076 20.5432 18.4777 20.4638 19.0664 20.1913C19.655 19.9188 20.1358 19.4656 20.4479 18.889C20.7599 18.3123 20.8893 17.6381 20.8196 16.9516C20.7499 16.2651 20.4843 15.5971 20.0563 15.0322C19.6284 14.4672 19.0573 14.0307 18.4153 13.7777C17.7733 13.5247 17.0893 13.4667 16.4496 13.611C15.81 13.7553 15.2436 14.0954 14.8219 14.5882C14.4002 15.0811 14.1423 15.7047 14.0807 16.38" stroke="white" stroke-width="2" stroke-linecap="round" stroke-linejoin="round"/>
</svg>
