<svg width="28" height="28" viewBox="0 0 28 28" fill="none" xmlns="http://www.w3.org/2000/svg">
<path d="M23.625 5.25H4.375C3.89175 5.25 3.5 5.64175 3.5 6.125V21.875C3.5 22.3582 3.89175 22.75 4.375 22.75H23.625C24.1082 22.75 24.5 22.3582 24.5 21.875V6.125C24.5 5.64175 24.1082 5.25 23.625 5.25Z" stroke="white" stroke-opacity="0.36" stroke-width="1.5" stroke-linecap="round" stroke-linejoin="round"/>
<path d="M3.5 10.5H24.5" stroke="white" stroke-opacity="0.36" stroke-width="1.5" stroke-linecap="round" stroke-linejoin="round"/>
<rect x="18.375" y="17.5" width="8.75" height="7.875" rx="2" fill="#58585E"/>
<path d="M18.6741 23.3259C18.3282 22.98 18.5575 22.2544 18.3808 21.8295C18.2041 21.4047 17.5273 21.0325 17.5273 20.5625C17.5273 20.0925 18.1966 19.7354 18.3808 19.2955C18.565 18.8556 18.3282 18.145 18.6741 17.7991C19.02 17.4532 19.7456 17.6825 20.1705 17.5058C20.5953 17.3291 20.9675 16.6523 21.4375 16.6523C21.9075 16.6523 22.2646 17.3216 22.7045 17.5058C23.1444 17.69 23.855 17.4532 24.2009 17.7991C24.5468 18.145 24.3175 18.8706 24.4942 19.2955C24.6709 19.7203 25.3477 20.0925 25.3477 20.5625C25.3477 21.0325 24.6784 21.3896 24.4942 21.8295C24.31 22.2694 24.5468 22.98 24.2009 23.3259C23.855 23.6718 23.1294 23.4425 22.7045 23.6192C22.2797 23.7959 21.9075 24.4727 21.4375 24.4727C20.9675 24.4727 20.6104 23.8034 20.1705 23.6192C19.7306 23.435 19.02 23.6718 18.6741 23.3259Z" stroke="white" stroke-opacity="0.36" stroke-linecap="round" stroke-linejoin="round"/>
<path d="M23.0938 19.6602L20.8868 21.7656L19.7852 20.7129" stroke="white" stroke-opacity="0.36" stroke-linecap="round" stroke-linejoin="round"/>
</svg>
