<svg width="28" height="29" viewBox="0 0 28 29" fill="none" xmlns="http://www.w3.org/2000/svg">
<path d="M14 25.375C19.799 25.375 24.5 20.5061 24.5 14.5C24.5 8.4939 19.799 3.625 14 3.625C8.20101 3.625 3.5 8.4939 3.5 14.5C3.5 20.5061 8.20101 25.375 14 25.375Z" stroke="white" stroke-opacity="0.36" stroke-width="1.5" stroke-linecap="round" stroke-linejoin="round"/>
<path d="M10.0625 13.5938C10.7874 13.5938 11.375 12.9851 11.375 12.2344C11.375 11.4836 10.7874 10.875 10.0625 10.875C9.33763 10.875 8.75 11.4836 8.75 12.2344C8.75 12.9851 9.33763 13.5938 10.0625 13.5938Z" fill="white" fill-opacity="0.36"/>
<path d="M17.9375 13.5938C18.6624 13.5938 19.25 12.9851 19.25 12.2344C19.25 11.4836 18.6624 10.875 17.9375 10.875C17.2126 10.875 16.625 11.4836 16.625 12.2344C16.625 12.9851 17.2126 13.5938 17.9375 13.5938Z" fill="white" fill-opacity="0.36"/>
<path d="M18.5492 17.2188C18.0867 18.0441 17.4229 18.7292 16.6244 19.2054C15.8259 19.6816 14.9206 19.9322 13.9992 19.9322C13.0778 19.9322 12.1725 19.6816 11.374 19.2054C10.5755 18.7292 9.91178 18.0441 9.44922 17.2188" stroke="white" stroke-opacity="0.36" stroke-width="1.5" stroke-linecap="round" stroke-linejoin="round"/>
</svg>
