<svg width="62" height="62" viewBox="0 0 62 62" fill="none" xmlns="http://www.w3.org/2000/svg">
<path d="M31 19.375H52.3125C52.8264 19.375 53.3192 19.5791 53.6825 19.9425C54.0459 20.3058 54.25 20.7986 54.25 21.3125V48.4375C54.25 48.9514 54.0459 49.4442 53.6825 49.8075C53.3192 50.1709 52.8264 50.375 52.3125 50.375H9.6875C9.17364 50.375 8.68083 50.1709 8.31748 49.8075C7.95413 49.4442 7.75 48.9514 7.75 48.4375V25.1875" fill="#E1348B"/>
<path d="M31 19.375H52.3125C52.8264 19.375 53.3192 19.5791 53.6825 19.9425C54.0459 20.3058 54.25 20.7986 54.25 21.3125V48.4375C54.25 48.9514 54.0459 49.4442 53.6825 49.8075C53.3192 50.1709 52.8264 50.375 52.3125 50.375H9.6875C9.17364 50.375 8.68083 50.1709 8.31748 49.8075C7.95413 49.4442 7.75 48.9514 7.75 48.4375V25.1875" stroke="white" stroke-width="2" stroke-linecap="round" stroke-linejoin="round"/>
<path d="M22.5961 25.1875H7.75V15.5C7.75 14.9861 7.95413 14.4933 8.31748 14.13C8.68083 13.7666 9.17364 13.5625 9.6875 13.5625H22.5961C23.015 13.5642 23.4224 13.7 23.7586 13.95L31 19.375L23.7586 24.8C23.4224 25.05 23.015 25.1858 22.5961 25.1875Z" fill="#494C52" stroke="white" stroke-width="2" stroke-linecap="round" stroke-linejoin="round"/>
</svg>
