<svg width="19" height="19" viewBox="0 0 19 19" fill="none" xmlns="http://www.w3.org/2000/svg">
<path d="M9.49998 1.58301C5.14581 1.58301 1.58331 5.14551 1.58331 9.49967C1.58331 13.8538 5.14581 17.4163 9.49998 17.4163C13.8541 17.4163 17.4166 13.8538 17.4166 9.49967C17.4166 5.14551 13.8541 1.58301 9.49998 1.58301ZM9.49998 15.833C6.00873 15.833 3.16665 12.9909 3.16665 9.49967C3.16665 6.00842 6.00873 3.16634 9.49998 3.16634C12.9912 3.16634 15.8333 6.00842 15.8333 9.49967C15.8333 12.9909 12.9912 15.833 9.49998 15.833ZM13.1337 6.00051L7.91665 11.2176L5.86623 9.17509L4.74998 10.2913L7.91665 13.458L14.25 7.12467L13.1337 6.00051Z" fill="#1DD10D"/>
</svg>
