<svg width="60" height="42" viewBox="0 0 60 42" fill="none" xmlns="http://www.w3.org/2000/svg">
<path d="M29.6458 1.36719H55.8686C56.5009 1.36719 57.1072 1.62391 57.5543 2.08088C58.0014 2.53786 58.2525 3.15764 58.2525 3.8039V37.9178C58.2525 38.5641 58.0014 39.1839 57.5543 39.6408C57.1072 40.0978 56.5009 40.3545 55.8686 40.3545H3.42296C2.79071 40.3545 2.18436 40.0978 1.73729 39.6408C1.29022 39.1839 1.03906 38.5641 1.03906 37.9178V8.67731" fill="#E1348B"/>
<path d="M29.6458 1.36719H55.8686C56.5009 1.36719 57.1072 1.62391 57.5543 2.08088C58.0014 2.53786 58.2525 3.15764 58.2525 3.8039V37.9178C58.2525 38.5641 58.0014 39.1839 57.5543 39.6408C57.1072 40.0978 56.5009 40.3545 55.8686 40.3545H3.42296C2.79071 40.3545 2.18436 40.0978 1.73729 39.6408C1.29022 39.1839 1.03906 38.5641 1.03906 37.9178V8.67731" stroke="white" stroke-width="2" stroke-linecap="round" stroke-linejoin="round"/>
</svg>
