<svg width="325" height="449" viewBox="0 0 325 449" fill="none" xmlns="http://www.w3.org/2000/svg">
<path fillRule="evenodd" clipRule="evenodd" d="M153.228 65.4231C148.424 59.6683 145.172 52.6158 145.715 44.7132C147.281 21.9437 178.343 26.9527 184.385 38.4448C190.428 49.9369 189.71 79.0875 181.901 81.1415C178.786 81.9606 172.152 79.9541 165.4 75.8013L169.638 106.397H144.613L153.228 65.4231Z" fill="#915B3C"/>
<path fillRule="evenodd" clipRule="evenodd" d="M174.5 25.929C171.081 24.865 166.117 24.5042 164.029 24.7483C165.217 21.8442 165.688 18.6088 165.304 15.4585C164.93 12.3975 163.59 9.79106 162.35 7.05986C161.779 5.80095 161.131 4.54891 160.165 3.58599C159.182 2.60497 157.937 1.95742 156.631 1.64848C155.295 1.33225 153.898 1.35859 152.56 1.64557C151.968 1.7725 151.437 2.04868 150.856 2.2022C150.262 2.3595 149.973 1.9798 149.542 1.59822C148.502 0.678786 146.977 0.224901 145.662 0.0624556C144.186 -0.119716 142.654 0.107484 141.246 0.602624C139.876 1.08464 138.56 1.86736 137.569 3.00765C137.128 3.51523 136.728 4.09296 136.467 4.73082C136.361 4.99258 136.343 5.14765 136.087 5.24354C135.85 5.33231 135.573 5.33489 135.329 5.41937C132.966 6.23588 130.946 8.0986 129.847 10.4902C129.205 11.8855 128.901 14.3421 128.984 17.0955C129.067 19.849 131.504 27.0335 133.783 29.654C135.817 31.9931 138.807 33.5367 141.692 34.2124C139.777 36.4462 138.502 39.2376 137.559 42.0765C136.535 45.1603 135.901 48.3646 135.667 51.6293C135.445 54.7312 135.425 58.0115 136.137 61.0472C136.804 63.886 138.23 66.2149 140.61 67.6923C141.7 68.3691 142.873 68.8776 144.053 69.3423C145.215 69.8002 146.382 70.2454 147.599 70.5024C149.904 70.9885 152.56 70.905 154.336 69.0329C154.976 68.358 155.68 67.5099 156.147 66.6854C156.314 66.3889 156.416 66.195 156.212 65.9052C155.967 65.5581 155.572 65.2921 155.258 65.0206C153.468 63.4724 152.361 61.4055 152.081 58.9493C151.798 56.4571 152.454 53.2404 154.828 52.1528C157.76 50.8101 160.988 52.3512 163.593 53.7878C164.7 49.8002 166.974 46.2099 170.538 44.3808C174.481 42.3573 179.006 42.1204 183.058 40.3842C184.114 39.9318 185.19 39.4182 185.967 38.4964C186.292 38.1111 186.673 37.6114 186.803 37.1018C186.974 36.4325 186.551 35.8713 186.224 35.3495C184.491 32.5827 177.92 26.9929 174.5 25.929Z" fill="#141518"/>
<path fillRule="evenodd" clipRule="evenodd" d="M138.356 194.71L215.835 326.884L273.923 438.626H286.434L189.108 194.71L138.356 194.71Z" fill="#784931"/>
<path fillRule="evenodd" clipRule="evenodd" d="M266.273 433.468C265.107 436.646 264.523 439.023 264.523 440.601C264.523 442.519 264.836 445.319 265.463 449C267.644 449 287.248 449 324.273 449C325.801 443.844 324.919 441.061 321.627 440.65C318.334 440.239 315.599 439.868 313.421 439.537L286.086 427.102C285.56 426.863 284.944 427.104 284.709 427.641C284.705 427.65 284.702 427.659 284.698 427.668L282.941 432.018C279.893 433.469 277.416 434.194 275.51 434.194C273.962 434.194 271.823 433.556 269.095 432.28C268.048 431.79 266.81 432.259 266.33 433.328C266.31 433.374 266.29 433.421 266.273 433.468Z" fill="#E4E4E4"/>
<path fillRule="evenodd" clipRule="evenodd" d="M257.79 420.733L281.919 413.285C271.347 381.038 258.391 345.551 243.049 306.825C227.707 268.099 211.231 230.727 193.619 194.71H125.473C145.053 240.27 165.81 281.668 187.745 318.902C209.68 356.137 233.028 390.08 257.79 420.733Z" fill="white"/>
<path fillRule="evenodd" clipRule="evenodd" d="M133.264 194.71C125.952 241.157 111.848 300.498 110.517 302.329C109.629 303.55 77.6841 314.473 14.6812 335.098L17.3838 346.356C92.5147 335.294 132.102 326.713 136.146 320.61C142.213 311.457 172.503 239.145 184.235 194.71H133.264Z" fill="#915B3C"/>
<path fillRule="evenodd" clipRule="evenodd" d="M36.8281 325.366L41.5885 343.498C97.782 348.527 132.213 344.893 144.881 332.596C157.55 320.3 171.988 274.338 188.196 194.71H123.215C112.945 259.914 107.204 293.885 105.991 296.622C104.778 299.359 81.7237 308.941 36.8281 325.366Z" fill="white"/>
<path fillRule="evenodd" clipRule="evenodd" d="M19.5498 330.871C15.951 330.536 13.2959 330.568 11.5846 330.967C9.50328 331.453 6.50684 332.467 2.59532 334.009C2.87917 336.138 5.43019 355.272 10.2484 391.411C16.0399 391.599 18.9444 390.033 18.9618 386.716C18.9793 383.398 19.026 380.634 19.1019 378.425L29.0337 348.599C29.2248 348.025 28.883 347.485 28.2703 347.391C28.2598 347.39 28.2493 347.388 28.2387 347.387L23.2922 346.772C21.3212 344.164 20.2118 341.93 19.9638 340.07C19.7623 338.559 20.1762 336.31 21.2056 333.325C21.6006 332.179 20.9307 331.089 19.7094 330.891C19.6567 330.882 19.6035 330.876 19.5498 330.871Z" fill="#E4E4E4"/>
<path fillRule="evenodd" clipRule="evenodd" d="M191.156 128.42L227.348 108.193C233.366 100.9 239.296 95.2365 245.137 91.2015C246.922 90.4411 250.044 89.9809 247.125 95.2676C244.205 100.554 241.368 106.249 242.855 107.878C244.342 109.507 248.051 107.231 249.825 109.938C251.008 111.742 244.672 114.592 230.819 118.487L204.521 143.057L191.156 128.42ZM247.839 145.485L263.737 136.574C265.967 127.913 268.634 123.555 271.736 123.501C274.119 122.369 269.969 133.313 274.487 132.364C279.004 131.415 290.031 123.047 291.931 124.746C294.742 127.26 292.236 134.978 289.283 138.818C283.763 145.994 279.194 148.448 267.899 151.661C261.993 153.341 255.609 156.709 248.744 161.765L247.839 145.485Z" fill="#915B3C"/>
<path fillRule="evenodd" clipRule="evenodd" d="M173.531 123.914C186.207 123.777 203.112 121.045 221.149 109.362L228.233 125.481C215.791 138.08 198.297 148.432 183 147.994C170.946 147.648 164.785 132.77 173.531 123.914Z" fill="#952C61"/>
<path fillRule="evenodd" clipRule="evenodd" d="M190.6 149.765C204.058 153.189 226.626 149.151 258.304 137.648C266.161 154.236 269.794 166.061 269.201 173.125C242.026 187.61 218.734 194.068 199.545 194.494C200.155 206.113 198.769 217.168 194.113 227.269C184.542 248.036 128.497 228.804 109.653 232.589C97.8525 193.483 120.669 177.591 120.688 152.569C120.708 125.167 142.271 82.9885 145.443 82.9885H174.375C175.971 103.916 184.006 126.979 190.6 149.765Z" fill="#952C61"/>
</svg>
