<svg width="25" height="25" viewBox="0 0 25 25" fill="none" xmlns="http://www.w3.org/2000/svg">
<path d="M18.0296 25C8.08828 25 0 16.9117 0 6.97039C0 3.45211 2.63182 0.463449 6.12005 0.0164648C7.00776 -0.0987244 7.86792 0.399594 8.21099 1.22595L10.7239 7.08808C10.988 7.69658 10.9317 8.39898 10.5724 8.96116L8.47893 12.1451C9.40795 14.0595 10.9743 15.6233 12.8924 16.5449L16.0213 14.4489C16.5847 14.067 17.3009 14.0007 17.9307 14.2761L23.7841 16.7903C24.6004 17.1296 25.0975 17.9897 24.9835 18.8774C24.5365 22.3657 21.5479 24.9962 18.0309 24.9975L18.0296 25ZM6.36546 2.00473C3.87762 2.32776 2.00329 4.46127 2.00329 6.97039C2.00329 15.8074 9.1926 22.9967 18.0296 22.9967C20.5387 22.9967 22.671 21.1211 22.9953 18.6345L17.1344 16.1179L14.0043 18.2088C13.4245 18.6007 12.6671 18.6583 12.0298 18.3566C9.69843 17.2347 7.79906 15.3404 6.67346 13.0166L6.67096 13.0128C6.37297 12.3893 6.42055 11.6406 6.79616 11.0596L8.89085 7.87312L6.36671 2.00598L6.36546 2.00473Z" fill="white"/>
</svg>
