<svg width="80" height="80" viewBox="0 0 80 80" fill="none" xmlns="http://www.w3.org/2000/svg">
<path d="M67.1562 22.7188H40.8239L32.2636 16.3C31.4076 15.6614 30.369 15.3151 29.3011 15.3125H12.8438C11.5342 15.3125 10.2784 15.8327 9.35241 16.7587C8.42645 17.6846 7.90625 18.9405 7.90625 20.25V62.2188C7.90625 63.5283 8.42645 64.7841 9.35241 65.7101C10.2784 66.6361 11.5342 67.1562 12.8438 67.1562H67.4309C68.6671 67.1546 69.8521 66.6628 70.7262 65.7887C71.6003 64.9146 72.0921 63.7296 72.0938 62.4934V27.6562C72.0938 26.3467 71.5736 25.0909 70.6476 24.1649C69.7216 23.239 68.4658 22.7188 67.1562 22.7188ZM67.1562 62.2188H12.8438V20.25H29.3011L37.8614 26.6688C38.7174 27.3074 39.756 27.6536 40.8239 27.6562H67.1562V62.2188ZM49.875 44.9375C49.875 45.5923 49.6149 46.2202 49.1519 46.6832C48.6889 47.1462 48.061 47.4062 47.4062 47.4062H42.4688V52.3438C42.4688 52.9985 42.2087 53.6264 41.7457 54.0894C41.2827 54.5524 40.6548 54.8125 40 54.8125C39.3452 54.8125 38.7173 54.5524 38.2543 54.0894C37.7913 53.6264 37.5312 52.9985 37.5312 52.3438V47.4062H32.5938C31.939 47.4062 31.3111 47.1462 30.8481 46.6832C30.3851 46.2202 30.125 45.5923 30.125 44.9375C30.125 44.2827 30.3851 43.6548 30.8481 43.1918C31.3111 42.7288 31.939 42.4688 32.5938 42.4688H37.5312V37.5312C37.5312 36.8765 37.7913 36.2486 38.2543 35.7856C38.7173 35.3226 39.3452 35.0625 40 35.0625C40.6548 35.0625 41.2827 35.3226 41.7457 35.7856C42.2087 36.2486 42.4688 36.8765 42.4688 37.5312V42.4688H47.4062C48.061 42.4688 48.6889 42.7288 49.1519 43.1918C49.6149 43.6548 49.875 44.2827 49.875 44.9375Z" fill="white"/>
</svg>
