<svg width="80" height="76" viewBox="0 0 80 76" fill="none" xmlns="http://www.w3.org/2000/svg">
<path d="M77.4218 12.3109L40.9606 0.157166C40.3368 -0.050761 39.6625 -0.050761 39.0388 0.157166L2.57753 12.3109C1.97252 12.5126 1.44631 12.8995 1.07344 13.4169C0.700573 13.9343 0.499953 14.5559 0.5 15.1936V45.578C0.5 46.3838 0.82012 47.1567 1.38994 47.7265C1.95975 48.2963 2.73259 48.6164 3.53844 48.6164C4.34428 48.6164 5.11712 48.2963 5.68693 47.7265C6.25675 47.1567 6.57687 46.3838 6.57687 45.578V19.4095L19.3345 23.6595C15.945 29.1355 14.8671 35.7328 16.3376 42.0029C17.8081 48.2729 21.7067 53.7032 27.1775 57.1012C20.341 59.7827 14.4312 64.6328 10.1091 71.2642C9.88427 71.5983 9.72813 71.9737 9.64972 72.3687C9.57131 72.7636 9.57219 73.1702 9.6523 73.5648C9.73242 73.9595 9.89018 74.3342 10.1164 74.6673C10.3426 75.0005 10.6328 75.2853 10.9701 75.5053C11.3073 75.7253 11.685 75.876 12.081 75.9487C12.4771 76.0215 12.8836 76.0148 13.2771 75.9291C13.6705 75.8433 14.043 75.6802 14.3728 75.4492C14.7027 75.2183 14.9833 74.924 15.1984 74.5836C20.9221 65.8026 29.9614 60.7702 39.9997 60.7702C50.0379 60.7702 59.0772 65.8026 64.8009 74.5836C65.2465 75.246 65.935 75.7064 66.7173 75.8652C67.4997 76.024 68.3131 75.8686 68.9818 75.4324C69.6504 74.9963 70.1206 74.3146 70.2906 73.5346C70.4606 72.7546 70.3168 71.939 69.8903 71.2642C65.5681 64.6328 59.6355 59.7827 52.8219 57.1012C58.2874 53.7033 62.1823 48.2766 63.6525 42.0112C65.1228 35.7457 64.0483 29.1529 60.6648 23.6785L77.4218 18.0953C78.0269 17.8938 78.5533 17.5069 78.9263 16.9895C79.2993 16.4721 79.5 15.8504 79.5 15.2126C79.5 14.5748 79.2993 13.9531 78.9263 13.4357C78.5533 12.9184 78.0269 12.5315 77.4218 12.3299V12.3109ZM58.2303 36.4627C58.2311 39.3448 57.5485 42.1861 56.2386 44.7534C54.9287 47.3207 53.0288 49.5409 50.6947 51.2317C48.3606 52.9225 45.6589 54.0359 42.8112 54.4804C39.9635 54.9249 37.051 54.6878 34.3127 53.7887C31.5743 52.8897 29.0882 51.3541 27.0582 49.3081C25.0282 47.2621 23.5122 44.764 22.6347 42.0187C21.7571 39.2734 21.5429 36.3591 22.0098 33.515C22.4766 30.6709 23.6111 27.978 25.3202 25.6572L39.0388 30.2149C39.6625 30.4228 40.3368 30.4228 40.9606 30.2149L54.6791 25.6572C56.9875 28.7868 58.2321 32.5738 58.2303 36.4627ZM39.9997 24.1456L13.1475 15.1936L39.9997 6.24163L66.8518 15.1936L39.9997 24.1456Z" fill="white"/>
</svg>
