<svg width="80" height="80" viewBox="0 0 80 80" fill="none" xmlns="http://www.w3.org/2000/svg">
<g clip-path="url(#clip0_9_4034)">
<path d="M44.9351 25.187C44.9351 24.5323 45.1952 23.9044 45.6582 23.4415C46.1211 22.9785 46.749 22.7184 47.4037 22.7184H77.0271C77.6818 22.7184 78.3097 22.9785 78.7727 23.4415C79.2356 23.9044 79.4957 24.5323 79.4957 25.187C79.4957 25.8418 79.2356 26.4697 78.7727 26.9326C78.3097 27.3956 77.6818 27.6557 77.0271 27.6557H47.4037C46.749 27.6557 46.1211 27.3956 45.6582 26.9326C45.1952 26.4697 44.9351 25.8418 44.9351 25.187ZM77.0271 37.5301H47.4037C46.749 37.5301 46.1211 37.7902 45.6582 38.2531C45.1952 38.7161 44.9351 39.344 44.9351 39.9987C44.9351 40.6534 45.1952 41.2813 45.6582 41.7443C46.1211 42.2072 46.749 42.4673 47.4037 42.4673H77.0271C77.6818 42.4673 78.3097 42.2072 78.7727 41.7443C79.2356 41.2813 79.4957 40.6534 79.4957 39.9987C79.4957 39.344 79.2356 38.7161 78.7727 38.2531C78.3097 37.7902 77.6818 37.5301 77.0271 37.5301ZM77.0271 52.3418H54.8096C54.1549 52.3418 53.527 52.6019 53.064 53.0648C52.6011 53.5278 52.341 54.1557 52.341 54.8104C52.341 55.4651 52.6011 56.093 53.064 56.556C53.527 57.0189 54.1549 57.279 54.8096 57.279H77.0271C77.6818 57.279 78.3097 57.0189 78.7727 56.556C79.2356 56.093 79.4957 55.4651 79.4957 54.8104C79.4957 54.1557 79.2356 53.5278 78.7727 53.0648C78.3097 52.6019 77.6818 52.3418 77.0271 52.3418ZM47.3266 59.1305C47.4073 59.4445 47.4253 59.7714 47.3797 60.0924C47.334 60.4134 47.2256 60.7223 47.0605 61.0014C46.8955 61.2805 46.677 61.5244 46.4177 61.7191C46.1584 61.9137 45.8633 62.0554 45.5492 62.136C45.348 62.1902 45.1404 62.2172 44.9321 62.2162C44.3846 62.2165 43.8525 62.0348 43.4196 61.6996C42.9867 61.3644 42.6775 60.8949 42.5406 60.3648C40.6398 52.9774 33.1784 47.4046 25.1832 47.4046C17.1879 47.4046 9.72657 52.9744 7.82574 60.3648C7.66206 60.999 7.25313 61.5423 6.6889 61.875C6.12467 62.2078 5.45137 62.3028 4.81712 62.1391C4.18286 61.9754 3.6396 61.5665 3.30685 61.0022C2.97411 60.438 2.87912 59.7647 3.0428 59.1305C4.76775 52.4313 9.78211 47.0065 16.145 44.3188C13.695 42.4317 11.8971 39.8251 11.0034 36.8646C10.1098 33.904 10.1652 30.738 11.1619 27.8105C12.1586 24.8831 14.0466 22.341 16.5612 20.5408C19.0757 18.7407 22.0907 17.7727 25.1832 17.7727C28.2757 17.7727 31.2906 18.7407 33.8051 20.5408C36.3197 22.341 38.2077 24.8831 39.2044 27.8105C40.2011 30.738 40.2566 33.904 39.3629 36.8646C38.4693 39.8251 36.6714 42.4317 34.2214 44.3188C40.5873 47.0065 45.6017 52.4313 47.3266 59.1305ZM25.1862 42.4673C27.1392 42.4673 29.0483 41.8882 30.6722 40.8032C32.296 39.7182 33.5617 38.176 34.309 36.3717C35.0564 34.5674 35.252 32.5819 34.871 30.6665C34.49 28.751 33.5495 26.9916 32.1685 25.6106C30.7876 24.2296 29.0281 23.2892 27.1127 22.9082C25.1972 22.5272 23.2118 22.7227 21.4075 23.4701C19.6031 24.2175 18.061 25.4831 16.9759 27.1069C15.8909 28.7308 15.3118 30.6399 15.3118 32.5929C15.3118 35.2117 16.3521 37.7234 18.204 39.5752C20.0558 41.427 22.5674 42.4673 25.1862 42.4673Z" fill="white"/>
</g>
<defs>
<clipPath id="clip0_9_4034">
<rect width="79" height="79" fill="white" transform="translate(0.5 0.5)"/>
</clipPath>
</defs>
</svg>
