<svg width="80" height="80" viewBox="0 0 80 80" fill="none" xmlns="http://www.w3.org/2000/svg">
<path d="M76.0438 46.9125C75.7844 47.107 75.4893 47.2486 75.1752 47.329C74.8612 47.4095 74.5343 47.4273 74.2134 47.3815C73.8924 47.3356 73.5837 47.227 73.3047 47.0618C73.0257 46.8966 72.782 46.6781 72.5875 46.4188C71.0995 44.4187 69.1627 42.7959 66.933 41.681C64.7033 40.5661 62.2429 39.9904 59.75 40C59.2646 40 58.7899 39.8568 58.3853 39.5884C57.9808 39.32 57.6644 38.9383 57.4757 38.491C57.3475 38.1873 57.2815 37.8609 57.2815 37.5313C57.2815 37.2016 57.3475 36.8753 57.4757 36.5715C57.6644 36.1243 57.9808 35.7425 58.3853 35.4741C58.7899 35.2057 59.2646 35.0626 59.75 35.0625C61.1352 35.0624 62.4926 34.6738 63.668 33.9409C64.8434 33.208 65.7898 32.1602 66.3995 30.9164C67.0092 29.6726 67.258 28.2828 67.1174 26.9047C66.9768 25.5267 66.4526 24.2157 65.6043 23.1206C64.756 22.0256 63.6176 21.1904 62.3185 20.7099C61.0193 20.2294 59.6114 20.1229 58.2547 20.4024C56.898 20.682 55.6469 21.3364 54.6435 22.2913C53.6401 23.2463 52.9246 24.4635 52.5783 25.8047C52.4972 26.1188 52.3551 26.4138 52.1601 26.673C51.965 26.9321 51.7208 27.1503 51.4414 27.3151C51.162 27.4798 50.8529 27.588 50.5317 27.6333C50.2105 27.6786 49.8836 27.6602 49.5695 27.5791C49.2554 27.4981 48.9604 27.356 48.7013 27.1609C48.4421 26.9658 48.2239 26.7216 48.0592 26.4422C47.8944 26.1628 47.7863 25.8537 47.741 25.5325C47.6957 25.2114 47.714 24.8844 47.7951 24.5703C48.2758 22.7105 49.1838 20.9885 50.4471 19.5413C51.7104 18.0942 53.294 16.9619 55.0719 16.2344C56.8498 15.507 58.7729 15.2046 60.6883 15.3512C62.6036 15.4978 64.4583 16.0894 66.1048 17.0789C67.7513 18.0685 69.1441 19.4286 70.1724 21.0512C71.2007 22.6737 71.8361 24.5139 72.0281 26.4252C72.2201 28.3366 71.9634 30.2663 71.2783 32.061C70.5933 33.8556 69.4988 35.4656 68.0821 36.7629C71.439 38.2163 74.3572 40.5228 76.5468 43.4532C76.7413 43.7132 76.8826 44.009 76.9626 44.3238C77.0426 44.6385 77.0597 44.9659 77.013 45.2872C76.9663 45.6086 76.8566 45.9175 76.6903 46.1964C76.524 46.4753 76.3043 46.7187 76.0438 46.9125ZM59.4167 65.9219C59.5954 66.2029 59.7153 66.5171 59.7693 66.8456C59.8234 67.1742 59.8104 67.5103 59.7312 67.8337C59.652 68.1571 59.5082 68.4611 59.3084 68.7275C59.1086 68.9938 58.8571 69.2171 58.5688 69.3837C58.2805 69.5503 57.9615 69.6569 57.631 69.6971C57.3005 69.7372 56.9653 69.7101 56.6455 69.6173C56.3257 69.5245 56.028 69.368 55.7703 69.1572C55.5126 68.9464 55.3001 68.6857 55.1458 68.3906C53.5906 65.7573 51.3758 63.575 48.7197 62.0589C46.0637 60.5429 43.0583 59.7455 40 59.7455C36.9418 59.7455 33.9364 60.5429 31.2803 62.0589C28.6243 63.575 26.4094 65.7573 24.8542 68.3906C24.6999 68.6857 24.4875 68.9464 24.2298 69.1572C23.972 69.368 23.6743 69.5245 23.3546 69.6173C23.0348 69.7101 22.6996 69.7372 22.369 69.6971C22.0385 69.6569 21.7195 69.5503 21.4312 69.3837C21.143 69.2171 20.8914 68.9938 20.6916 68.7275C20.4919 68.4611 20.3481 68.1571 20.2689 67.8337C20.1896 67.5103 20.1767 67.1742 20.2307 66.8456C20.2847 66.5171 20.4047 66.2029 20.5833 65.9219C22.9767 61.8095 26.6262 58.5733 30.9953 56.6888C28.5368 54.8065 26.73 52.2011 25.8288 49.2388C24.9276 46.2765 24.9774 43.1063 25.9711 40.1738C26.9648 37.2412 28.8525 34.6938 31.3689 32.8896C33.8852 31.0854 36.9037 30.1151 40 30.1151C43.0963 30.1151 46.1148 31.0854 48.6312 32.8896C51.1475 34.6938 53.0352 37.2412 54.029 40.1738C55.0227 43.1063 55.0724 46.2765 54.1713 49.2388C53.2701 52.2011 51.4633 54.8065 49.0048 56.6888C53.3739 58.5733 57.0233 61.8095 59.4167 65.9219ZM40 54.8125C41.9531 54.8125 43.8623 54.2334 45.4863 53.1483C47.1102 52.0632 48.3759 50.5209 49.1233 48.7165C49.8707 46.9121 50.0663 44.9266 49.6853 43.011C49.3042 41.0954 48.3637 39.3359 46.9827 37.9548C45.6017 36.5738 43.8421 35.6333 41.9265 35.2523C40.011 34.8712 38.0254 35.0668 36.221 35.8142C34.4166 36.5616 32.8743 37.8273 31.7893 39.4513C30.7042 41.0752 30.125 42.9844 30.125 44.9375C30.125 47.5565 31.1654 50.0683 33.0173 51.9202C34.8693 53.7721 37.381 54.8125 40 54.8125ZM22.7188 37.5313C22.7188 36.8765 22.4587 36.2486 21.9957 35.7856C21.5327 35.3226 20.9048 35.0625 20.25 35.0625C18.8648 35.0624 17.5074 34.6738 16.332 33.9409C15.1566 33.208 14.2103 32.1602 13.6005 30.9164C12.9908 29.6726 12.7421 28.2828 12.8826 26.9047C13.0232 25.5267 13.5474 24.2157 14.3957 23.1206C15.244 22.0256 16.3824 21.1904 17.6816 20.7099C18.9808 20.2294 20.3887 20.1229 21.7454 20.4024C23.1021 20.682 24.3532 21.3364 25.3566 22.2913C26.36 23.2463 27.0754 24.4635 27.4217 25.8047C27.5854 26.439 27.9944 26.9823 28.5586 27.3151C29.1229 27.6478 29.7962 27.7428 30.4305 27.5791C31.0648 27.4154 31.6081 27.0065 31.9409 26.4422C32.2736 25.878 32.3686 25.2046 32.2049 24.5703C31.7243 22.7105 30.8162 20.9885 29.5529 19.5413C28.2896 18.0942 26.7061 16.9619 24.9282 16.2344C23.1503 15.507 21.2271 15.2046 19.3118 15.3512C17.3964 15.4978 15.5417 16.0894 13.8952 17.0789C12.2488 18.0685 10.8559 19.4286 9.82764 21.0512C8.79933 22.6737 8.1639 24.5139 7.9719 26.4252C7.77991 28.3366 8.03666 30.2663 8.72171 32.061C9.40676 33.8556 10.5012 35.4656 11.918 36.7629C8.56445 38.2177 5.64957 40.5241 3.46252 43.4532C3.06926 43.977 2.90019 44.6356 2.99249 45.284C3.0848 45.9325 3.43093 46.5177 3.95473 46.911C4.47853 47.3042 5.1371 47.4733 5.78556 47.381C6.43403 47.2887 7.01926 46.9426 7.41252 46.4188C8.90052 44.4187 10.8373 42.7959 13.0671 41.681C15.2968 40.5661 17.7571 39.9904 20.25 40C20.9048 40 21.5327 39.7399 21.9957 39.2769C22.4587 38.814 22.7188 38.186 22.7188 37.5313Z" fill="white"/>
</svg>
