<svg width="32" height="28" viewBox="0 0 32 28" fill="none" xmlns="http://www.w3.org/2000/svg">
<path fill-rule="evenodd" clip-rule="evenodd" d="M15.5294 0.117647C15.8235 -0.0392157 16.1765 -0.0392157 16.4706 0.117647L31.4706 8.11765C31.7965 8.29144 32 8.63069 32 9C32 9.36931 31.7965 9.70856 31.4706 9.88235L16.4706 17.8824C16.1765 18.0392 15.8235 18.0392 15.5294 17.8824L0.529412 9.88235C0.203548 9.70856 0 9.36931 0 9C0 8.63069 0.203548 8.29144 0.529412 8.11765L15.5294 0.117647ZM3.125 9L16 15.8667L28.875 9L16 2.13333L3.125 9Z" fill="white" fill-opacity="0.75"/>
<path fill-rule="evenodd" clip-rule="evenodd" d="M15.1176 8.52936C15.3775 8.04205 15.9832 7.8577 16.4705 8.1176L23.9705 12.1176C24.2964 12.2914 24.5 12.6306 24.5 13V27C24.5 27.5522 24.0522 28 23.5 28C22.9477 28 22.5 27.5522 22.5 27V13.6L15.5294 9.88231C15.0421 9.62241 14.8577 9.01667 15.1176 8.52936Z" fill="white" fill-opacity="0.75"/>
<path fill-rule="evenodd" clip-rule="evenodd" d="M4.50001 9.86255C5.05229 9.86255 5.50001 10.3103 5.50001 10.8625V17.675L5.5022 17.6779C6.24381 18.6741 9.532 22.5 16 22.5C22.468 22.5 25.7563 18.6741 26.4979 17.6779L26.5 17.675V10.8625C26.5 10.3103 26.9477 9.86255 27.5 9.86255C28.0523 9.86255 28.5 10.3103 28.5 10.8625V17.6875L28.5 17.6918C28.4982 18.1197 28.3574 18.5354 28.099 18.8764C27.1603 20.1357 23.3488 24.5 16 24.5C8.65117 24.5 4.83971 20.1357 3.90099 18.8764C3.64258 18.5354 3.50183 18.1197 3.50002 17.6918L3.5 17.6875L3.50001 10.8625C3.50001 10.3103 3.94772 9.86255 4.50001 9.86255Z" fill="white" fill-opacity="0.75"/>
</svg>
