<svg width="26" height="26" viewBox="0 0 26 26" fill="none" xmlns="http://www.w3.org/2000/svg">
<path fill-rule="evenodd" clip-rule="evenodd" d="M13 2C6.92487 2 2 6.92487 2 13C2 19.0751 6.92487 24 13 24C19.0751 24 24 19.0751 24 13C24 6.92487 19.0751 2 13 2ZM0 13C0 5.8203 5.8203 0 13 0C20.1797 0 26 5.8203 26 13C26 20.1797 20.1797 26 13 26C5.8203 26 0 20.1797 0 13Z" fill="white" fill-opacity="0.75"/>
<path fill-rule="evenodd" clip-rule="evenodd" d="M0 13C0 12.4477 0.447715 12 1 12H25C25.5523 12 26 12.4477 26 13C26 13.5523 25.5523 14 25 14H1C0.447715 14 0 13.5523 0 13Z" fill="white" fill-opacity="0.75"/>
<path fill-rule="evenodd" clip-rule="evenodd" d="M10.3837 5.13816C9.54386 7.09922 9 9.87809 9 13C9 16.1218 9.54386 18.9007 10.3837 20.8617C10.8044 21.8441 11.2797 22.5751 11.7565 23.046C12.229 23.5126 12.6481 23.6749 13 23.6749C13.3519 23.6749 13.771 23.5126 14.2435 23.046C14.7203 22.5751 15.1956 21.8441 15.6163 20.8617C16.4561 18.9007 17 16.1218 17 13C17 9.87809 16.4561 7.09922 15.6163 5.13816C15.1956 4.15584 14.7203 3.42482 14.2435 2.95393C13.771 2.48726 13.3519 2.32495 13 2.32495C12.6481 2.32495 12.229 2.48726 11.7565 2.95393C11.2797 3.42482 10.8044 4.15584 10.3837 5.13816ZM10.3511 1.53093C11.075 0.816029 11.9712 0.324951 13 0.324951C14.0288 0.324951 14.9251 0.816029 15.6489 1.53093C16.3685 2.24161 16.9707 3.22036 17.4548 4.3508C18.4246 6.61526 19 9.67389 19 13C19 16.326 18.4246 19.3846 17.4548 21.6491C16.9707 22.7795 16.3685 23.7583 15.6489 24.469C14.925 25.1839 14.0288 25.6749 13 25.6749C11.9712 25.6749 11.0749 25.1839 10.3511 24.469C9.6315 23.7583 9.02935 22.7795 8.54522 21.6491C7.57543 19.3846 7 16.326 7 13C7 9.67389 7.57543 6.61526 8.54522 4.3508C9.02935 3.22036 9.6315 2.24161 10.3511 1.53093Z" fill="white" fill-opacity="0.75"/>
</svg>
