<svg width="461" height="315" viewBox="0 0 461 315" fill="none" xmlns="http://www.w3.org/2000/svg">
<rect x="183.176" y="276.85" width="7.03752" height="3.86403" transform="rotate(112 183.176 276.85)" fill="#E1348B" fill-opacity="0.85"/>
<rect x="360.176" y="147.217" width="9.53044" height="5.11049" transform="rotate(64 360.176 147.217)" fill="#E1348B" fill-opacity="0.35"/>
<rect x="3.6875" y="301.778" width="10.7769" height="6.35695" transform="rotate(-110 3.6875 301.778)" fill="#E1348B" fill-opacity="0.75"/>
<rect x="341.477" y="195.829" width="10.7769" height="3.86403" transform="rotate(-164 341.477 195.829)" fill="#E1348B" fill-opacity="0.65"/>
<rect x="239.266" y="106.084" width="18.2557" height="3.86403" transform="rotate(84 239.266 106.084)" fill="#E1348B" fill-opacity="0.35"/>
<rect x="41.082" y="131.013" width="10.7769" height="2.61757" transform="rotate(-139 41.082 131.013)" fill="#E1348B" fill-opacity="0.35"/>
<rect x="279.152" y="264.384" width="19.5021" height="3.86403" transform="rotate(75 279.152 264.384)" fill="#E1348B" fill-opacity="0.65"/>
<rect x="118.926" y="258.908" width="19.5021" height="2.61757" transform="rotate(-122 118.926 258.908)" fill="#E1348B" fill-opacity="0.65"/>
<rect x="408.785" y="276.85" width="3.29814" height="5.11049" transform="rotate(-67 408.785 276.85)" fill="#FF7272" fill-opacity="0.6"/>
<rect x="365.156" y="311.75" width="5.79106" height="2.61757" transform="rotate(-2 365.156 311.75)" fill="#E1348B" fill-opacity="0.45"/>
<rect x="332.75" y="308.011" width="10.7769" height="5.11049" transform="rotate(174 332.75 308.011)" fill="#E1348B" fill-opacity="0.75"/>
<rect x="201.871" y="304.271" width="14.5163" height="2.61757" transform="rotate(-169 201.871 304.271)" fill="#E1348B" fill-opacity="0.6"/>
<rect x="152.016" y="101.098" width="10.7769" height="3.86403" transform="rotate(-84 152.016 101.098)" fill="#E1348B" fill-opacity="0.75"/>
<rect x="434.961" y="199.569" width="5.79106" height="2.61757" transform="rotate(-119 434.961 199.569)" fill="#E1348B" fill-opacity="0.6"/>
<rect x="174.449" y="111.069" width="14.5163" height="5.11049" transform="rotate(22 174.449 111.069)" fill="#E1348B" fill-opacity="0.45"/>
<rect x="383.855" y="153.449" width="12.0234" height="3.86403" transform="rotate(29 383.855 153.449)" fill="#FF7272" fill-opacity="0.9"/>
<rect x="83.4609" y="102.345" width="5.79106" height="3.86403" transform="rotate(164 83.4609 102.345)" fill="#E1348B" fill-opacity="0.45"/>
<rect x="271.676" y="244.441" width="15.7627" height="2.61757" transform="rotate(159 271.676 244.441)" fill="#E1348B" fill-opacity="0.85"/>
<rect x="371.391" y="280.589" width="3.29814" height="3.86403" transform="rotate(153 371.391 280.589)" fill="#FF7272" fill-opacity="0.75"/>
<rect x="398.812" y="255.659" width="4.5446" height="2.61757" transform="rotate(-102 398.812 255.659)" fill="#FF7272"/>
<rect x="138.305" y="59.9648" width="5.79106" height="3.86403" transform="rotate(93 138.305 59.9648)" fill="#E1348B" fill-opacity="0.65"/>
<circle cx="106.389" cy="220.199" r="1.17791" fill="#FF7272" fill-opacity="0.85"/>
<circle cx="348.885" cy="249.359" r="1.17791" fill="#FF7272" fill-opacity="0.6"/>
<circle cx="419.936" cy="66.1291" r="1.17791" fill="#E1348B"/>
<circle cx="233.59" cy="288.622" r="1.80114" fill="#FF7272"/>
<circle cx="457.327" cy="128.452" r="3.67083" fill="#FF7272" fill-opacity="0.9"/>
<circle cx="436.139" cy="204.486" r="2.42437" fill="#E1348B" fill-opacity="0.9"/>
<circle cx="84.6353" cy="119.726" r="2.42437" fill="#FF7272" fill-opacity="0.85"/>
<circle cx="447.358" cy="88.5646" r="1.17791" fill="#E1348B" fill-opacity="0.9"/>
<circle cx="191.211" cy="110.378" r="1.80114" fill="#E1348B" fill-opacity="0.65"/>
<circle cx="387.526" cy="127.205" r="3.67083" fill="#E1348B" fill-opacity="0.75"/>
<circle cx="373.192" cy="129.075" r="1.80114" fill="#FF7272" fill-opacity="0.85"/>
<circle cx="361.977" cy="190.152" r="1.80114" fill="#E1348B" fill-opacity="0.9"/>
<circle cx="125.712" cy="245.752" r="3.0476" fill="#E1348B" fill-opacity="0.75"/>
<circle cx="90.8693" cy="175.818" r="1.17791" fill="#E1348B" fill-opacity="0.65"/>
<circle cx="105.147" cy="221.446" r="1.17791" fill="#FF7272" fill-opacity="0.45"/>
<circle cx="106.45" cy="161.484" r="1.80114" fill="#FF7272" fill-opacity="0.35"/>
<circle cx="51.5458" cy="271.305" r="3.67083" fill="#E1348B"/>
<circle cx="92.739" cy="75.4773" r="3.0476" fill="#E1348B"/>
<circle cx="115.115" cy="257.593" r="1.17791" fill="#E1348B" fill-opacity="0.75"/>
<circle cx="105.143" cy="265.072" r="3.67083" fill="#FF7272" fill-opacity="0.85"/>
<circle cx="88.9968" cy="311.058" r="3.0476" fill="#E1348B" fill-opacity="0.65"/>
<path d="M403.471 155.602L406.305 153.544L409.138 155.602L408.056 158.933L404.554 158.933L403.471 155.602Z" fill="#E1348B" fill-opacity="0.45"/>
<path d="M90.4546 262.118L88.7316 260.511L89.2616 258.215L91.5145 257.527L93.2374 259.133L92.7074 261.429L90.4546 262.118Z" fill="#E1348B" fill-opacity="0.65"/>
<path d="M159.034 261.401L163.824 262.16L165.561 266.686L162.51 270.454L157.721 269.696L155.983 265.169L159.034 261.401Z" fill="#E1348B" fill-opacity="0.45"/>
<path d="M223.862 282.616L221.386 280.14L222.976 277.019L226.435 277.567L226.983 281.026L223.862 282.616Z" fill="#FF7272" fill-opacity="0.65"/>
<path d="M184.613 310.308L177.304 309.925L181.29 303.787L184.613 310.308Z" fill="#E1348B" fill-opacity="0.75"/>
<path d="M312.536 252.961L317.142 247.274L319.765 254.106L312.536 252.961Z" fill="#E1348B" fill-opacity="0.6"/>
<path d="M296.124 255.88L292.359 253.962L292.138 249.742L295.682 247.441L299.447 249.359L299.668 253.579L296.124 255.88Z" fill="#E1348B" fill-opacity="0.6"/>
<path d="M10.4095 165.128L14.1777 162.076L18.7044 163.814L19.4629 168.603L15.6947 171.654L11.168 169.917L10.4095 165.128Z" fill="#FF7272" fill-opacity="0.75"/>
<path d="M45.4336 241.093L42.5739 247.83L38.1694 241.985L45.4336 241.093Z" fill="#E1348B"/>
<path d="M48.9326 92.6244L47.7596 87.9197L51.2474 84.5515L55.9083 85.888L57.0814 90.5927L53.5935 93.9609L48.9326 92.6244Z" fill="#FF7272" fill-opacity="0.35"/>
<path d="M297.034 94.2978L300.419 98.192L295.354 99.1765L297.034 94.2978Z" fill="#E1348B" fill-opacity="0.75"/>
<path d="M302.956 144.408L296.555 140.86L302.828 137.09L302.956 144.408Z" fill="#E1348B" fill-opacity="0.6"/>
<path d="M23.5256 87.787L25.5161 83.0976L30.2055 85.0881L28.215 89.7775L23.5256 87.787Z" fill="#E1348B" fill-opacity="0.85"/>
<path d="M286.802 284.188L282.125 289.203L277.11 284.526L281.787 279.511L286.802 284.188Z" fill="#FF7272" fill-opacity="0.9"/>
<path d="M349.009 150.471L350.543 147.917L353.522 147.969L354.966 150.575L353.432 153.128L350.453 153.076L349.009 150.471Z" fill="#FF7272" fill-opacity="0.6"/>
<path d="M288.456 238.419L287.939 235.485L290.221 233.57L293.02 234.589L293.538 237.523L291.256 239.438L288.456 238.419Z" fill="#E1348B" fill-opacity="0.6"/>
<path d="M245.952 99.3366L250.296 101.745L249.349 106.621L244.418 107.226L242.319 102.724L245.952 99.3366Z" fill="#FF7272" fill-opacity="0.85"/>
<path d="M137.28 257.988L135.222 255.154L137.28 252.321L140.611 253.403L140.611 256.905L137.28 257.988Z" fill="#E1348B" fill-opacity="0.75"/>
<path d="M56.1089 270.696L59.1295 275.53L55.4656 279.897L50.1806 277.761L50.5782 272.075L56.1089 270.696Z" fill="#E1348B" fill-opacity="0.6"/>
<path d="M288.613 123.112L293.508 119.685L296.935 124.58L292.04 128.007L288.613 123.112Z" fill="#E1348B" fill-opacity="0.35"/>
<path d="M62.7027 222.525L62.5294 227.489L57.7544 228.858L54.9767 224.74L58.0349 220.826L62.7027 222.525Z" fill="#E1348B" fill-opacity="0.85"/>
<path d="M7.71368 222.91L5.31529 224.295L3.25721 222.442L4.38363 219.912L7.13788 220.201L7.71368 222.91Z" fill="#E1348B" fill-opacity="0.65"/>
<path d="M33.8865 223.789L34.7798 220.122L32.5781 217.057L36.2445 217.951L39.3092 215.749L38.4159 219.415L40.6176 222.48L36.9512 221.587L33.8865 223.789Z" fill="#FF7272" fill-opacity="0.85"/>
<path d="M202.747 279.266L203.6 275.847L200.612 273.981L204.126 273.735L204.979 270.317L206.298 273.583L209.813 273.337L207.114 275.602L208.434 278.868L205.446 277.001L202.747 279.266Z" fill="#E1348B" fill-opacity="0.75"/>
<path d="M45.8475 240.574L46.2604 242.699L48.4087 242.962L46.5157 244.012L46.9287 246.136L45.3457 244.66L43.4527 245.71L44.3674 243.748L42.7845 242.272L44.9327 242.536L45.8475 240.574Z" fill="#FF7272" fill-opacity="0.45"/>
<path d="M156.194 312.718L154.484 312.658L153.898 314.266L153.427 312.621L151.716 312.561L153.135 311.604L152.663 309.959L154.012 311.013L155.431 310.056L154.846 311.664L156.194 312.718Z" fill="#E1348B" fill-opacity="0.45"/>
<path d="M70.0169 192.468L72.9537 192.318L72.8987 189.377L74.4972 191.846L77.0159 190.328L75.6776 192.946L78.2513 194.369L75.3145 194.519L75.3696 197.459L73.7711 194.991L71.2524 196.509L72.5907 193.89L70.0169 192.468Z" fill="#E1348B"/>
<path d="M32.2421 169.455L32.5926 167.163L31.0809 165.405L33.3727 165.756L35.1307 164.244L34.7802 166.536L36.2919 168.294L34 167.943L32.2421 169.455Z" fill="#E1348B" fill-opacity="0.6"/>
<path d="M235.011 115.231L232.172 116.89L231.584 120.126L229.924 117.287L226.688 116.698L229.528 115.039L230.116 111.803L231.776 114.642L235.011 115.231Z" fill="#FF7272"/>
<path d="M402.695 89.0469L403.914 87.6778L403.669 85.8609L405.038 87.0804L406.855 86.8349L405.635 88.204L405.881 90.021L404.512 88.8014L402.695 89.0469Z" fill="#FF7272" fill-opacity="0.65"/>
<path d="M92.6153 114.914L92.9419 113.233L91.4449 112.404L93.1438 112.195L93.4704 110.515L94.1937 112.066L95.8926 111.857L94.6408 113.025L95.3641 114.576L93.8671 113.746L92.6153 114.914Z" fill="#FF7272" fill-opacity="0.9"/>
<path d="M28.9022 297.806L32.5525 298.764L35.6552 296.616L34.698 300.266L36.8459 303.369L33.1957 302.412L30.0929 304.559L31.0501 300.909L28.9022 297.806Z" fill="#FF7272" fill-opacity="0.6"/>
<path d="M19.9481 189.885L19.5178 192.163L20.9673 193.973L18.689 193.543L16.8794 194.992L17.3097 192.714L15.8602 190.904L18.1385 191.334L19.9481 189.885Z" fill="#FF7272"/>
<path d="M33.8409 121.73L32.9497 120.354L31.5454 121.2L32.2916 119.74L30.8567 118.947L32.494 118.863L32.4633 117.224L33.3545 118.6L34.7588 117.754L34.0126 119.214L35.4475 120.007L33.8102 120.091L33.8409 121.73Z" fill="#FF7272" fill-opacity="0.9"/>
<path d="M259.496 267.056L260.742 268.714L262.438 267.522L261.626 269.43L263.506 270.304L261.448 270.554L261.631 272.619L260.386 270.961L258.689 272.153L259.501 270.245L257.621 269.372L259.679 269.122L259.496 267.056Z" fill="#FF7272" fill-opacity="0.85"/>
<path d="M344.725 238.397L346.275 237.417L346.54 235.603L347.519 237.152L349.334 237.417L347.784 238.397L347.519 240.211L346.539 238.662L344.725 238.397Z" fill="#FF7272" fill-opacity="0.6"/>
<path d="M76.0418 279.63L75.5549 281.739L77.4102 282.854L75.254 283.042L74.7671 285.151L73.9214 283.159L71.7653 283.348L73.3988 281.928L72.5531 279.935L74.4083 281.05L76.0418 279.63Z" fill="#E1348B" fill-opacity="0.85"/>
<path d="M345.08 196.416L346.097 194.891L345.601 193.126L347.127 194.143L348.892 193.647L347.875 195.172L348.371 196.938L346.845 195.92L345.08 196.416Z" fill="#FF7272" fill-opacity="0.9"/>
<path d="M44.6008 228.551L46.0582 231.5L49.2448 232.312L46.2968 233.77L45.4842 236.956L44.0268 234.008L40.8401 233.196L43.7882 231.738L44.6008 228.551Z" fill="#FF7272" fill-opacity="0.45"/>
<path d="M365.011 251.669L365.992 254.095L368.603 253.913L366.598 255.595L367.578 258.022L365.359 256.635L363.354 258.317L363.987 255.778L361.767 254.391L364.378 254.208L365.011 251.669Z" fill="#FF7272" fill-opacity="0.65"/>
<path d="M177.574 82.2234L176.39 84.2171L177.134 86.4133L175.14 85.2298L172.944 85.9729L174.127 83.9792L173.384 81.783L175.378 82.9665L177.574 82.2234Z" fill="#FF7272" fill-opacity="0.45"/>
<path d="M108.528 282.337L105.07 281.664L103.362 284.745L102.933 281.249L99.4748 280.577L102.668 279.088L102.238 275.591L104.641 278.168L107.834 276.679L106.126 279.76L108.528 282.337Z" fill="#FF7272" fill-opacity="0.65"/>
<path d="M185.587 62.1355L188.655 62.0283L189.501 59.0772L190.551 61.9621L193.619 61.855L191.2 63.745L192.25 66.6299L189.705 64.9132L187.286 66.8033L188.132 63.8522L185.587 62.1355Z" fill="#E1348B"/>
<path d="M262.883 210.016C263.863 212.112 257.929 215.052 254.835 214.625C252.191 213.916 249.596 213.034 247.067 211.985C238.837 208.845 227.286 204.072 227.286 204.072L222.032 209.29L194.992 231.222L169.258 202.403C169.258 202.403 181.834 190.443 193.921 179.427C195.736 177.73 197.623 176.079 199.365 174.473L199.701 174.173C207.868 166.914 214.719 161.152 215.744 161.424C218.548 162.123 261.903 207.91 262.883 210.016Z" fill="#FFC4C0"/>
<path d="M262.881 210.015C263.861 212.12 257.927 215.051 254.833 214.625C252.188 213.916 249.593 213.03 247.065 211.975C238.835 208.854 227.284 204.072 227.284 204.072L222.021 209.298L221.114 210.024L193.547 179.781L193.937 179.418L199.381 174.472C199.49 174.364 199.608 174.264 199.717 174.173C207.884 166.914 214.735 161.152 215.769 161.415C218.546 162.114 261.901 207.91 262.881 210.015Z" fill="#EBEBEB"/>
<path d="M263.729 210.606C262.767 208.446 219.203 161.271 216.399 160.526C215.346 160.227 208.096 166.18 199.557 173.611L199.285 173.847L227.052 204.599L227.56 204.109C227.56 204.109 252.314 214.707 255.48 215.197C258.647 215.687 264.709 212.756 263.729 210.606Z" fill="#E1348B"/>
<path opacity="0.1" d="M263.729 210.606C262.767 208.446 219.203 161.271 216.399 160.526C215.346 160.227 208.096 166.18 199.557 173.611L199.285 173.847L227.052 204.599L227.56 204.109C227.56 204.109 252.314 214.707 255.48 215.197C258.647 215.687 264.709 212.756 263.729 210.606Z" fill="black"/>
<path d="M261.404 211.758C253.872 203.99 224.2 171.932 217.331 163.665C217.277 163.602 217.331 163.556 217.386 163.665C225.026 171.206 254.435 203.5 261.54 211.676C261.685 211.812 261.603 211.921 261.404 211.758Z" fill="#263238"/>
<path d="M230.272 207.911C226.797 205.316 223.739 201.042 223.766 196.596C223.766 196.424 224.011 196.424 224.065 196.596C225.865 200.477 228.073 204.155 230.653 207.567C230.675 207.619 230.68 207.676 230.668 207.731C230.656 207.786 230.627 207.836 230.585 207.874C230.543 207.912 230.49 207.936 230.434 207.943C230.378 207.949 230.321 207.938 230.272 207.911Z" fill="#263238"/>
<path d="M233.709 208.909C230.243 206.323 227.185 202.049 227.203 197.594C227.203 197.421 227.457 197.43 227.512 197.594C229.307 201.477 231.516 205.155 234.099 208.564C234.124 208.617 234.13 208.677 234.118 208.734C234.106 208.791 234.076 208.842 234.032 208.881C233.988 208.92 233.933 208.943 233.875 208.948C233.817 208.953 233.759 208.94 233.709 208.909Z" fill="#263238"/>
<path d="M237.158 209.907C233.692 207.321 230.634 203.047 230.652 198.601C230.652 198.429 230.897 198.429 230.961 198.601C232.764 202.463 234.972 206.122 237.549 209.517C237.574 209.543 237.595 209.573 237.608 209.607C237.622 209.64 237.629 209.676 237.629 209.712C237.629 209.748 237.622 209.784 237.608 209.818C237.595 209.851 237.574 209.882 237.549 209.907C237.523 209.933 237.493 209.953 237.459 209.967C237.426 209.981 237.39 209.988 237.354 209.988C237.317 209.988 237.281 209.981 237.248 209.967C237.215 209.953 237.184 209.933 237.158 209.907Z" fill="#263238"/>
<path d="M230.363 212.765C230.036 208.954 228.085 205.424 226.651 201.958C226.612 201.885 226.556 201.823 226.488 201.775C226.421 201.728 226.343 201.697 226.261 201.685C226.179 201.672 226.096 201.679 226.017 201.705C225.938 201.73 225.867 201.773 225.808 201.831C225.798 201.816 225.784 201.804 225.768 201.795C225.752 201.787 225.735 201.782 225.717 201.782C225.699 201.782 225.681 201.787 225.665 201.795C225.649 201.804 225.636 201.816 225.626 201.831C223.728 205.339 222.79 209.286 222.904 213.273C223.013 215.596 224.365 218.581 227.196 218.255C229.845 217.964 230.553 214.961 230.363 212.765ZM228.548 215.886C225.617 219.607 224.011 214.253 224.011 212.538C224.023 211.43 224.108 210.323 224.265 209.226C224.632 206.965 225.113 204.724 225.708 202.511C226.307 204.263 227.051 205.941 227.704 207.656C228.53 209.716 230.19 213.827 228.584 215.868L228.548 215.886Z" fill="#263238"/>
<path d="M211.215 195.815C209.953 198.373 212.331 200.642 214.49 201.513C218.221 202.95 222.267 203.373 226.214 202.738C226.232 202.735 226.249 202.729 226.264 202.718C226.279 202.708 226.291 202.694 226.3 202.679C226.308 202.663 226.313 202.645 226.314 202.627C226.315 202.609 226.312 202.591 226.305 202.575C226.379 202.539 226.444 202.486 226.494 202.42C226.544 202.354 226.578 202.278 226.593 202.196C226.608 202.115 226.604 202.031 226.581 201.952C226.557 201.873 226.516 201.8 226.459 201.74C223.664 199.245 221.015 196.223 217.503 194.662C215.434 193.746 212.394 193.401 211.215 195.815ZM221.405 198.818C222.811 200.016 224.127 201.268 225.606 202.448C223.328 202.203 221.069 202.058 218.791 201.586C217.703 201.375 216.629 201.09 215.579 200.733C213.964 200.152 209.445 196.867 213.928 195.343C216.396 194.472 219.735 197.393 221.405 198.818Z" fill="#263238"/>
<path d="M218.756 217.683C218.756 217.683 157.371 258.362 130.938 263.216C118.307 265.539 104.043 253.534 105.34 239.733C106.547 226.857 137.244 197.856 144.005 188.011C146.137 184.926 148.995 164.682 148.995 164.682L178.368 169.591C178.368 169.591 178.105 183.819 176.971 191.822C176.956 191.96 176.928 192.097 176.889 192.23L186.19 184.064L218.756 217.683Z" fill="#37474F"/>
<path d="M197.041 205.08C192.168 200.262 187.06 195.679 182.187 190.916C182.087 190.825 181.933 190.916 182.024 191.043C186.797 195.924 191.397 200.951 196.261 205.743C201.124 210.534 206.179 215.161 211.151 219.862C211.278 219.98 211.487 219.807 211.36 219.68C206.578 214.826 201.887 209.871 197.041 205.08Z" fill="#263238"/>
<path d="M177.153 192.475C175.855 194.063 174.694 195.787 173.478 197.43C172.262 199.072 171.055 200.669 169.794 202.257C167.244 205.442 164.567 208.536 161.818 211.558C156.285 217.654 150.35 223.371 144.051 228.672C140.53 231.621 136.964 234.552 133.162 237.156C133.081 237.21 133.162 237.337 133.262 237.274C135.984 235.405 138.788 233.554 141.429 231.575C140.222 233.172 139.051 234.815 137.844 236.421C137.79 236.503 137.908 236.602 137.972 236.521C139.314 234.824 140.694 233.154 142 231.439C142.016 231.42 142.026 231.398 142.032 231.374C142.038 231.351 142.039 231.326 142.035 231.302C142.031 231.278 142.021 231.255 142.007 231.235C141.994 231.215 141.976 231.198 141.955 231.185L143.325 230.16C146.61 227.607 149.783 224.927 152.844 222.12C158.897 216.558 164.462 210.486 169.476 203.972C170.892 202.157 172.271 200.297 173.614 198.392C174.981 196.542 176.229 194.609 177.353 192.603C177.489 192.475 177.217 192.348 177.153 192.475Z" fill="#263238"/>
<path d="M290.814 190.997C292.248 192.811 287.184 197.031 284.036 197.348C281.299 197.262 278.571 196.998 275.869 196.559C267.131 195.397 254.79 193.401 254.79 193.401L250.879 199.699L230.399 226.666L197.941 205.107C197.941 205.107 207.433 190.588 216.661 177.077C218.086 175.008 219.492 172.976 220.871 170.997L221.116 170.634C227.396 161.687 232.749 154.51 233.82 154.537C236.66 154.564 289.38 189.173 290.814 190.997Z" fill="#FFC4C0"/>
<path d="M290.811 190.997C292.244 192.812 287.181 197.04 284.032 197.349C281.296 197.263 278.568 197 275.866 196.559C267.137 195.398 254.787 193.402 254.787 193.402L250.885 199.699L250.304 200.461L216.141 177.831L216.676 177.059C218.092 174.991 219.498 172.958 220.868 170.98C220.959 170.862 221.041 170.735 221.122 170.617C227.401 161.67 232.755 154.501 233.826 154.52C236.657 154.556 289.368 189.173 290.811 190.997Z" fill="#EBEBEB"/>
<path d="M291.6 191.097C290.139 189.282 236.412 154.066 233.526 154.029C232.428 154.029 226.848 161.524 220.36 170.816C220.298 170.917 220.232 171.013 220.16 171.107L254.569 194.182L254.941 193.592C254.941 193.592 281.528 197.848 284.722 197.557C287.916 197.267 293.07 192.948 291.6 191.097Z" fill="#E1348B"/>
<path d="M289.633 192.775C280.432 187.077 243.854 163.194 235.189 156.851C235.116 156.797 235.189 156.752 235.189 156.797C244.435 162.241 280.813 186.433 289.696 192.63C289.914 192.757 289.823 192.902 289.633 192.775Z" fill="#263238"/>
<path d="M258.492 196.613C254.49 194.943 250.489 191.541 249.418 187.221C249.418 187.058 249.618 186.994 249.708 187.112C252.398 190.455 255.44 193.497 258.782 196.186C258.817 196.232 258.836 196.287 258.837 196.344C258.839 196.401 258.822 196.457 258.79 196.504C258.758 196.551 258.712 196.587 258.659 196.606C258.605 196.626 258.547 196.628 258.492 196.613Z" fill="#263238"/>
<path d="M262.074 196.741C258.072 195.081 254.071 191.678 253 187.359C253 187.186 253.2 187.132 253.29 187.241C255.983 190.581 259.025 193.623 262.364 196.315C262.399 196.36 262.418 196.415 262.419 196.472C262.421 196.529 262.404 196.585 262.372 196.632C262.34 196.679 262.294 196.715 262.241 196.735C262.187 196.754 262.129 196.757 262.074 196.741Z" fill="#263238"/>
<path d="M265.662 196.877C261.669 195.208 257.668 191.814 256.588 187.486C256.542 187.323 256.778 187.268 256.878 187.377C259.57 190.717 262.612 193.759 265.952 196.451C265.987 196.496 266.006 196.551 266.007 196.608C266.009 196.665 265.992 196.721 265.96 196.768C265.928 196.816 265.882 196.851 265.828 196.871C265.775 196.891 265.717 196.893 265.662 196.877Z" fill="#263238"/>
<path d="M259.788 201.295C258.545 197.666 255.796 194.735 253.563 191.722C253.508 191.659 253.439 191.61 253.361 191.579C253.283 191.547 253.199 191.535 253.116 191.543C253.032 191.551 252.952 191.579 252.882 191.625C252.811 191.67 252.752 191.731 252.71 191.804C252.695 191.795 252.678 191.789 252.661 191.788C252.643 191.787 252.626 191.79 252.61 191.798C252.594 191.805 252.58 191.816 252.569 191.829C252.558 191.843 252.55 191.859 252.547 191.876C251.562 195.738 251.612 199.791 252.692 203.627C253.355 205.86 255.414 208.427 258.064 207.42C260.55 206.458 260.478 203.4 259.788 201.295ZM258.817 204.762C256.884 209.081 254.035 204.281 253.6 202.62C253.343 201.542 253.158 200.447 253.046 199.344C252.783 197.058 252.846 194.807 252.81 192.475C253.817 194.027 254.943 195.479 256.004 197.012C257.247 198.782 259.852 202.375 258.79 204.762H258.817Z" fill="#263238"/>
<path d="M237.104 189.553C236.505 192.339 239.364 193.963 241.641 194.281C245.596 194.762 249.609 194.192 253.274 192.629C253.291 192.623 253.307 192.613 253.32 192.6C253.332 192.586 253.342 192.57 253.347 192.552C253.352 192.535 253.353 192.516 253.35 192.498C253.347 192.48 253.339 192.463 253.328 192.448C253.391 192.394 253.441 192.326 253.473 192.25C253.505 192.173 253.519 192.091 253.514 192.008C253.508 191.925 253.484 191.845 253.442 191.773C253.401 191.702 253.343 191.641 253.274 191.595C249.953 189.853 246.614 187.584 242.857 186.913C240.661 186.486 237.621 186.886 237.104 189.553ZM247.721 189.989C249.381 190.806 250.987 191.695 252.666 192.457C250.398 192.775 248.129 193.183 245.851 193.274C244.742 193.331 243.629 193.316 242.521 193.228C240.824 193.056 235.643 190.969 239.618 188.401C241.768 186.949 245.715 188.982 247.684 189.953L247.721 189.989Z" fill="#263238"/>
<path d="M154.384 165.589L194.89 172.512C194.89 172.512 202.295 184.998 203.057 193.056C203.819 201.114 175.653 232.256 175.653 232.256L210.235 183.338L249.643 208.554C249.643 208.554 201.415 258.852 169.392 275.938C157.378 282.353 140.437 272.408 139.448 256.692C138.396 240.159 157.505 193.727 157.505 193.727L154.384 165.589Z" fill="#37474F"/>
<path d="M208.974 184.11C199.12 200.171 188.948 216.024 177.914 231.295C176.381 233.419 174.847 235.533 173.286 237.647C171.726 239.761 170.165 242.13 168.405 244.199C168.314 244.298 168.486 244.434 168.568 244.326C169.965 242.366 171.571 240.56 173.05 238.663C174.53 236.767 175.936 234.943 177.352 233.056L179.166 230.606L178.912 231.259C178.504 232.239 178.105 233.219 177.724 234.217C176.943 236.259 176.399 238.428 175.464 240.406C175.401 240.524 175.6 240.605 175.646 240.487C176.426 238.437 177.56 236.531 178.422 234.517C178.834 233.537 179.224 232.548 179.593 231.549C179.968 230.668 180.271 229.757 180.5 228.827C182.27 226.414 184.03 224 185.763 221.568C191.208 213.873 196.407 206.009 201.361 197.976C204.129 193.502 206.806 188.974 209.383 184.365C209.492 184.11 209.083 183.82 208.974 184.11Z" fill="#263238"/>
<path d="M226.214 200.443C220.37 196.877 214.372 193.583 208.501 190.072C208.392 190.008 208.265 190.162 208.383 190.235C214.145 193.865 219.78 197.721 225.624 201.269C231.467 204.817 237.42 208.156 243.363 211.586C243.518 211.677 243.681 211.459 243.527 211.359C237.729 207.748 232.03 204.009 226.214 200.443Z" fill="#263238"/>
<path d="M157.472 193.728C154.905 198.664 147.627 218.073 145.767 223.318C143.907 228.563 142.292 233.808 140.958 239.161C140.286 241.884 139.724 244.606 139.243 247.328C138.745 249.943 138.481 252.597 138.453 255.259C138.431 260.051 140.009 264.713 142.936 268.507C144.493 270.518 146.376 272.254 148.507 273.643C150.667 274.966 153 275.983 155.44 276.664C155.531 276.664 155.567 276.528 155.44 276.51C153.171 275.913 151.046 274.86 149.197 273.416C146.456 271.438 144.188 268.876 142.558 265.914C140.927 262.953 139.975 259.667 139.769 256.293C139.515 251.039 140.74 245.713 141.883 240.622C143.077 235.368 144.534 230.178 146.248 225.069C147.21 222.202 148.235 219.353 149.297 216.522C150.358 213.691 156.783 196.768 157.754 193.891C157.771 193.854 157.774 193.812 157.761 193.773C157.749 193.735 157.723 193.702 157.688 193.681C157.652 193.661 157.611 193.654 157.571 193.663C157.531 193.671 157.496 193.695 157.472 193.728Z" fill="#263238"/>
<path d="M167.797 196.06C164.743 194.871 161.556 194.057 158.305 193.638C155.134 193.133 151.939 192.791 148.732 192.612C148.641 192.612 148.641 192.748 148.732 192.767C151.981 193.211 155.211 193.801 158.414 194.472C161.617 195.144 164.621 195.988 167.76 196.396C167.942 196.423 167.951 196.124 167.797 196.06Z" fill="#263238"/>
<path d="M195.309 190.76C192.96 190.984 190.599 191.054 188.24 190.969C186.29 190.924 184.284 190.878 182.542 189.871C179.148 187.911 177.388 183.964 176.281 180.371C176.281 180.289 176.109 180.371 176.136 180.416C177.143 184.345 177.878 188.9 181.707 191.16C183.609 192.153 185.765 192.551 187.896 192.303C190.416 192.097 192.908 191.638 195.336 190.933C195.354 190.925 195.369 190.911 195.378 190.893C195.388 190.876 195.391 190.856 195.388 190.836C195.385 190.817 195.375 190.799 195.361 190.785C195.347 190.772 195.329 190.763 195.309 190.76Z" fill="#263238"/>
<path d="M200.01 192.503C199.355 190.258 198.539 188.062 197.569 185.934C196.608 183.738 195.558 181.584 194.421 179.473C193.132 177.077 191.699 174.745 190.283 172.441C190.272 172.424 190.255 172.411 190.236 172.406C190.217 172.401 190.196 172.403 190.178 172.412C190.16 172.421 190.146 172.436 190.139 172.455C190.131 172.474 190.131 172.494 190.138 172.513C192.334 176.451 194.403 180.471 196.272 184.582C197.197 186.614 198.069 188.674 198.885 190.761C199.782 192.753 200.187 194.932 200.065 197.113C199.844 199.332 198.969 201.435 197.551 203.156C197.551 203.156 197.551 203.201 197.551 203.156C198.808 201.721 199.69 199.997 200.119 198.138C200.548 196.28 200.51 194.344 200.01 192.503Z" fill="#263238"/>
<path d="M210.291 194.998C208.25 197.312 206.389 199.798 204.493 202.257C202.596 204.716 200.682 207.121 198.794 209.562C195.02 214.453 191.299 219.389 187.579 224.316C185.465 227.12 183.414 229.969 181.354 232.8C181.291 232.882 181.409 232.982 181.472 232.9C189.221 223.282 196.783 213.518 204.157 203.609C206.253 200.796 208.44 198.029 210.373 195.107C210.409 195.052 210.337 194.998 210.291 194.998Z" fill="#263238"/>
<path d="M155.021 171.116C155.121 173.675 155.457 181.433 155.647 183.992C155.729 185.162 155.81 186.36 156.001 187.522C156.164 188.502 156.482 189.645 157.489 190.071C158.651 190.561 159.213 189.599 159.304 188.583C159.393 187.433 159.423 186.279 159.395 185.126C159.395 183.81 159.113 171.769 159.113 171.733C159.113 171.696 159.113 171.615 159.213 171.569C159.228 171.556 159.248 171.549 159.268 171.549C159.288 171.549 159.307 171.556 159.322 171.569C159.531 171.751 160.23 182.395 160.23 183.629C160.23 184.863 160.32 186.097 160.357 187.331C160.479 188.252 160.363 189.189 160.021 190.053C159.824 190.462 159.5 190.795 159.098 191.003C158.695 191.211 158.235 191.282 157.789 191.206C157.789 191.296 157.843 191.378 157.861 191.469C157.916 191.732 157.943 192.004 157.979 192.267C158.015 192.53 158.052 192.812 158.07 193.084C158.079 193.214 158.079 193.344 158.07 193.474C158.07 193.619 157.997 193.746 157.988 193.892C157.979 194.037 157.643 194.191 157.58 193.955C157.516 193.719 157.471 193.701 157.426 193.565C157.382 193.42 157.352 193.271 157.335 193.12C157.335 192.857 157.29 192.603 157.271 192.34C157.253 192.077 157.271 191.814 157.271 191.559C157.278 191.404 157.293 191.25 157.317 191.097C156.82 190.945 156.374 190.659 156.028 190.271C155.461 189.541 155.117 188.661 155.039 187.739C154.885 186.65 154.821 185.543 154.749 184.445C154.586 181.723 154.223 173.793 154.54 171.079C154.545 171.016 154.575 170.956 154.623 170.915C154.672 170.873 154.735 170.852 154.799 170.857C154.863 170.862 154.922 170.892 154.963 170.94C155.005 170.989 155.026 171.052 155.021 171.116Z" fill="#263238"/>
<path d="M189.129 78.1884C185.327 75.929 176.234 74.2866 170.073 83.4422C161.29 96.4453 171.952 123.885 174.529 127.841C174.529 127.841 195.399 130.219 210.407 116.426C210.407 116.426 196.705 99.3671 196.016 89.2042C195.868 86.9418 195.162 84.7513 193.96 82.8288C192.758 80.9064 191.098 79.312 189.129 78.1884Z" fill="#263238"/>
<path d="M200.155 99.4857C200.246 99.6309 200.336 99.7761 200.436 99.9213C201.679 101.734 203.086 103.428 204.637 104.985C206.087 106.513 207.749 107.824 209.574 108.877C209.574 108.877 209.673 108.832 209.574 108.805C207.762 107.643 206.156 106.19 204.819 104.504C203.45 102.931 202.177 101.276 201.008 99.5493C198.618 96.042 196.682 92.2461 195.246 88.2521C195.246 88.1705 195.073 88.2521 195.101 88.2521C195.255 88.8238 195.418 89.3954 195.6 89.958C195.588 89.9561 195.575 89.9572 195.564 89.9612C195.552 89.9653 195.542 89.9721 195.534 89.9811C195.526 89.9902 195.52 90.0011 195.517 90.0129C195.515 90.0247 195.515 90.037 195.518 90.0488C196.646 93.8269 198.166 97.4765 200.055 100.938C202.051 104.279 204.493 107.331 207.314 110.012C208.892 111.54 210.561 112.971 212.314 114.295C212.314 114.295 212.368 114.295 212.314 114.249C207.432 110.074 203.317 105.078 200.155 99.4857Z" fill="#263238"/>
<path d="M173.205 81.0204C164.657 89.2687 164.43 101.791 166.853 112.335C167.563 115.588 168.59 118.764 169.92 121.817C169.92 121.829 169.925 121.841 169.933 121.849C169.942 121.858 169.953 121.863 169.965 121.863C169.978 121.863 169.989 121.858 169.998 121.849C170.006 121.841 170.011 121.829 170.011 121.817C168.059 116.396 166.904 110.72 166.581 104.967C166.3 99.5768 166.535 93.8783 168.514 88.7242C169.55 85.8939 171.191 83.3237 173.323 81.1928C173.386 81.0839 173.277 80.9478 173.205 81.0204Z" fill="#263238"/>
<path d="M171.554 172.232C171.989 172.803 209.31 175.498 211.107 175.035C211.195 175.009 211.28 174.976 211.361 174.936C213.584 173.965 224.065 164.882 224.818 164.119C226.27 162.704 216.152 138.286 207.723 123.676C204.91 118.804 200.354 114.602 199.057 113.287C197.759 111.971 174.557 110.8 170.401 112.579C168.586 113.332 164.167 117.624 164.049 118.414C163.895 119.566 171.127 171.642 171.554 172.232Z" fill="#455A64"/>
<path d="M171.556 172.232C171.991 172.803 209.312 175.498 211.109 175.035C211.196 175.009 211.281 174.976 211.363 174.936C208.042 165.154 192.444 119.258 191.972 118.958C191.5 118.659 169.351 118.178 164.033 118.423C163.897 119.566 171.129 171.642 171.556 172.232Z" fill="#263238"/>
<path d="M186.85 114.802C187.231 114.457 187.621 109.357 186.959 108.359C186.296 107.361 177.313 107.524 176.769 108.477C176.224 109.43 175.861 114.493 176.088 114.684C176.315 114.874 177.83 115.092 178.039 114.774C178.248 114.457 178.348 110.237 178.511 110.038C178.674 109.838 184.908 109.584 185.117 109.911C185.326 110.237 184.681 114.448 184.926 114.656C185.171 114.865 186.478 115.146 186.85 114.802Z" fill="#37474F"/>
<path d="M172.244 112.189C171.69 96.1554 170.139 83.0979 167.58 63.2894C166.237 52.9722 163.469 36.1127 162.816 31.6664C161.908 25.8046 134.432 35.8133 135.458 39.7514C136.129 42.3193 139.541 57.8994 144.123 69.8408C150.012 85.1577 153.506 98.5238 160.457 114.685C165.71 126.88 172.616 122.806 172.244 112.189Z" fill="#FFC4C0"/>
<path d="M138.712 47.8271C134.484 43.8164 123.64 26.8298 122.252 23.0097C120.863 19.1895 117.669 7.90144 120.491 6.54033C123.313 5.17923 124.502 8.40958 124.502 8.40958C124.502 8.40958 123.776 2.96517 126.87 2.32092C129.339 1.8037 131.271 6.25904 131.271 6.25904C131.271 6.25904 130.781 0.252044 133.939 0.00704567C136.806 -0.219805 137.678 5.10664 137.678 5.10664C137.678 5.10664 137.777 0.0433427 140.59 0.351859C143.966 0.732967 143.793 9.49846 145.645 13.5999C146.062 14.5073 160.571 34.089 160.571 34.089L138.712 47.8271Z" fill="#FFC4C0"/>
<path d="M137.88 4.92446C138.424 11.5031 138.841 14.2162 142.135 19.6425C142.199 19.7423 142.054 19.8603 141.981 19.7605C138.27 14.7425 137.544 11.5939 137.571 4.90631C137.571 4.57965 137.861 4.61595 137.88 4.92446Z" fill="#263238"/>
<path d="M131.335 6.25929C131.798 12.9741 133.05 15.9503 136.081 21.8847C136.127 21.9664 135.981 22.0481 135.936 21.9664C132.47 16.395 130.7 12.9922 131.109 6.22299C131.127 5.9417 131.308 5.978 131.335 6.25929Z" fill="#263238"/>
<path d="M124.659 8.70935C125.567 15.1701 126.674 18.6091 130.358 23.9991C130.367 24.0116 130.374 24.0258 130.378 24.041C130.382 24.0563 130.383 24.0721 130.381 24.0877C130.379 24.1033 130.374 24.1183 130.366 24.1319C130.358 24.1455 130.348 24.1574 130.335 24.1669C130.323 24.1765 130.308 24.1834 130.293 24.1875C130.278 24.1915 130.262 24.1925 130.246 24.1904C130.231 24.1883 130.216 24.1831 130.202 24.1752C130.189 24.1673 130.177 24.1568 130.167 24.1442C125.875 19.0174 124.487 14.7345 124.469 8.71843C124.469 8.34639 124.587 8.30102 124.659 8.70935Z" fill="#263238"/>
<path d="M163.458 37.5552C163.458 37.5552 164.746 28.5266 158.222 22.329C155.582 19.8246 155.019 8.71801 152.061 7.72894C148.731 6.61284 147.606 15.9863 149.674 22.1203C149.674 22.1203 141.009 28.3088 142.715 34.3067C143.087 35.6043 147.451 41.0215 148.967 41.3119L163.458 37.5552Z" fill="#FFC4C0"/>
<path d="M149.667 22.8286C146.21 25.1152 142.716 29.3255 142.816 33.4542C142.81 33.4745 142.797 33.4923 142.78 33.5049C142.763 33.5175 142.742 33.5243 142.721 33.5243C142.699 33.5243 142.679 33.5175 142.662 33.5049C142.644 33.4923 142.632 33.4745 142.625 33.4542C141.918 29.0352 145.91 24.1171 149.122 22.266C149.739 21.9393 150.556 22.2297 149.667 22.8286Z" fill="#263238"/>
<path opacity="0.1" d="M172.272 113.034L155.885 39.5341L155.44 37.3473L153.925 30.5145L152.119 22.5929L149.324 10.0617C149.905 8.30136 150.831 7.28508 152.046 7.69341C155.005 8.69155 155.567 19.7891 158.208 22.2935C163.289 27.1209 163.652 33.6723 163.525 36.3219C164.632 43.3633 166.519 55.2684 167.563 63.2536C170.122 83.0621 171.674 96.1196 172.236 112.153C172.263 112.471 172.272 112.752 172.272 113.034Z" fill="black"/>
<path d="M151.699 98.0967L172.216 85.874C172.216 85.874 173.658 112.107 171.907 119.938C169.938 128.758 165.855 125.818 161.2 118.604C156.545 111.39 151.699 98.0967 151.699 98.0967Z" fill="#E1348B"/>
<path d="M163.549 104.258C163.014 103.079 162.097 100.737 160.346 101.354C158.985 101.826 158.967 103.578 159.076 104.748C159.257 106.632 159.982 108.423 161.163 109.902C161.644 110.528 162.433 111.318 163.168 111.272C163.894 111.363 164.393 110.791 164.575 109.893C164.842 107.954 164.483 105.979 163.549 104.258ZM169.211 99.8028C168.377 99.7211 167.206 101.309 167.188 103.786C167.188 106.509 168.204 107.924 168.93 107.842C170.364 107.67 170.808 105.438 170.817 103.705C170.863 102.389 170.219 99.9298 169.211 99.83V99.8028Z" fill="#263238"/>
<path d="M154.633 101.382C157.455 100.175 165.422 95.3752 166.738 94.5948C167.437 94.1865 170.15 92.417 170.849 92.0178C170.939 91.9633 170.849 91.8363 170.758 91.8817C169.424 92.662 168.036 93.2972 166.656 94.0594C165.277 94.8217 157.038 99.4131 154.579 101.319C154.578 101.327 154.578 101.335 154.58 101.342C154.582 101.35 154.586 101.357 154.591 101.363C154.596 101.369 154.603 101.374 154.61 101.377C154.617 101.381 154.625 101.382 154.633 101.382Z" fill="#263238"/>
<path opacity="0.1" d="M172.68 111.89C172.645 114.589 172.387 117.281 171.908 119.938C169.939 128.749 165.865 125.818 161.201 118.613C160.557 117.615 159.922 116.499 159.277 115.329L172.68 111.89Z" fill="black"/>
<path d="M203.621 191.841C203.44 191.968 143.17 185.38 142.753 184.581C142.535 184.182 154.431 124.593 172.298 110.274C175.628 107.607 184.194 109.204 187.433 113.178C197.034 124.983 204.266 191.369 203.621 191.841Z" fill="#EBEBEB"/>
<path d="M172.86 109.702C167.016 118.894 157.779 145.817 156.418 156.742C155.81 161.587 155.701 199.462 155.701 199.462L140.012 190.062C140.012 190.062 147.498 155.58 151.744 143.875C155.991 132.169 166.925 115.328 169.176 112.796C171.598 110.02 172.86 109.702 172.86 109.702Z" fill="#E1348B"/>
<path d="M184.276 110.166C184.276 110.166 187.225 111.536 189.657 115.747C192.089 119.957 200.319 154.42 203.667 159.302C207.015 164.184 219.238 160.518 219.238 160.518C219.208 162.967 219.514 165.41 220.145 167.777C221.116 170.599 203.132 200.443 202.07 200.443C201.008 200.443 183.214 178.756 181.536 168.249C179.857 157.741 182.661 123.895 182.987 119.685C183.314 115.474 184.276 110.166 184.276 110.166Z" fill="#E1348B"/>
<path d="M155.064 167.151C154.176 168.404 153.577 169.839 153.313 171.352C153.186 172.187 153.168 173.466 154.22 173.584C154.541 173.577 154.857 173.497 155.143 173.351C155.429 173.205 155.678 172.996 155.872 172.74C155.872 170.318 155.944 167.986 155.99 165.889C155.614 166.256 155.302 166.683 155.064 167.151ZM149.302 171.234C149.139 170.145 148.549 168.911 147.252 169.419C145.954 169.927 145.382 171.942 145.228 173.285C145.069 174.38 145.103 175.495 145.328 176.579C145.403 177.171 145.671 177.723 146.09 178.148C147.306 179.156 147.978 177.35 148.359 176.461C149.155 174.841 149.482 173.03 149.302 171.234ZM202.621 193.302C202.688 191.493 202.248 189.702 201.351 188.13C200.743 187.222 199.708 186.315 198.738 187.331C197.767 188.348 198.057 190.398 198.465 191.705C198.77 192.763 199.255 193.761 199.899 194.654C200.21 195.167 200.683 195.562 201.242 195.779C202.703 196.197 202.621 194.273 202.621 193.302ZM154.529 159.991C153.703 159.628 153.014 160.137 152.505 160.899C151.871 161.808 151.426 162.835 151.199 163.92C151.081 164.565 150.872 165.735 151.498 166.207C152.124 166.679 152.923 166.134 153.313 165.644C154.075 164.764 156.289 160.826 154.475 159.991H154.529ZM145.283 182.341C144.774 181.243 143.949 179.128 142.424 179.355C141.952 181.388 141.517 183.221 141.199 184.8C141.56 185.968 142.132 187.06 142.887 188.021C143.377 188.629 144.166 189.427 144.901 189.391C145.636 189.355 146.126 188.91 146.308 188.012C146.56 186.055 146.182 184.068 145.228 182.341H145.283ZM150.945 177.885C150.11 177.804 148.939 179.401 148.921 181.878C148.921 184.6 149.937 186.016 150.663 185.934C152.097 185.752 152.542 183.529 152.551 181.796C152.515 180.48 151.897 177.994 150.899 177.885H150.945ZM152.161 149.919C151.253 150.173 150.908 151.117 150.836 152.115C150.75 152.859 150.78 153.613 150.927 154.347C151.035 154.828 151.317 155.436 151.916 155.255C152.515 155.073 152.877 154.084 153.014 153.54C153.132 152.85 153.857 149.402 152.106 149.919H152.161ZM205.489 183.266C204.581 183.52 204.245 184.464 204.173 185.471C204.087 186.215 204.117 186.969 204.264 187.703C204.363 188.175 204.645 188.792 205.244 188.611C205.842 188.429 206.215 187.449 206.342 186.905C206.46 186.197 207.158 182.749 205.434 183.266H205.489ZM195.117 132.869C194.353 133.939 193.884 135.191 193.756 136.499C193.447 137.615 193.466 138.677 194.5 138.776C195.208 138.849 195.925 137.987 196.405 137.379C195.916 135.854 195.489 134.348 195.063 132.869H195.117ZM200.18 150.11C199.533 150.641 198.953 151.25 198.456 151.925C197.948 152.596 197.358 153.739 198.275 154.329C199.191 154.919 200.462 154.266 201.369 153.776C200.933 152.669 200.534 151.444 200.126 150.137L200.18 150.11ZM193.956 147.388C192.431 147.261 191.124 148.776 190.326 149.892C189.689 150.793 189.21 151.797 188.91 152.859C188.705 153.419 188.689 154.031 188.865 154.601C189.473 156.044 190.907 154.765 191.66 154.148C193.114 153.071 194.239 151.61 194.908 149.928C195.244 148.903 195.298 147.542 193.901 147.415L193.956 147.388ZM184.7 153.848C183.275 153.649 182.459 155.182 181.978 156.289C181.285 158.042 181.103 159.954 181.452 161.806C181.606 162.587 181.932 163.621 182.604 163.966C183.275 164.311 183.911 164.093 184.491 163.376C185.618 161.786 186.209 159.88 186.179 157.932C186.215 156.634 186.479 154.166 184.646 153.875L184.7 153.848ZM193.284 156.57C192.585 156.108 190.816 156.979 189.654 159.184C188.402 161.543 188.647 163.312 189.337 163.567C190.698 164.084 192.059 162.305 192.921 160.781C193.493 159.61 194.083 157.142 193.23 156.589L193.284 156.57ZM198.456 166.824C197.34 166.978 196.732 168.049 196.469 169.247C196.23 170.133 196.135 171.052 196.188 171.969C196.188 172.559 196.469 173.339 197.222 173.239C197.975 173.14 198.592 171.996 198.855 171.361C199.137 170.554 200.616 166.516 198.402 166.869L198.456 166.824Z" fill="#263238"/>
<path d="M187.317 110.002C196.464 95.6198 203.886 85.2845 216.898 68.5429C223.677 59.8228 232.179 49.4058 235.183 45.6946C239.139 40.7946 258.92 64.75 255.862 67.8261C253.866 69.8133 247.305 76.2286 235.899 86.3915C222.869 97.9609 211.862 107.579 196.79 118.622C185.384 126.943 181.274 119.512 187.317 110.002Z" fill="#FFC4C0"/>
<path d="M249.482 72.1912C255.507 70.7938 274.58 61.0937 277.901 58.3443C281.222 55.5949 290.233 46.9927 288.391 44.2251C286.549 41.4576 283.709 43.7714 283.709 43.7714C283.709 43.7714 287.338 39.2344 284.825 36.9296C282.838 35.1148 278.673 38.1637 278.673 38.1637C278.673 38.1637 282.357 32.928 279.58 31.0043C277.076 29.2439 273.41 33.6539 273.41 33.6539C273.41 33.6539 276.041 28.9626 273.31 27.7376C270.034 26.2223 265.47 34.3889 261.604 37.1111C260.697 37.7372 236.914 47.8184 236.914 47.8184L249.482 72.1912Z" fill="#FFC4C0"/>
<path d="M273.348 33.3807C269.31 39.1065 267.477 41.3659 261.552 44.5509C261.434 44.6144 261.506 44.8049 261.634 44.7505C267.731 42.1553 270.1 39.6327 273.666 33.5259C273.82 33.2356 273.539 33.1176 273.348 33.3807Z" fill="#263238"/>
<path d="M278.608 38.1447C274.57 44.0337 271.83 46.0845 265.85 49.8774C265.768 49.9319 265.85 50.0861 265.941 50.0317C272.111 46.8013 275.568 44.6417 278.826 38.2355C278.98 37.9451 278.844 37.8816 278.608 38.1447Z" fill="#263238"/>
<path d="M283.381 43.9615C279.061 49.4059 276.203 51.9376 269.933 54.8503C269.905 54.8645 269.883 54.8887 269.872 54.918C269.86 54.9474 269.86 54.9799 269.872 55.0093C269.883 55.0387 269.905 55.0628 269.933 55.077C269.961 55.0912 269.993 55.0945 270.024 55.0862C276.711 52.7089 280.296 49.542 283.535 44.0886C283.78 43.7437 283.68 43.6258 283.381 43.9615Z" fill="#263238"/>
<path d="M297.728 47.7857L264.781 2.6543L258.5 7.23943L291.447 52.3709L297.728 47.7857Z" fill="#E1348B"/>
<path d="M291.443 52.3677L258.496 7.23633L232.244 26.4008L265.191 71.5322L291.443 52.3677Z" fill="#E1348B"/>
<path opacity="0.1" d="M291.443 52.3677L258.496 7.23633L232.244 26.4008L265.191 71.5322L291.443 52.3677Z" fill="black"/>
<path d="M297.076 48.2613L264.129 3.12988L259.153 6.76268L292.099 51.8941L297.076 48.2613Z" fill="white"/>
<path d="M262.273 8.98145C272.491 22.3928 283.38 37.365 293.08 51.1574C282.899 37.7188 271.974 22.7376 262.273 8.98145Z" fill="#DBDBDB"/>
<path d="M263.254 8.2373C273.399 21.685 284.36 36.6571 294.06 50.4496C283.879 37.011 272.954 22.0298 263.254 8.2373Z" fill="#DBDBDB"/>
<path d="M264.227 7.52051C274.408 20.9682 285.342 35.9403 295.078 49.7328C284.897 36.2942 273.963 21.313 264.227 7.52051Z" fill="#DBDBDB"/>
<path d="M265.234 6.8125C275.415 20.2511 286.35 35.2323 296.041 49.0248C285.832 35.5771 274.907 20.605 265.234 6.8125Z" fill="#DBDBDB"/>
<path d="M232.367 49.4597C232.367 49.4597 236.06 40.5037 245.361 38.3531C249.127 37.4457 255.615 27.6276 258.863 28.3082C262.493 29.0795 258.5 38.2896 253.292 42.7631C253.292 42.7631 257.892 53.0893 253.101 57.6535C252.058 58.6426 245.152 61.2831 243.61 60.7024L232.367 49.4597Z" fill="#FFC4C0"/>
<path d="M252.928 43.4084C254.86 47.3647 255.777 53.0995 253.463 56.8289C253.455 56.8396 253.45 56.8517 253.447 56.8646C253.444 56.8775 253.443 56.8908 253.445 56.9039C253.447 56.917 253.452 56.9295 253.459 56.9407C253.466 56.952 253.475 56.9618 253.486 56.9695C253.496 56.9773 253.509 56.9828 253.521 56.9859C253.534 56.9889 253.548 56.9894 253.561 56.9873C253.574 56.9852 253.586 56.9806 253.598 56.9736C253.609 56.9667 253.619 56.9576 253.626 56.9468C256.657 53.3172 255.65 46.6478 253.708 43.2179C253.336 42.5555 252.429 42.3921 252.928 43.4084Z" fill="#263238"/>
<path d="M212.161 109.004L200.546 88.1338C200.546 88.1338 186.137 110.102 183.723 117.76C181.001 126.381 186 125.882 193.659 121.98C201.317 118.078 212.161 109.004 212.161 109.004Z" fill="#E1348B"/>
<path d="M199.446 106.282C198.62 105.91 197.93 106.418 197.422 107.189C196.797 108.1 196.353 109.123 196.116 110.202C195.998 110.855 195.789 112.017 196.424 112.498C197.059 112.978 197.84 112.416 198.239 111.935C199.047 111.046 201.261 107.108 199.446 106.282ZM196.46 94.54C195.099 96.6815 193.548 99.2041 191.996 101.799C192.053 102.101 192.17 102.388 192.34 102.643C192.51 102.899 192.729 103.118 192.985 103.287C193.584 103.696 194.292 103.423 194.873 102.707C196.31 100.242 196.87 97.3635 196.46 94.54ZM203.638 95.8921C202.93 95.4384 201.17 96.3095 200.008 98.4963C198.756 100.865 199.001 102.634 199.691 102.888C201.043 103.396 202.458 101.627 203.275 100.102C203.901 98.9046 204.491 96.4547 203.638 95.8921Z" fill="#263238"/>
<path d="M207.976 110.374C206.161 107.915 201.624 99.767 200.908 98.424C200.508 97.7162 199.047 94.7944 198.648 94.132C198.594 94.0412 198.748 93.9777 198.793 94.0685C199.565 95.4023 200.472 96.6636 201.252 98.0066C202.033 99.3495 206.878 107.462 208.076 110.311C208.067 110.374 208.013 110.429 207.976 110.374Z" fill="#263238"/>
<path d="M191.036 124.439C191.335 124.14 191.644 123.849 191.943 123.532C190.201 124.584 188.423 125.555 186.599 126.463C186.599 126.463 186.526 126.417 186.599 126.39C188.495 125.074 190.401 123.804 192.361 122.597C193.268 122.025 194.656 121.209 195.682 120.537C195.8 120.456 195.936 120.637 195.818 120.71C194.829 121.345 193.903 122.361 193.041 122.897C192.841 123.136 192.625 123.364 192.397 123.577C192.034 123.931 191.653 124.276 191.263 124.593C190.473 125.238 189.657 125.855 188.858 126.481C189.584 125.837 190.319 125.129 191.036 124.439Z" fill="#263238"/>
<path d="M173.633 108.586C166.547 107.815 152.282 127.642 148.671 136.425C146.856 140.881 147.863 155.136 148.117 155.299C148.371 155.463 149.124 152.151 149.487 150.908C149.85 149.664 152.636 140.373 154.442 136.017C157.6 128.395 174.014 109.984 174.278 109.702C174.541 109.421 174.287 108.659 173.633 108.586Z" fill="#455A64"/>
<path d="M172.85 120.863C175.409 121.616 181.988 118.141 185.091 114.512C185.3 114.267 185.517 111.254 185.998 107.606C186.27 105.383 186.633 102.924 187.123 100.71L172.442 101.018C172.625 103.969 172.445 106.931 171.906 109.838C171.839 110.151 171.738 110.455 171.607 110.746C171.603 110.794 171.603 110.843 171.607 110.891C170.863 112.597 168.848 119.684 172.85 120.863Z" fill="#FFC4C0"/>
<path d="M171.579 110.782C171.553 110.828 171.532 110.877 171.516 110.927C171.979 111.095 172.456 111.226 172.94 111.317C180.898 112.887 184.963 103.659 186.025 100.773L172.414 101.055C172.598 104.011 172.421 106.979 171.888 109.893C171.803 110.195 171.7 110.492 171.579 110.782Z" fill="#263238"/>
<path d="M194.455 84.2958C194.4 89.5769 187.45 102.707 183.04 104.731C176.643 107.661 168.358 105.52 166.425 98.3787C164.547 91.4099 173.911 74.4596 178.639 72.8444C185.553 70.3945 194.455 76.4468 194.455 84.2958Z" fill="#FFC4C0"/>
<path d="M182.476 86.5451C182.122 86.2457 181.859 85.919 181.568 85.6377C181.194 85.3479 180.927 84.9429 180.806 84.4853C180.796 84.3354 180.836 84.1865 180.92 84.0617C181.004 83.937 181.126 83.8435 181.269 83.7957C181.565 83.742 181.87 83.7683 182.152 83.872C182.435 83.9757 182.684 84.153 182.875 84.3855C183.335 84.7988 183.626 85.3676 183.692 85.9825C183.697 86.1257 183.66 86.2672 183.585 86.3893C183.51 86.5114 183.401 86.6087 183.271 86.6688C183.141 86.729 182.996 86.7493 182.855 86.7273C182.713 86.7053 182.581 86.6419 182.476 86.5451Z" fill="#263238"/>
<path d="M173.629 82.1897C174.055 82.3044 174.489 82.3923 174.926 82.4529C175.373 82.6071 175.859 82.6071 176.306 82.4529C176.436 82.3796 176.539 82.2651 176.599 82.1273C176.658 81.9894 176.669 81.836 176.632 81.6907C176.517 81.4126 176.329 81.1707 176.088 80.9903C175.847 80.8099 175.562 80.6976 175.262 80.6653C174.656 80.4937 174.007 80.5586 173.447 80.8468C173.319 80.9173 173.214 81.0252 173.148 81.1562C173.082 81.2872 173.057 81.4352 173.077 81.5806C173.097 81.726 173.16 81.8621 173.258 81.9708C173.357 82.0796 173.486 82.1559 173.629 82.1897Z" fill="#263238"/>
<path d="M176.718 96.6731C176.411 96.8423 176.055 96.9 175.711 96.8364C175.379 96.6637 175.086 96.426 174.849 96.1377H174.785C174.831 96.3761 174.939 96.5982 175.099 96.7814C175.258 96.9646 175.463 97.1025 175.693 97.1812C175.899 97.2221 176.113 97.2019 176.308 97.1229C176.503 97.0439 176.671 96.9096 176.791 96.7366C176.827 96.7184 176.763 96.664 176.718 96.6731Z" fill="#263238"/>
<path d="M177.096 93.5238C176.692 93.769 176.242 93.9279 175.773 93.9904C175.305 94.0529 174.828 94.0176 174.374 93.8867C173.979 93.7727 173.601 93.608 173.249 93.3967C173.179 93.3597 173.112 93.3173 173.049 93.2697L172.868 93.1426C172.825 93.1093 172.794 93.0631 172.779 93.0109C172.765 92.9586 172.767 92.903 172.786 92.8523L172.841 92.7615V92.6799C173.158 91.9812 173.748 90.9649 173.748 90.9649C173.43 90.9649 171.861 90.9104 172.051 90.5566C173.663 87.4796 175.581 84.5733 177.777 81.8818C177.783 81.8717 177.792 81.8629 177.802 81.8561C177.812 81.8492 177.823 81.8444 177.835 81.8419C177.847 81.8394 177.859 81.8392 177.871 81.8414C177.882 81.8435 177.894 81.848 177.904 81.8546C177.914 81.8611 177.923 81.8696 177.93 81.8796C177.936 81.8895 177.941 81.9007 177.944 81.9125C177.946 81.9243 177.946 81.9364 177.944 81.9483C177.942 81.9602 177.938 81.9715 177.931 81.9816C176.461 84.8399 174.501 87.426 172.977 90.2571C173.54 90.2708 174.099 90.3624 174.637 90.5293C174.719 90.6019 173.476 92.4803 173.358 92.8069C173.894 93.1405 174.491 93.3623 175.115 93.459C175.739 93.5557 176.376 93.5252 176.987 93.3695C177.142 93.3695 177.214 93.4784 177.096 93.5238Z" fill="#263238"/>
<path d="M173.84 93.2422C173.986 93.9136 174.298 94.5376 174.747 95.057C175.003 95.3341 175.34 95.5244 175.709 95.6014C176.517 95.7648 176.861 95.1114 177.007 94.4853C177.079 94.1515 177.112 93.8105 177.106 93.469C176.021 93.7427 174.877 93.6632 173.84 93.2422Z" fill="#263238"/>
<path d="M174.738 95.0847C174.994 95.3617 175.331 95.552 175.7 95.6291C176.508 95.7924 176.853 95.1391 176.998 94.513C176.612 94.34 176.179 94.3023 175.769 94.406C175.359 94.5098 174.996 94.7489 174.738 95.0847Z" fill="#FF9BBC"/>
<path d="M181.262 88.7232C181.334 88.4619 181.334 88.186 181.262 87.9247C181.212 87.7855 181.134 87.6581 181.033 87.5504C180.931 87.4427 180.809 87.357 180.673 87.2986C180.526 87.2377 180.367 87.2134 180.209 87.2276C180.051 87.2418 179.899 87.2942 179.765 87.3803C179.542 87.5225 179.356 87.7152 179.221 87.9429C179.139 88.0785 179.069 88.2212 179.012 88.3693C178.879 88.6717 178.82 89.0014 178.84 89.3312C178.917 89.105 179.02 88.8887 179.148 88.6869C179.256 88.5008 179.381 88.3247 179.52 88.1606C179.802 87.8249 180.155 87.598 180.428 87.7432C180.7 87.8884 180.89 88.2332 180.854 88.6506C180.812 89.1031 180.724 89.55 180.591 89.9845C180.911 89.6228 181.141 89.1907 181.262 88.7232Z" fill="#263238"/>
<path d="M172.588 84.1958C172.759 83.9884 172.981 83.8289 173.233 83.7331C173.373 83.684 173.523 83.6651 173.671 83.6776C173.82 83.6901 173.964 83.7337 174.095 83.8057C174.225 83.8834 174.337 83.99 174.42 84.1174C174.504 84.2448 174.557 84.3896 174.575 84.5407C174.601 84.8057 174.563 85.073 174.467 85.321C174.41 85.4691 174.34 85.6119 174.258 85.7475C174.1 86.0375 173.876 86.2863 173.605 86.4734C173.844 86.089 174.013 85.6649 174.104 85.2212C174.194 84.7947 174.158 84.3682 173.859 84.2231C173.69 84.1457 173.5 84.1269 173.319 84.1697C173.138 84.2124 172.977 84.3142 172.861 84.459C172.523 84.7714 172.219 85.1181 171.953 85.4934C172.058 85.0164 172.276 84.5714 172.588 84.1958Z" fill="#263238"/>
<path d="M189.095 95.6199C188.505 94.7125 188.822 89.7853 188.822 89.7853C188.822 89.7853 181.001 83.8872 182.162 75.657C182.162 75.657 176.654 79.1778 172.68 79.1868C172.68 79.1868 175.075 71.0202 182.924 71.9821C182.924 71.9821 191.091 71.1745 195.455 79.94C199.82 88.7055 191.309 96.4184 191.309 96.4184L189.095 95.6199Z" fill="#263238"/>
<path d="M182.804 74.214C182.16 75.4647 181.865 76.8659 181.951 78.2701C181.975 79.6588 182.198 81.0369 182.613 82.3624C182.999 83.7315 183.613 85.0259 184.428 86.1917C185.434 87.4566 186.624 88.5638 187.958 89.4765C187.958 89.4765 187.958 89.5763 187.903 89.5491C186.492 88.6401 185.207 87.5477 184.083 86.3006C183.18 85.1331 182.478 83.8238 182.005 82.426C181.465 81.0399 181.221 79.5564 181.288 78.0704C181.427 76.6678 181.896 75.318 182.658 74.1323C182.704 74.0416 182.858 74.1232 182.804 74.214Z" fill="#263238"/>
<path d="M181.328 70.3123C183.052 69.6136 187.072 68.3705 190.311 68.8605C193.551 69.3505 197.571 71.7279 198.968 72.4901C200.111 73.1253 204.131 74.3049 206.944 76.6187C207.745 77.3987 208.321 78.3799 208.611 79.4592C208.902 80.5386 208.896 81.6763 208.596 82.7528C207.752 84.9124 203.396 82.7528 203.024 83.5694C202.779 84.123 203.024 87.1264 201.382 88.2063C199.739 89.2861 199.83 89.1137 198.895 89.6672C196.618 91.0918 196.173 80.085 192.734 76.5008C189.295 72.9166 181.328 70.3123 181.328 70.3123Z" fill="#E1348B"/>
<path opacity="0.1" d="M181.625 70.5301C181.625 70.5301 189.311 72.9257 192.732 76.5099C196.153 80.0941 196.071 90.5746 198.357 89.15C199.356 88.5239 199.864 87.562 200.317 85.9378C199.936 82.8617 198.838 78.0706 196.379 74.7042C194.075 71.5464 190.028 69.8677 185.609 69.2598C184.248 69.5731 182.916 69.998 181.625 70.5301Z" fill="black"/>
<path d="M197.631 94.2222C196.016 90.5926 194.818 84.9939 191.96 80.6112C189.102 76.2284 180.418 73.479 179.193 73.5153C176.207 73.6061 175.518 75.0034 175.055 74.7221C174.592 74.4409 177.659 71.1561 178.512 70.6751C179.81 70.0694 181.227 69.7594 182.659 69.7677C183.948 69.8313 191.896 70.8566 194.691 74.3047C197.486 77.7529 201.315 87.4348 200.499 89.8485C200.299 90.4293 199.51 90.7559 199.237 91.6089C198.883 92.6887 198.611 93.9409 198.266 94.6941C197.976 95.3474 197.731 94.44 197.631 94.2222Z" fill="#E1348B"/>
<path d="M191.333 78.6786C192.026 78.2817 192.685 77.8264 193.302 77.3175C193.934 76.8134 194.507 76.2379 195.008 75.6025C195.008 75.6025 195.117 75.6025 195.089 75.6025C194.684 76.3404 194.164 77.0083 193.547 77.5807C192.915 78.1234 192.19 78.5448 191.405 78.8238C191.305 78.851 191.251 78.724 191.333 78.6786Z" fill="#263238"/>
<path d="M197.669 92.5715C197.766 92.3741 197.875 92.1832 197.996 91.9998C198.108 91.7811 198.202 91.5534 198.277 91.3193C198.343 90.8596 198.462 90.409 198.631 89.9763C198.821 89.648 199.049 89.3434 199.311 89.0689C199.636 88.7686 199.845 88.364 199.901 87.9256C199.901 87.8621 200.001 87.8621 199.992 87.9256C199.845 88.7094 199.502 89.4431 198.994 90.058C198.812 90.5256 198.673 91.0084 198.576 91.5007C198.447 91.954 198.177 92.3543 197.805 92.6441C197.733 92.6985 197.642 92.635 197.669 92.5715Z" fill="#263238"/>
<path d="M196.788 89.5221C197.069 89.2045 197.36 88.9323 197.605 88.6147C197.839 88.2861 198.048 87.9403 198.231 87.5803C198.421 87.2355 198.576 86.8725 198.757 86.5186C198.939 86.1647 199.238 85.702 199.429 85.2755C199.429 85.221 199.528 85.2755 199.501 85.3299C199.311 85.7655 199.184 86.2373 199.002 86.7001C198.821 87.1629 198.639 87.4623 198.44 87.8253C198.239 88.1716 198.008 88.4996 197.75 88.8053C197.501 89.1198 197.193 89.382 196.843 89.5766C196.843 89.5766 196.77 89.5403 196.788 89.5221Z" fill="#263238"/>
<path d="M194.829 84.1141C195.124 83.9182 195.381 83.6725 195.592 83.3882C195.837 83.0797 196.082 82.7712 196.317 82.4808L196.998 81.5734C197.247 81.278 197.427 80.9308 197.524 80.5571C197.529 80.5474 197.536 80.5391 197.544 80.5333C197.553 80.5275 197.564 80.5244 197.574 80.5244C197.585 80.5244 197.595 80.5275 197.604 80.5333C197.613 80.5391 197.62 80.5474 197.624 80.5571C197.574 80.9358 197.454 81.302 197.27 81.6369C197.078 82.0127 196.853 82.3709 196.599 82.7076C196.352 83.0436 196.082 83.362 195.791 83.6604C195.556 83.9447 195.239 84.1505 194.884 84.2502C194.802 84.2411 194.757 84.1504 194.829 84.1141Z" fill="#263238"/>
<path d="M194.119 80.7753C194.391 80.5303 194.654 80.2763 194.899 80.0131C195.144 79.75 195.38 79.4687 195.607 79.1874C195.834 78.9061 196.088 78.5976 196.306 78.28C196.303 78.2731 196.301 78.2654 196.301 78.2577C196.302 78.2501 196.304 78.2426 196.308 78.2361C196.312 78.2296 196.318 78.2242 196.325 78.2205C196.332 78.2168 196.339 78.2148 196.347 78.2148C196.354 78.2148 196.362 78.2168 196.369 78.2205C196.375 78.2242 196.381 78.2296 196.385 78.2361C196.389 78.2426 196.392 78.2501 196.392 78.2577C196.392 78.2654 196.391 78.2731 196.388 78.28C196.233 78.6267 196.051 78.9605 195.843 79.2781C195.416 79.8894 194.916 80.4469 194.355 80.9387C194.097 81.2006 193.788 81.4074 193.448 81.5466C193.393 81.5466 193.339 81.5466 193.375 81.4559C193.599 81.2042 193.848 80.9761 194.119 80.7753Z" fill="#263238"/>
<path d="M189.238 77.0365C189.524 76.6972 189.826 76.3731 190.146 76.0655C190.466 75.7436 190.806 75.4406 191.162 75.1581C191.841 74.6098 192.581 74.141 193.367 73.7607C193.412 73.7607 193.467 73.7607 193.43 73.8333C192.069 74.9222 190.708 75.9567 189.329 77.0637L189.238 77.0365Z" fill="#263238"/>
<path d="M187.614 74.5867C187.902 74.2486 188.228 73.9442 188.585 73.6793C189.348 73.1735 190.163 72.7507 191.017 72.418C191.071 72.418 191.116 72.418 191.071 72.4996C190.327 72.9624 189.583 73.407 188.875 73.9061C188.52 74.1518 188.178 74.4152 187.85 74.6955C187.523 74.9859 187.278 75.3307 186.942 75.6029H186.879C187.058 75.2212 187.308 74.8765 187.614 74.5867Z" fill="#263238"/>
<path d="M185.321 73.4062C185.59 73.0716 185.894 72.7673 186.229 72.4988C186.85 72.0047 187.549 71.6182 188.298 71.3555C188.352 71.3555 188.379 71.419 188.298 71.4462C187.607 71.8338 186.952 72.2801 186.338 72.7801C186.029 73.0342 185.73 73.3064 185.43 73.5695C185.131 73.8327 184.877 74.1684 184.523 74.3953C184.523 74.3953 184.469 74.3953 184.478 74.3499C184.731 74.0116 185.013 73.6958 185.321 73.4062Z" fill="#263238"/>
<path d="M183.678 71.9821C183.986 71.7582 184.289 71.5405 184.585 71.3287C184.886 71.1054 185.219 70.9308 185.574 70.8115C185.629 70.8115 185.647 70.866 185.574 70.8932C184.984 71.3378 184.413 71.8006 183.832 72.2361C183.333 72.6922 182.88 73.1967 182.48 73.7424C182.48 73.7424 182.426 73.7424 182.435 73.7424C182.661 73.0433 183.095 72.4295 183.678 71.9821Z" fill="#263238"/>
<path d="M181.599 71.4742C182.153 70.9857 182.797 70.6098 183.495 70.3672C183.541 70.3672 183.577 70.4307 183.495 70.4489C182.861 70.7701 182.277 71.1828 181.762 71.6738C181.242 72.1635 180.776 72.7081 180.374 73.2981C180.374 73.2981 180.301 73.2981 180.319 73.2981C180.595 72.5972 181.034 71.972 181.599 71.4742Z" fill="#263238"/>
<path d="M178.811 72.6445C178.886 72.5003 178.971 72.3609 179.065 72.2271C179.252 71.9565 179.468 71.707 179.709 71.483C180.206 71.0388 180.747 70.6466 181.324 70.3125C181.378 70.3125 181.424 70.3125 181.378 70.3942C180.824 70.7343 180.312 71.1395 179.854 71.601C179.631 71.828 179.425 72.0706 179.237 72.3269C179.141 72.4512 179.053 72.5815 178.974 72.7171C178.906 72.8555 178.824 72.9863 178.729 73.1073H178.656C178.676 72.9441 178.728 72.7867 178.811 72.6445Z" fill="#263238"/>
<path d="M177.122 72.7441C177.294 72.5354 177.466 72.3267 177.657 72.1362C177.843 71.9407 178.044 71.7588 178.256 71.5917C178.465 71.4193 178.691 71.256 178.9 71.0745C178.91 71.0673 178.922 71.0642 178.934 71.0659C178.946 71.0676 178.956 71.074 178.964 71.0836C178.971 71.0932 178.974 71.1053 178.972 71.1172C178.971 71.1291 178.964 71.1399 178.955 71.1471C178.739 71.3234 178.536 71.5144 178.347 71.7188L177.811 72.2904L177.267 72.8621C177.085 73.0526 176.931 73.2795 176.731 73.4519H176.668C176.794 73.201 176.946 72.9638 177.122 72.7441Z" fill="#263238"/>
<path d="M187.841 94.6671C187.841 94.6671 192.487 91.2553 194.138 93.052C195.79 94.8486 191.244 100.556 188.558 100.629C188.215 100.664 187.868 100.629 187.539 100.526C187.21 100.423 186.906 100.255 186.644 100.031C186.381 99.8067 186.167 99.532 186.015 99.2231C185.862 98.9141 185.773 98.5774 185.754 98.2332L187.841 94.6671Z" fill="#FFC4C0"/>
<path d="M192.793 94.6577C192.838 94.6577 192.793 94.7212 192.793 94.7212C190.896 94.8301 189.49 96.0914 188.328 97.4434C188.481 97.3082 188.662 97.2081 188.858 97.1498C189.053 97.0915 189.259 97.0765 189.461 97.1059C189.663 97.1352 189.857 97.2082 190.028 97.3198C190.199 97.4313 190.343 97.5788 190.452 97.7519C190.452 97.7973 190.452 97.8517 190.379 97.8245C190.113 97.6391 189.796 97.5397 189.472 97.5397C189.147 97.5397 188.83 97.6391 188.564 97.8245C188.115 98.1359 187.699 98.4916 187.321 98.8861C187.194 99.0132 186.958 98.8408 187.067 98.6865C187.766 96.5178 190.433 94.0951 192.793 94.6577Z" fill="#263238"/>
<path d="M186.029 111.009C181.002 116.082 187.49 140.781 192.09 149.066C194.431 153.285 203.378 159.356 203.669 159.265C203.959 159.174 204.413 154.428 203.669 153.367C202.925 152.305 198.95 148.421 196.673 144.293C192.68 137.034 187.354 111.626 187.326 111.227C187.299 110.828 186.482 110.547 186.029 111.009Z" fill="#455A64"/>
</svg>
