<svg width="1159" height="852" viewBox="0 0 1159 852" fill="none" xmlns="http://www.w3.org/2000/svg">
<g clip-path="url(#clip0_2571_10903)">
<rect x="1068" y="202" width="40.113" height="16.52" transform="rotate(106 1068 202)" fill="#E1348B" fill-opacity="0.75"/>
<rect x="858" y="496" width="31.113" height="16.52" transform="rotate(-140 858 496)" fill="#A145CD"/>
<rect x="958" y="627" width="31.113" height="15.52" transform="rotate(121 958 627)" fill="#EEDA58" fill-opacity="0.35"/>
<rect x="793" y="398" width="37.113" height="8.52" transform="rotate(-7 793 398)" fill="#E1348B" fill-opacity="0.75"/>
<rect x="271" y="206" width="29.113" height="17.52" transform="rotate(28 271 206)" fill="#EEA858" fill-opacity="0.9"/>
<rect x="487" y="393" width="35.113" height="16.52" transform="rotate(159 487 393)" fill="#787CE8" fill-opacity="0.75"/>
<rect x="496" y="703" width="11.113" height="9.52" transform="rotate(167 496 703)" fill="#EEA858" fill-opacity="0.45"/>
<rect x="556.152" y="120.719" width="32.113" height="16.52" transform="rotate(114 556.152 120.719)" fill="#787CE8" fill-opacity="0.65"/>
<rect x="940" y="160" width="21.113" height="15.52" transform="rotate(108 940 160)" fill="#787CE8" fill-opacity="0.35"/>
<rect x="31" y="818" width="18.113" height="17.52" transform="rotate(67 31 818)" fill="#EEA858" fill-opacity="0.85"/>
<rect x="432" y="200" width="14.113" height="15.52" transform="rotate(134 432 200)" fill="#E1348B" fill-opacity="0.45"/>
<rect x="201" y="851" width="25.113" height="9.52" transform="rotate(-58 201 851)" fill="#787CE8"/>
<rect x="176" y="474" width="46.113" height="13.52" transform="rotate(73 176 474)" fill="#E1348B" fill-opacity="0.75"/>
<rect x="219" y="492" width="37.113" height="17.52" transform="rotate(-93 219 492)" fill="#A145CD" fill-opacity="0.85"/>
<rect x="771" y="424" width="41.113" height="13.52" transform="rotate(42 771 424)" fill="#EEA858" fill-opacity="0.75"/>
<rect x="87" y="702" width="32.113" height="8.52" transform="rotate(9 87 702)" fill="#EEA858" fill-opacity="0.45"/>
<rect x="165" y="133" width="41.113" height="13.52" transform="rotate(-27 165 133)" fill="#EEDA58" fill-opacity="0.6"/>
<rect x="58" y="85" width="10.113" height="13.52" transform="rotate(12 58 85)" fill="#EEDA58" fill-opacity="0.35"/>
<rect x="326" y="79" width="8.113" height="10.52" transform="rotate(-43 326 79)" fill="#A145CD" fill-opacity="0.45"/>
<rect x="1081" y="533" width="22.113" height="9.52" transform="rotate(99 1081 533)" fill="#EEA858" fill-opacity="0.9"/>
<rect x="907" y="609" width="18.113" height="11.52" transform="rotate(-140 907 609)" fill="#EEDA58" fill-opacity="0.45"/>
<rect x="944" y="105" width="33.113" height="11.52" transform="rotate(-104 944 105)" fill="#787CE8" fill-opacity="0.35"/>
<rect x="1" y="499" width="11.113" height="17.52" transform="rotate(-25 1 499)" fill="#787CE8" fill-opacity="0.85"/>
<rect x="176" y="447" width="20.113" height="17.52" transform="rotate(59 176 447)" fill="#E1348B" fill-opacity="0.6"/>
<rect x="1072" y="699" width="27.113" height="13.52" transform="rotate(136 1072 699)" fill="#A145CD" fill-opacity="0.75"/>
<rect x="1030" y="589" width="8.113" height="9.52" transform="rotate(-94 1030 589)" fill="#EEA858" fill-opacity="0.45"/>
<rect x="415" y="158" width="32.113" height="11.52" transform="rotate(-47 415 158)" fill="#EEDA58" fill-opacity="0.65"/>
<rect x="16" y="428" width="41.113" height="8.52" transform="rotate(-25 16 428)" fill="#A145CD" fill-opacity="0.9"/>
<rect x="62" y="58" width="13.113" height="14.52" transform="rotate(-95 62 58)" fill="#EEDA58" fill-opacity="0.9"/>
<rect x="1076" y="305" width="10.113" height="10.52" transform="rotate(55 1076 305)" fill="#EEDA58" fill-opacity="0.65"/>
<rect x="992" y="581" width="19.113" height="9.52" transform="rotate(47 992 581)" fill="#EEA858"/>
<rect x="811" y="297" width="14.113" height="16.52" transform="rotate(-148 811 297)" fill="#EEDA58" fill-opacity="0.85"/>
<rect x="886" y="637" width="32.113" height="14.52" transform="rotate(6 886 637)" fill="#EEDA58" fill-opacity="0.45"/>
<rect x="1018" y="224" width="38.113" height="17.52" transform="rotate(-168 1018 224)" fill="#EEDA58" fill-opacity="0.6"/>
<rect x="972" y="59" width="40.113" height="10.52" transform="rotate(131 972 59)" fill="#A145CD" fill-opacity="0.85"/>
<rect x="225" y="421" width="16.113" height="9.52" transform="rotate(168 225 421)" fill="#E1348B" fill-opacity="0.35"/>
<rect x="215" y="182" width="13.113" height="12.52" transform="rotate(93 215 182)" fill="#EEDA58"/>
<rect x="304" y="17" width="8.113" height="11.52" transform="rotate(-67 304 17)" fill="#EEA858" fill-opacity="0.45"/>
<rect x="836" y="799" width="45.113" height="14.52" transform="rotate(-140 836 799)" fill="#EEA858" fill-opacity="0.85"/>
<rect x="727" y="413" width="16.113" height="15.52" transform="rotate(76 727 413)" fill="#EEDA58" fill-opacity="0.6"/>
<circle cx="647.398" cy="735.398" r="5.3975" fill="#E1348B" fill-opacity="0.85"/>
<circle cx="337.397" cy="760.398" r="3.3975" fill="#787CE8" fill-opacity="0.85"/>
<circle cx="896.898" cy="102.897" r="4.8975" fill="#EEA858" fill-opacity="0.75"/>
<circle cx="401.897" cy="162.898" r="7.8975" fill="#A145CD" fill-opacity="0.9"/>
<circle cx="1036.9" cy="115.897" r="6.8975" fill="#EEA858" fill-opacity="0.45"/>
<circle cx="501.897" cy="547.898" r="2.8975" fill="#E1348B" fill-opacity="0.75"/>
<circle cx="57.8975" cy="577.898" r="2.8975" fill="#A145CD" fill-opacity="0.85"/>
<circle cx="74.8975" cy="736.898" r="6.8975" fill="#EEDA58" fill-opacity="0.6"/>
<circle cx="904.398" cy="305.397" r="6.3975" fill="#EEA858" fill-opacity="0.45"/>
<circle cx="276.397" cy="409.397" r="8.3975" fill="#E1348B" fill-opacity="0.35"/>
<circle cx="866.398" cy="433.397" r="6.3975" fill="#A145CD" fill-opacity="0.45"/>
<circle cx="232.898" cy="611.898" r="3.8975" fill="#EEA858" fill-opacity="0.75"/>
<circle cx="1066.9" cy="41.8975" r="2.8975" fill="#A145CD" fill-opacity="0.35"/>
<circle cx="836.898" cy="150.898" r="3.8975" fill="#E1348B" fill-opacity="0.6"/>
<circle cx="657.898" cy="229.898" r="5.8975" fill="#EEDA58" fill-opacity="0.45"/>
<circle cx="622.898" cy="395.897" r="3.8975" fill="#EEDA58" fill-opacity="0.6"/>
<circle cx="820.398" cy="787.398" r="5.3975" fill="#A145CD" fill-opacity="0.85"/>
<circle cx="519.398" cy="446.397" r="4.3975" fill="#E1348B" fill-opacity="0.75"/>
<circle cx="865.398" cy="683.398" r="3.3975" fill="#EEDA58" fill-opacity="0.6"/>
<circle cx="198.898" cy="542.898" r="4.8975" fill="#787CE8" fill-opacity="0.9"/>
<circle cx="217.898" cy="812.898" r="4.8975" fill="#EEDA58" fill-opacity="0.6"/>
<circle cx="1051.4" cy="130.398" r="8.3975" fill="#A145CD" fill-opacity="0.85"/>
<circle cx="262.397" cy="495.397" r="7.3975" fill="#E1348B" fill-opacity="0.9"/>
<circle cx="57.3975" cy="389.397" r="7.3975" fill="#EEA858" fill-opacity="0.45"/>
<circle cx="549.898" cy="631.898" r="6.8975" fill="#787CE8" fill-opacity="0.9"/>
<circle cx="714.898" cy="507.897" r="7.8975" fill="#E1348B" fill-opacity="0.85"/>
<circle cx="522.398" cy="832.398" r="4.3975" fill="#EEA858" fill-opacity="0.45"/>
<circle cx="361.897" cy="249.898" r="4.8975" fill="#E1348B" fill-opacity="0.45"/>
<circle cx="710.398" cy="438.397" r="5.3975" fill="#EEDA58" fill-opacity="0.75"/>
<circle cx="613.398" cy="90.3975" r="6.3975" fill="#EEDA58" fill-opacity="0.85"/>
<circle cx="937.398" cy="95.3975" r="3.3975" fill="#A145CD" fill-opacity="0.6"/>
<circle cx="347.897" cy="593.898" r="6.8975" fill="#E1348B"/>
<circle cx="326.397" cy="487.397" r="5.3975" fill="#EEDA58" fill-opacity="0.6"/>
<circle cx="1110.4" cy="129.398" r="4.3975" fill="#787CE8" fill-opacity="0.9"/>
<circle cx="654.398" cy="618.398" r="8.3975" fill="#EEA858" fill-opacity="0.45"/>
<circle cx="782.398" cy="559.398" r="6.3975" fill="#787CE8" fill-opacity="0.65"/>
<circle cx="127.897" cy="228.898" r="6.8975" fill="#EEA858"/>
<circle cx="635.398" cy="695.398" r="5.3975" fill="#EEDA58" fill-opacity="0.35"/>
<circle cx="1128.9" cy="476.897" r="5.8975" fill="#787CE8" fill-opacity="0.45"/>
<circle cx="25.8975" cy="835.898" r="3.8975" fill="#E1348B" fill-opacity="0.45"/>
<path d="M335.013 257.055L330.801 252.377L332.746 246.39L338.904 245.081L343.116 249.759L341.171 255.746L335.013 257.055Z" fill="#787CE8"/>
<path d="M199.61 522.826L187.069 521.286L194.673 511.195L199.61 522.826Z" fill="#EEA858"/>
<path d="M548.601 828.171L555.111 840.413L545.479 850.388L533.016 844.309L534.946 830.578L548.601 828.171Z" fill="#E1348B" fill-opacity="0.6"/>
<path d="M1087.39 410.81L1077.96 415.007L1073.76 405.582L1083.19 401.386L1087.39 410.81Z" fill="#EEDA58" fill-opacity="0.85"/>
<path d="M9.84406 140.233L0.455047 127.31L13.3779 117.921L22.7669 130.844L9.84406 140.233Z" fill="#787CE8" fill-opacity="0.65"/>
<path d="M775.279 290.546L780.98 285.229L788.434 287.508L790.188 295.104L784.487 300.42L777.033 298.141L775.279 290.546Z" fill="#787CE8" fill-opacity="0.6"/>
<path d="M246.131 12.6105L245.492 21.7518L236.6 23.9687L231.744 16.1975L237.634 9.1778L246.131 12.6105Z" fill="#EEDA58" fill-opacity="0.65"/>
<path d="M355.038 16.1079L358.946 5.9288L365.807 14.4022L355.038 16.1079Z" fill="#EEA858" fill-opacity="0.6"/>
<path d="M827.875 638.846L809.069 633.454L823.142 619.864L827.875 638.846Z" fill="#EEDA58" fill-opacity="0.6"/>
<path d="M982.765 530.501L993.24 527.89L1000.74 535.655L997.763 546.032L987.289 548.643L979.79 540.878L982.765 530.501Z" fill="#EEA858" fill-opacity="0.9"/>
<path d="M350.636 609.207L342.754 614.133L334.547 609.769L334.222 600.48L342.105 595.554L350.312 599.918L350.636 609.207Z" fill="#787CE8" fill-opacity="0.9"/>
<path d="M582.388 789.526L590.251 776.44L603.337 784.303L595.474 797.388L582.388 789.526Z" fill="#A145CD"/>
<path d="M1051.49 703.786L1042.95 704.533L1039.6 696.639L1046.07 691.013L1053.42 695.43L1051.49 703.786Z" fill="#A145CD" fill-opacity="0.75"/>
<path d="M1015.91 289.067L1009 282.848L1010.93 273.756L1019.77 270.884L1026.68 277.103L1024.75 286.195L1015.91 289.067Z" fill="#E1348B" fill-opacity="0.35"/>
<path d="M1086.97 675.281L1086.57 663.774L1097.39 659.835L1104.48 668.909L1098.04 678.455L1086.97 675.281Z" fill="#A145CD"/>
<path d="M482.389 854.157L476.684 856.817L471.528 853.206L472.076 846.935L477.781 844.275L482.938 847.886L482.389 854.157Z" fill="#787CE8" fill-opacity="0.35"/>
<path d="M957.996 841.991L942.711 832.807L958.307 824.162L957.996 841.991Z" fill="#787CE8" fill-opacity="0.65"/>
<path d="M762.016 395.052L763.04 385.31L771.988 381.326L779.912 387.084L778.889 396.825L769.94 400.809L762.016 395.052Z" fill="#787CE8" fill-opacity="0.45"/>
<path d="M668.391 331.142L667.82 320.254L677.535 325.204L668.391 331.142Z" fill="#EEA858" fill-opacity="0.35"/>
<path d="M15.7931 76.4855L12.2255 58.1315L29.9043 64.2188L15.7931 76.4855Z" fill="#EEDA58" fill-opacity="0.6"/>
<path d="M73.2797 711.439L79.1202 718.158L72.4014 723.998L66.5609 717.28L73.2797 711.439Z" fill="#EEDA58" fill-opacity="0.6"/>
<path d="M267.128 573.064L265.051 586.179L251.936 588.256L245.908 576.425L255.297 567.036L267.128 573.064Z" fill="#E1348B" fill-opacity="0.9"/>
<path d="M931.759 244.196L936.16 235.174L941.772 243.496L931.759 244.196Z" fill="#EEDA58" fill-opacity="0.6"/>
<path d="M442.836 37.4496L445.823 23.3962L456.5 33.0098L442.836 37.4496Z" fill="#787CE8" fill-opacity="0.9"/>
<path d="M660.954 224.804L649.551 226.407L644.504 216.057L652.787 208.059L662.954 213.464L660.954 224.804Z" fill="#E1348B" fill-opacity="0.65"/>
<path d="M989.794 421.153L998.051 427.376L994.685 437.152L984.347 436.971L981.324 427.084L989.794 421.153Z" fill="#E1348B" fill-opacity="0.6"/>
<path d="M620.788 353.322L620.014 345.962L626.775 342.952L631.726 348.452L628.026 354.86L620.788 353.322Z" fill="#EEA858" fill-opacity="0.6"/>
<path d="M640.545 775.143L652.288 778.071L653.133 790.144L641.911 794.678L634.132 785.407L640.545 775.143Z" fill="#A145CD" fill-opacity="0.85"/>
<path d="M890.408 146.231L893.279 140.072L900.049 139.48L903.946 145.046L901.074 151.205L894.305 151.797L890.408 146.231Z" fill="#A145CD" fill-opacity="0.75"/>
<path d="M1008.7 515.646L1004.74 519.885L999.098 518.581L997.403 513.039L1001.36 508.801L1007 510.105L1008.7 515.646Z" fill="#A145CD" fill-opacity="0.65"/>
<path d="M305.003 86.7496L323.041 96.3407L305.716 107.167L305.003 86.7496Z" fill="#787CE8"/>
<path d="M35.4351 373.656L40.7158 369.38L47.0595 371.815L48.1225 378.527L42.8418 382.803L36.4981 380.368L35.4351 373.656Z" fill="#EEA858" fill-opacity="0.35"/>
<path d="M819.799 409.179L815.669 413.93L809.49 412.729L807.44 406.777L811.57 402.026L817.749 403.227L819.799 409.179Z" fill="#787CE8" fill-opacity="0.75"/>
<path d="M592.233 351.989L599.869 355.23L600.88 363.463L594.255 368.455L586.619 365.214L585.608 356.981L592.233 351.989Z" fill="#E1348B" fill-opacity="0.75"/>
<path d="M403.218 385.255L412.069 393.509L406.955 404.477L394.942 403.002L392.633 391.122L403.218 385.255Z" fill="#EEA858" fill-opacity="0.85"/>
<path d="M187.795 100.632L189.838 89.0418L198.854 96.6069L187.795 100.632Z" fill="#EEA858" fill-opacity="0.45"/>
<path d="M785.796 6.64991L779.942 -5.90446L792.496 -11.7587L798.35 0.795711L785.796 6.64991Z" fill="#E1348B" fill-opacity="0.65"/>
<path d="M167.482 188.506L155.713 180.265L168.734 174.193L167.482 188.506Z" fill="#A145CD" fill-opacity="0.6"/>
<path d="M497.033 423.213L492.763 413.154L501.01 405.986L510.376 411.614L507.918 422.26L497.033 423.213Z" fill="#EEA858" fill-opacity="0.65"/>
<path d="M313.185 427.428L316.782 434.804L324.909 433.662L319.006 439.362L322.603 446.738L315.357 442.885L309.454 448.586L310.879 440.504L303.634 436.652L311.76 435.51L313.185 427.428Z" fill="#787CE8" fill-opacity="0.6"/>
<path d="M986.935 853.294L983.382 849.196L979.17 852.615L980.943 847.488L975.876 845.55L981.202 844.522L980.347 839.165L983.901 843.264L988.112 839.844L986.339 844.971L991.406 846.909L986.08 847.937L986.935 853.294Z" fill="#787CE8" fill-opacity="0.65"/>
<path d="M541.301 504.701L537.061 501.541L531.902 502.703L535.062 498.462L533.9 493.303L538.14 496.463L543.299 495.301L540.139 499.542L541.301 504.701Z" fill="#A145CD" fill-opacity="0.85"/>
<path d="M812.804 140.241L811.644 144.288L815.134 146.642L810.927 146.789L809.766 150.836L808.326 146.88L804.118 147.027L807.436 144.435L805.996 140.478L809.486 142.833L812.804 140.241Z" fill="#A145CD" fill-opacity="0.85"/>
<path d="M587.662 830.113L580.028 827.677L573.211 831.887L575.646 824.254L571.437 817.436L579.07 819.871L585.887 815.662L583.452 823.295L587.662 830.113Z" fill="#A145CD" fill-opacity="0.9"/>
<path d="M679.795 581.758L678.157 588.002L681.832 593.31L675.587 591.673L670.279 595.348L671.917 589.103L668.242 583.795L674.487 585.432L679.795 581.758Z" fill="#EEDA58"/>
<path d="M125.956 500.009L118.486 499.214L117.45 506.655L114.403 499.788L107.441 502.611L111.864 496.539L105.938 491.921L113.409 492.716L114.445 485.275L117.492 492.142L124.454 489.319L120.03 495.391L125.956 500.009Z" fill="#A145CD" fill-opacity="0.65"/>
<path d="M788.379 462.625L782.376 463.501L779.134 468.629L778.258 462.626L773.13 459.383L779.133 458.507L782.375 453.379L783.252 459.382L788.379 462.625Z" fill="#EEDA58" fill-opacity="0.35"/>
<path d="M655.318 333.015L650.583 329.222L644.622 330.348L648.415 325.613L647.289 319.651L652.024 323.444L657.985 322.318L654.193 327.053L655.318 333.015Z" fill="#A145CD" fill-opacity="0.75"/>
<path d="M798.617 273.886L794.604 279.821L800.405 284.025L793.259 283.516L792.519 290.643L789.386 284.199L782.845 287.121L786.858 281.187L781.057 276.983L788.203 277.492L788.943 270.365L792.076 276.809L798.617 273.886Z" fill="#EEDA58" fill-opacity="0.45"/>
<path d="M383.085 129.719L377.744 132.596L376.451 138.523L373.574 133.182L367.647 131.889L372.988 129.012L374.281 123.085L377.158 128.426L383.085 129.719Z" fill="#EEA858" fill-opacity="0.65"/>
<path d="M971.441 319.244L966.951 312.143L958.637 310.93L965.738 306.44L966.952 298.126L971.442 305.227L979.756 306.441L972.655 310.931L971.441 319.244Z" fill="#A145CD" fill-opacity="0.9"/>
<path d="M163.846 346.786L169.529 343.724L170.905 337.417L173.967 343.101L180.274 344.477L174.59 347.538L173.214 353.846L170.153 348.162L163.846 346.786Z" fill="#EEDA58" fill-opacity="0.45"/>
<path d="M595.758 116.369L594.157 109.435L587.068 108.815L593.168 105.149L591.567 98.2153L596.938 102.884L603.038 99.2189L600.257 105.77L605.628 110.438L598.539 109.818L595.758 116.369Z" fill="#787CE8" fill-opacity="0.85"/>
<path d="M982.638 761.105L986.412 753.599L983.171 745.848L990.677 749.622L998.428 746.381L994.654 753.887L997.895 761.638L990.389 757.864L982.638 761.105Z" fill="#A145CD" fill-opacity="0.65"/>
<path d="M673.206 535.427L665.695 535.549L665.573 543.06L661.712 536.616L655.146 540.266L658.796 533.7L652.352 529.839L659.863 529.718L659.985 522.206L663.846 528.65L670.412 525L666.762 531.566L673.206 535.427Z" fill="#787CE8"/>
<path d="M181.307 547.21L187.449 545.449L187.672 539.063L191.246 544.361L197.388 542.599L193.454 547.635L197.027 552.932L191.023 550.747L187.089 555.782L187.312 549.396L181.307 547.21Z" fill="#EEDA58" fill-opacity="0.75"/>
<path d="M816.442 180.606L820.528 172.823L817.278 164.655L825.062 168.74L833.23 165.491L829.144 173.274L832.394 181.442L824.61 177.357L816.442 180.606Z" fill="#E1348B" fill-opacity="0.9"/>
<path d="M270.162 754.294L263.974 756.177L265.656 762.423L260.931 758.006L256.362 762.585L257.825 756.284L251.575 754.618L257.763 752.735L256.081 746.488L260.807 750.906L265.375 746.326L263.912 752.627L270.162 754.294Z" fill="#787CE8" fill-opacity="0.45"/>
<path d="M715.371 551.919L719.129 549.668L717 545.839L720.829 547.968L723.081 544.21L723.151 548.59L727.532 548.661L723.774 550.913L725.902 554.741L722.074 552.613L719.822 556.371L719.751 551.99L715.371 551.919Z" fill="#EEA858" fill-opacity="0.75"/>
<path d="M897.521 624.748L902.476 618.645L896.537 613.496L904.299 614.735L905.789 607.017L908.597 614.359L916.026 611.791L911.072 617.893L917.011 623.043L909.248 621.803L907.758 629.521L904.95 622.179L897.521 624.748Z" fill="#E1348B" fill-opacity="0.9"/>
<path d="M872.119 72.794L867.192 74.7155L865.443 79.7065L863.522 74.7796L858.531 73.0311L863.458 71.1096L865.206 66.1186L867.128 71.0455L872.119 72.794Z" fill="#EEA858"/>
<path d="M128.487 261.747L133.817 256.96L129.205 251.477L136.016 253.7L138.458 246.964L139.939 253.974L146.993 252.721L141.663 257.508L146.275 262.991L139.464 260.768L137.022 267.504L135.541 260.494L128.487 261.747Z" fill="#EEA858" fill-opacity="0.9"/>
<path d="M344.633 561.367L351.621 564.927L357.167 559.382L355.94 567.128L362.929 570.689L355.182 571.916L353.955 579.662L350.394 572.674L342.648 573.901L348.194 568.355L344.633 561.367Z" fill="#EEDA58"/>
<path d="M323.025 180.665L325.575 175.592L323.385 170.354L328.457 172.905L333.695 170.714L331.145 175.787L333.335 181.025L328.263 178.474L323.025 180.665Z" fill="#787CE8" fill-opacity="0.9"/>
<path d="M1154.28 569.793L1154.2 575.86L1158.76 579.864L1152.69 579.791L1148.69 584.348L1148.76 578.282L1144.21 574.277L1150.27 574.351L1154.28 569.793Z" fill="#E1348B" fill-opacity="0.75"/>
<path d="M154.795 201.668L150.332 202.32L147.922 206.132L147.27 201.669L143.458 199.259L147.921 198.607L150.332 194.795L150.983 199.258L154.795 201.668Z" fill="#E1348B" fill-opacity="0.35"/>
<path d="M117.863 371.386L125.704 371.944L126.516 364.126L129.953 371.195L137.129 367.989L132.726 374.5L139.091 379.112L131.25 378.554L130.438 386.373L127.001 379.303L119.824 382.51L124.228 375.998L117.863 371.386Z" fill="#787CE8" fill-opacity="0.75"/>
<path d="M517.562 659.216L524.981 660.401L526.405 653.025L529.088 660.042L536.189 657.587L531.453 663.419L537.129 668.341L529.711 667.156L528.287 674.532L525.603 667.516L518.503 669.97L523.238 664.138L517.562 659.216Z" fill="#A145CD" fill-opacity="0.75"/>
<path d="M255.206 597.389L247.248 594.697L240.024 598.985L242.716 591.027L238.428 583.802L246.386 586.495L253.611 582.206L250.918 590.165L255.206 597.389Z" fill="#EEA858" fill-opacity="0.45"/>
<path d="M1075.12 359.926L1070.32 355.591L1065.83 360.25L1067.18 353.924L1060.9 352.367L1067.06 350.376L1065.27 344.16L1070.07 348.495L1074.56 343.836L1073.2 350.162L1079.48 351.719L1073.33 353.71L1075.12 359.926Z" fill="#787CE8" fill-opacity="0.75"/>
<path d="M716.424 371.546L722.81 371.323L724.572 365.18L726.757 371.185L733.143 370.962L728.108 374.896L730.293 380.9L724.996 377.327L719.96 381.261L721.722 375.119L716.424 371.546Z" fill="#E1348B" fill-opacity="0.75"/>
<path d="M841.275 737.421L843.932 743.305L850.128 745.118L844.245 747.775L842.432 753.971L839.775 748.087L833.579 746.275L839.462 743.618L841.275 737.421Z" fill="#E1348B" fill-opacity="0.35"/>
<path d="M10.224 190.291L16.5169 189.181L17.4062 182.853L20.4061 188.495L26.699 187.386L22.2601 191.982L25.26 197.624L19.5168 194.823L15.078 199.42L15.9673 193.092L10.224 190.291Z" fill="#A145CD" fill-opacity="0.9"/>
<path d="M89.7947 685.368L85.8777 682.718L83.103 686.548L83.4387 681.831L78.7352 681.342L82.9881 679.275L81.0592 674.957L84.9763 677.606L87.751 673.777L87.4152 678.494L92.1188 678.983L87.8659 681.05L89.7947 685.368Z" fill="#EEDA58" fill-opacity="0.6"/>
<path d="M92.2809 120.461L95.4509 127.82L103.101 130.203L95.742 133.373L93.3585 141.023L90.1884 133.664L82.5388 131.281L89.8974 128.111L92.2809 120.461Z" fill="#E1348B" fill-opacity="0.45"/>
<path d="M1147.72 6.56077L1151.97 8.08066L1155.89 5.8465L1154.37 10.0928L1156.6 14.0107L1152.36 12.4908L1148.44 14.725L1149.96 10.4786L1147.72 6.56077Z" fill="#E1348B" fill-opacity="0.45"/>
<path d="M1110.17 107.984L1115.72 102.755L1115.36 95.1401L1120.59 100.688L1128.21 100.329L1122.66 105.558L1123.02 113.173L1117.79 107.625L1110.17 107.984Z" fill="#EEDA58" fill-opacity="0.75"/>
<path d="M634.788 234.412L637.671 243.127L646.164 246.611L637.449 249.494L633.965 257.987L631.081 249.272L622.588 245.788L631.304 242.904L634.788 234.412Z" fill="#EEA858" fill-opacity="0.35"/>
<path d="M679.383 609.886L672.841 606.964L669.708 613.408L668.968 606.281L661.822 606.79L667.623 602.586L663.61 596.651L670.151 599.574L673.284 593.13L674.024 600.257L681.17 599.748L675.369 603.952L679.383 609.886Z" fill="#EEDA58" fill-opacity="0.9"/>
</g>
<defs>
<clipPath id="clip0_2571_10903">
<rect width="1159" height="852" rx="30" fill="white"/>
</clipPath>
</defs>
</svg>
